<svg width="120" height="118" viewBox="0 0 120 118" fill="none" xmlns="http://www.w3.org/2000/svg">
<path d="M4.99238 9.98462C7.74956 9.98462 9.98458 7.74948 9.98458 4.99231C9.98458 2.23513 7.74956 0 4.99238 0C2.23521 0 0 2.23513 0 4.99231C0 7.74948 2.23521 9.98462 4.99238 9.98462Z" fill="#FCA5A5"/>
<path d="M26.8152 9.98462C29.5724 9.98462 31.8076 7.74948 31.8076 4.99231C31.8076 2.23513 29.5724 0 26.8152 0C24.058 0 21.823 2.23513 21.823 4.99231C21.823 7.74948 24.058 9.98462 26.8152 9.98462Z" fill="#FCA5A5"/>
<path d="M48.6372 9.98462C51.3943 9.98462 53.6294 7.74948 53.6294 4.99231C53.6294 2.23513 51.3943 0 48.6372 0C45.88 0 43.6448 2.23513 43.6448 4.99231C43.6448 7.74948 45.88 9.98462 48.6372 9.98462Z" fill="#FCA5A5"/>
<path d="M70.4974 9.98462C73.2546 9.98462 75.4898 7.74948 75.4898 4.99231C75.4898 2.23513 73.2546 0 70.4974 0C67.7402 0 65.5052 2.23513 65.5052 4.99231C65.5052 7.74948 67.7402 9.98462 70.4974 9.98462Z" fill="#FCA5A5"/>
<path d="M92.3204 9.98462C95.0776 9.98462 97.3126 7.74948 97.3126 4.99231C97.3126 2.23513 95.0776 0 92.3204 0C89.5632 0 87.328 2.23513 87.328 4.99231C87.328 7.74948 89.5632 9.98462 92.3204 9.98462Z" fill="#FCA5A5"/>
<path d="M114.18 9.98462C116.937 9.98462 119.172 7.74948 119.172 4.99231C119.172 2.23513 116.937 0 114.18 0C111.423 0 109.188 2.23513 109.188 4.99231C109.188 7.74948 111.423 9.98462 114.18 9.98462Z" fill="#FCA5A5"/>
<path d="M4.99244 27.9871C7.74962 27.9871 9.98464 25.7519 9.98464 22.9948C9.98464 20.2376 7.74962 18.0024 4.99244 18.0024C2.23527 18.0024 6.10352e-05 20.2376 6.10352e-05 22.9948C6.10352e-05 25.7519 2.23527 27.9871 4.99244 27.9871Z" fill="#FCA5A5"/>
<path d="M26.8151 27.9871C29.5723 27.9871 31.8075 25.7519 31.8075 22.9948C31.8075 20.2376 29.5723 18.0024 26.8151 18.0024C24.058 18.0024 21.8229 20.2376 21.8229 22.9948C21.8229 25.7519 24.058 27.9871 26.8151 27.9871Z" fill="#FCA5A5"/>
<path d="M48.6371 27.9871C51.3943 27.9871 53.6293 25.7519 53.6293 22.9948C53.6293 20.2376 51.3943 18.0024 48.6371 18.0024C45.8799 18.0024 43.6447 20.2376 43.6447 22.9948C43.6447 25.7519 45.8799 27.9871 48.6371 27.9871Z" fill="#FCA5A5"/>
<path d="M70.4973 27.9871C73.2545 27.9871 75.4897 25.7519 75.4897 22.9948C75.4897 20.2376 73.2545 18.0024 70.4973 18.0024C67.7401 18.0024 65.5051 20.2376 65.5051 22.9948C65.5051 25.7519 67.7401 27.9871 70.4973 27.9871Z" fill="#FCA5A5"/>
<path d="M92.3203 27.9871C95.0775 27.9871 97.3125 25.7519 97.3125 22.9948C97.3125 20.2376 95.0775 18.0024 92.3203 18.0024C89.5631 18.0024 87.3279 20.2376 87.3279 22.9948C87.3279 25.7519 89.5631 27.9871 92.3203 27.9871Z" fill="#FCA5A5"/>
<path d="M114.18 27.9871C116.937 27.9871 119.172 25.7519 119.172 22.9948C119.172 20.2376 116.937 18.0024 114.18 18.0024C111.423 18.0024 109.188 20.2376 109.188 22.9948C109.188 25.7519 111.423 27.9871 114.18 27.9871Z" fill="#FCA5A5"/>
<path d="M4.99244 45.9895C7.74962 45.9895 9.98464 43.7544 9.98464 40.9972C9.98464 38.24 7.74962 36.0049 4.99244 36.0049C2.23527 36.0049 6.10352e-05 38.24 6.10352e-05 40.9972C6.10352e-05 43.7544 2.23527 45.9895 4.99244 45.9895Z" fill="#FCA5A5"/>
<path d="M26.8151 45.9895C29.5723 45.9895 31.8075 43.7544 31.8075 40.9972C31.8075 38.24 29.5723 36.0049 26.8151 36.0049C24.058 36.0049 21.8229 38.24 21.8229 40.9972C21.8229 43.7544 24.058 45.9895 26.8151 45.9895Z" fill="#FCA5A5"/>
<path d="M48.6371 45.9895C51.3943 45.9895 53.6293 43.7544 53.6293 40.9972C53.6293 38.24 51.3943 36.0049 48.6371 36.0049C45.8799 36.0049 43.6447 38.24 43.6447 40.9972C43.6447 43.7544 45.8799 45.9895 48.6371 45.9895Z" fill="#FCA5A5"/>
<path d="M70.4973 45.9895C73.2545 45.9895 75.4897 43.7544 75.4897 40.9972C75.4897 38.24 73.2545 36.0049 70.4973 36.0049C67.7401 36.0049 65.5051 38.24 65.5051 40.9972C65.5051 43.7544 67.7401 45.9895 70.4973 45.9895Z" fill="#FCA5A5"/>
<path d="M92.3203 45.9895C95.0775 45.9895 97.3125 43.7544 97.3125 40.9972C97.3125 38.24 95.0775 36.0049 92.3203 36.0049C89.5631 36.0049 87.3279 38.24 87.3279 40.9972C87.3279 43.7544 89.5631 45.9895 92.3203 45.9895Z" fill="#FCA5A5"/>
<path d="M114.18 45.9895C116.937 45.9895 119.172 43.7544 119.172 40.9972C119.172 38.24 116.937 36.0049 114.18 36.0049C111.423 36.0049 109.188 38.24 109.188 40.9972C109.188 43.7544 111.423 45.9895 114.18 45.9895Z" fill="#FCA5A5"/>
<path d="M4.99244 63.9924C7.74962 63.9924 9.98464 61.7573 9.98464 59.0001C9.98464 56.2429 7.74962 54.0078 4.99244 54.0078C2.23527 54.0078 6.10352e-05 56.2429 6.10352e-05 59.0001C6.10352e-05 61.7573 2.23527 63.9924 4.99244 63.9924Z" fill="#FCA5A5"/>
<path d="M26.8151 63.9924C29.5723 63.9924 31.8075 61.7573 31.8075 59.0001C31.8075 56.2429 29.5723 54.0078 26.8151 54.0078C24.058 54.0078 21.8229 56.2429 21.8229 59.0001C21.8229 61.7573 24.058 63.9924 26.8151 63.9924Z" fill="#FCA5A5"/>
<path d="M48.6371 63.9924C51.3943 63.9924 53.6293 61.7573 53.6293 59.0001C53.6293 56.2429 51.3943 54.0078 48.6371 54.0078C45.8799 54.0078 43.6447 56.2429 43.6447 59.0001C43.6447 61.7573 45.8799 63.9924 48.6371 63.9924Z" fill="#FCA5A5"/>
<path d="M70.4973 63.9924C73.2545 63.9924 75.4897 61.7573 75.4897 59.0001C75.4897 56.2429 73.2545 54.0078 70.4973 54.0078C67.7401 54.0078 65.5051 56.2429 65.5051 59.0001C65.5051 61.7573 67.7401 63.9924 70.4973 63.9924Z" fill="#FCA5A5"/>
<path d="M92.3203 63.9924C95.0775 63.9924 97.3125 61.7573 97.3125 59.0001C97.3125 56.2429 95.0775 54.0078 92.3203 54.0078C89.5631 54.0078 87.3279 56.2429 87.3279 59.0001C87.3279 61.7573 89.5631 63.9924 92.3203 63.9924Z" fill="#FCA5A5"/>
<path d="M114.18 63.9924C116.937 63.9924 119.172 61.7573 119.172 59.0001C119.172 56.2429 116.937 54.0078 114.18 54.0078C111.423 54.0078 109.188 56.2429 109.188 59.0001C109.188 61.7573 111.423 63.9924 114.18 63.9924Z" fill="#FCA5A5"/>
<path d="M4.99244 81.9949C7.74962 81.9949 9.98464 79.7597 9.98464 77.0026C9.98464 74.2454 7.74962 72.0103 4.99244 72.0103C2.23527 72.0103 6.10352e-05 74.2454 6.10352e-05 77.0026C6.10352e-05 79.7597 2.23527 81.9949 4.99244 81.9949Z" fill="#FCA5A5"/>
<path d="M26.8151 81.9949C29.5723 81.9949 31.8075 79.7597 31.8075 77.0026C31.8075 74.2454 29.5723 72.0103 26.8151 72.0103C24.058 72.0103 21.8229 74.2454 21.8229 77.0026C21.8229 79.7597 24.058 81.9949 26.8151 81.9949Z" fill="#FCA5A5"/>
<path d="M48.6371 81.9949C51.3943 81.9949 53.6293 79.7597 53.6293 77.0026C53.6293 74.2454 51.3943 72.0103 48.6371 72.0103C45.8799 72.0103 43.6447 74.2454 43.6447 77.0026C43.6447 79.7597 45.8799 81.9949 48.6371 81.9949Z" fill="#FCA5A5"/>
<path d="M70.4973 81.9949C73.2545 81.9949 75.4897 79.7597 75.4897 77.0026C75.4897 74.2454 73.2545 72.0103 70.4973 72.0103C67.7401 72.0103 65.5051 74.2454 65.5051 77.0026C65.5051 79.7597 67.7401 81.9949 70.4973 81.9949Z" fill="#FCA5A5"/>
<path d="M92.3203 81.9949C95.0775 81.9949 97.3125 79.7597 97.3125 77.0026C97.3125 74.2454 95.0775 72.0103 92.3203 72.0103C89.5631 72.0103 87.3279 74.2454 87.3279 77.0026C87.3279 79.7597 89.5631 81.9949 92.3203 81.9949Z" fill="#FCA5A5"/>
<path d="M114.18 81.9949C116.937 81.9949 119.172 79.7597 119.172 77.0026C119.172 74.2454 116.937 72.0103 114.18 72.0103C111.423 72.0103 109.188 74.2454 109.188 77.0026C109.188 79.7597 111.423 81.9949 114.18 81.9949Z" fill="#FCA5A5"/>
<path d="M4.99244 99.9973C7.74962 99.9973 9.98464 97.7622 9.98464 95.005C9.98464 92.2478 7.74962 90.0127 4.99244 90.0127C2.23527 90.0127 6.10352e-05 92.2478 6.10352e-05 95.005C6.10352e-05 97.7622 2.23527 99.9973 4.99244 99.9973Z" fill="#FCA5A5"/>
<path d="M26.8151 99.9973C29.5723 99.9973 31.8075 97.7622 31.8075 95.005C31.8075 92.2478 29.5723 90.0127 26.8151 90.0127C24.058 90.0127 21.8229 92.2478 21.8229 95.005C21.8229 97.7622 24.058 99.9973 26.8151 99.9973Z" fill="#FCA5A5"/>
<path d="M48.6371 99.9973C51.3943 99.9973 53.6293 97.7622 53.6293 95.005C53.6293 92.2478 51.3943 90.0127 48.6371 90.0127C45.8799 90.0127 43.6447 92.2478 43.6447 95.005C43.6447 97.7622 45.8799 99.9973 48.6371 99.9973Z" fill="#FCA5A5"/>
<path d="M70.4973 99.9973C73.2545 99.9973 75.4897 97.7622 75.4897 95.005C75.4897 92.2478 73.2545 90.0127 70.4973 90.0127C67.7401 90.0127 65.5051 92.2478 65.5051 95.005C65.5051 97.7622 67.7401 99.9973 70.4973 99.9973Z" fill="#FCA5A5"/>
<path d="M92.3203 99.9973C95.0775 99.9973 97.3125 97.7622 97.3125 95.005C97.3125 92.2478 95.0775 90.0127 92.3203 90.0127C89.5631 90.0127 87.3279 92.2478 87.3279 95.005C87.3279 97.7622 89.5631 99.9973 92.3203 99.9973Z" fill="#FCA5A5"/>
<path d="M114.18 99.9973C116.937 99.9973 119.172 97.7622 119.172 95.005C119.172 92.2478 116.937 90.0127 114.18 90.0127C111.423 90.0127 109.188 92.2478 109.188 95.005C109.188 97.7622 111.423 99.9973 114.18 99.9973Z" fill="#FCA5A5"/>
<path d="M4.99244 118C7.74962 118 9.98464 115.765 9.98464 113.008C9.98464 110.251 7.74962 108.016 4.99244 108.016C2.23527 108.016 6.10352e-05 110.251 6.10352e-05 113.008C6.10352e-05 115.765 2.23527 118 4.99244 118Z" fill="#FCA5A5"/>
<path d="M26.8151 118C29.5723 118 31.8075 115.765 31.8075 113.008C31.8075 110.251 29.5723 108.016 26.8151 108.016C24.058 108.016 21.8229 110.251 21.8229 113.008C21.8229 115.765 24.058 118 26.8151 118Z" fill="#FCA5A5"/>
<path d="M48.6371 118C51.3943 118 53.6293 115.765 53.6293 113.008C53.6293 110.251 51.3943 108.016 48.6371 108.016C45.8799 108.016 43.6447 110.251 43.6447 113.008C43.6447 115.765 45.8799 118 48.6371 118Z" fill="#FCA5A5"/>
<path d="M70.4973 118C73.2545 118 75.4897 115.765 75.4897 113.008C75.4897 110.251 73.2545 108.016 70.4973 108.016C67.7401 108.016 65.5051 110.251 65.5051 113.008C65.5051 115.765 67.7401 118 70.4973 118Z" fill="#FCA5A5"/>
<path d="M92.3203 118C95.0775 118 97.3125 115.765 97.3125 113.008C97.3125 110.251 95.0775 108.016 92.3203 108.016C89.5631 108.016 87.3279 110.251 87.3279 113.008C87.3279 115.765 89.5631 118 92.3203 118Z" fill="#FCA5A5"/>
<path d="M114.18 118C116.937 118 119.172 115.765 119.172 113.008C119.172 110.251 116.937 108.016 114.18 108.016C111.423 108.016 109.188 110.251 109.188 113.008C109.188 115.765 111.423 118 114.18 118Z" fill="#FCA5A5"/>
</svg>
