<svg width="20" height="20" viewBox="0 0 20 20" fill="none" xmlns="http://www.w3.org/2000/svg">
<path d="M10.344 14.8984L14.2815 17.3984C14.7893 17.7187 15.4143 17.2421 15.2659 16.6562L14.1253 12.1719C14.0944 12.0476 14.0993 11.9171 14.1394 11.7955C14.1795 11.6738 14.2531 11.566 14.3518 11.4844L17.883 8.5391C18.344 8.15629 18.1096 7.38286 17.508 7.3438L12.8987 7.04692C12.7729 7.03961 12.652 6.99581 12.5508 6.92089C12.4495 6.84597 12.3722 6.74317 12.3284 6.62505L10.6097 2.29697C10.5642 2.1719 10.4813 2.06385 10.3723 1.9875C10.2633 1.91115 10.1334 1.8702 10.0003 1.8702C9.86721 1.8702 9.73734 1.91115 9.62833 1.9875C9.51931 2.06385 9.43643 2.1719 9.39093 2.29697L7.6722 6.62505C7.6284 6.74317 7.55113 6.84597 7.44985 6.92089C7.34857 6.99581 7.22766 7.03961 7.10189 7.04692L2.49257 7.3438C1.89101 7.38286 1.65664 8.15629 2.11757 8.5391L5.64878 11.4844C5.74748 11.566 5.82111 11.6738 5.8612 11.7955C5.90128 11.9171 5.90619 12.0476 5.87534 12.1719L4.82067 16.3281C4.64098 17.0312 5.39097 17.6015 5.99253 17.2187L9.65656 14.8984C9.7593 14.8331 9.87854 14.7984 10.0003 14.7984C10.1221 14.7984 10.2413 14.8331 10.344 14.8984Z" fill="#FEC84B"/>
</svg>
