<svg width="866" height="147" viewBox="0 0 866 147" fill="none" xmlns="http://www.w3.org/2000/svg">
<path d="M74.4817 76.6193L4.38856 124.154C1.64376 126.016 0 129.117 0 132.433V136.359C0 141.884 4.47845 146.362 10.0029 146.362H855.997C861.521 146.362 866 141.884 866 136.359V56.0131C866 51.9943 863.595 48.3657 859.893 46.8002L794.527 19.154C790.426 17.4195 785.672 18.6046 782.866 22.0611L715.952 104.463C711.984 109.348 704.546 109.401 700.51 104.571L635.74 27.057C632.43 23.0963 626.65 22.304 622.397 25.2281L558.409 69.2187C554.414 71.9648 549.026 71.4517 545.621 68.0009L481.472 2.97825C477.107 -1.44561 469.808 -0.861044 466.203 4.20102L396.654 101.865C394.855 104.391 391.987 105.94 388.889 106.058L319.127 108.73C316.189 108.842 313.35 107.657 311.365 105.488L243.791 31.6535C240.05 27.5669 233.701 27.2983 229.629 31.0545L161.876 93.5541C159.288 95.9415 155.635 96.7923 152.259 95.7944L82.9311 75.3052C80.0599 74.4567 76.9596 74.9388 74.4817 76.6193Z" fill="url(#paint0_linear_177_3249)"/>
<defs>
<linearGradient id="paint0_linear_177_3249" x1="433" y1="-5.49771" x2="433" y2="146.362" gradientUnits="userSpaceOnUse">
<stop stop-color="#165DFF" stop-opacity="0.2"/>
<stop offset="1" stop-color="#165DFF" stop-opacity="0"/>
</linearGradient>
</defs>
</svg>
