<svg width="867" height="130" viewBox="0 0 867 130" fill="none" xmlns="http://www.w3.org/2000/svg">
<path d="M0.562208 128.37L75.0433 77.7642C77.5239 76.0788 80.6297 75.5952 83.5053 76.4467L152.821 96.9708C156.202 97.9719 159.861 97.1189 162.451 94.7254L230.196 32.115C234.27 28.3498 240.63 28.6189 244.372 32.7146L311.943 106.684C313.929 108.858 316.771 110.046 319.713 109.934L389.467 107.257C392.569 107.138 395.439 105.586 397.237 103.056L466.786 5.20863C470.391 0.137059 477.702 -0.448228 482.068 3.98525L546.208 69.1207C549.614 72.5797 555.012 73.0939 559.01 70.3402L622.984 26.2767C627.241 23.3448 633.031 24.1385 636.341 28.1079L701.105 105.76C705.141 110.599 712.591 110.547 716.559 105.652L783.468 23.1005C786.276 19.6365 791.037 18.449 795.143 20.1886L866.61 50.472" stroke="#165DFF" stroke-width="2" stroke-linejoin="round"/>
</svg>
