<svg width="24" height="24" viewBox="0 0 24 24" fill="none" xmlns="http://www.w3.org/2000/svg">
<path d="M12 4C6.486 4 2 8.486 2 14C1.99871 15.5434 2.35864 17.0656 3.051 18.445C3.221 18.785 3.567 19 3.946 19H20.053C20.432 19 20.779 18.785 20.949 18.445C21.6414 17.0656 22.0013 15.5434 22 14C22 8.486 17.514 4 12 4ZM19.41 17H4.59C4.19924 16.0481 3.99879 15.0289 4 14C4 9.589 7.589 6 12 6C16.411 6 20 9.589 20 14C20.0012 15.0289 19.8008 16.0481 19.41 17Z" fill="#3B82F6"/>
<path d="M10.9387 12.939C10.726 13.0781 10.5513 13.268 10.4303 13.4916C10.3094 13.7151 10.2461 13.9653 10.2461 14.2195C10.2461 14.4737 10.3094 14.7238 10.4303 14.9474C10.5513 15.171 10.726 15.3609 10.9387 15.5C11.1068 15.6106 11.295 15.6869 11.4927 15.7247C11.6903 15.7624 11.8935 15.7608 12.0905 15.72C12.2875 15.6791 12.4745 15.5998 12.6408 15.4865C12.8071 15.3733 12.9495 15.2283 13.0597 15.06L17.0217 9.02199C17.0249 9.01671 17.0266 9.01066 17.0266 9.00449C17.0266 8.99833 17.0249 8.99228 17.0217 8.98699C17.017 8.97978 17.0096 8.9747 17.0012 8.97283C16.9928 8.97096 16.984 8.97246 16.9767 8.97699L10.9387 12.939Z" fill="#3B82F6"/>
</svg>
