<svg width="194" height="20" viewBox="0 0 194 20" fill="none" xmlns="http://www.w3.org/2000/svg">
<path d="M9.65416 1.06438C9.76302 0.72936 10.237 0.72936 10.3458 1.06438L12.1635 6.65856C12.2122 6.80839 12.3518 6.90983 12.5093 6.90983H18.3914C18.7437 6.90983 18.8901 7.3606 18.6051 7.56765L13.8465 11.025C13.719 11.1176 13.6657 11.2818 13.7144 11.4316L15.532 17.0258C15.6409 17.3608 15.2574 17.6394 14.9724 17.4323L10.2137 13.975C10.0863 13.8824 9.91371 13.8824 9.78626 13.975L5.02757 17.4323C4.74258 17.6394 4.35913 17.3608 4.46799 17.0258L6.28565 11.4316C6.33433 11.2818 6.281 11.1176 6.15355 11.025L1.39485 7.56765C1.10987 7.3606 1.25633 6.90983 1.60859 6.90983H7.49066C7.6482 6.90983 7.78782 6.80839 7.8365 6.65856L9.65416 1.06438Z" fill="#EAB308"/>
<path d="M29.6542 1.06438C29.763 0.72936 30.237 0.72936 30.3458 1.06438L32.1635 6.65856C32.2122 6.80839 32.3518 6.90983 32.5093 6.90983H38.3914C38.7437 6.90983 38.8901 7.3606 38.6051 7.56765L33.8465 11.025C33.719 11.1176 33.6657 11.2818 33.7144 11.4316L35.532 17.0258C35.6409 17.3608 35.2574 17.6394 34.9724 17.4323L30.2137 13.975C30.0863 13.8824 29.9137 13.8824 29.7863 13.975L25.0276 17.4323C24.7426 17.6394 24.3591 17.3608 24.468 17.0258L26.2856 11.4316C26.3343 11.2818 26.281 11.1176 26.1535 11.025L21.3949 7.56765C21.1099 7.3606 21.2563 6.90983 21.6086 6.90983H27.4907C27.6482 6.90983 27.7878 6.80839 27.8365 6.65856L29.6542 1.06438Z" fill="#EAB308"/>
<path d="M49.6542 1.06438C49.763 0.72936 50.237 0.72936 50.3458 1.06438L52.1635 6.65856C52.2122 6.80839 52.3518 6.90983 52.5093 6.90983H58.3914C58.7437 6.90983 58.8901 7.3606 58.6051 7.56765L53.8465 11.025C53.719 11.1176 53.6657 11.2818 53.7144 11.4316L55.532 17.0258C55.6409 17.3608 55.2574 17.6394 54.9724 17.4323L50.2137 13.975C50.0863 13.8824 49.9137 13.8824 49.7863 13.975L45.0276 17.4323C44.7426 17.6394 44.3591 17.3608 44.468 17.0258L46.2856 11.4316C46.3343 11.2818 46.281 11.1176 46.1535 11.025L41.3949 7.56765C41.1099 7.3606 41.2563 6.90983 41.6086 6.90983H47.4907C47.6482 6.90983 47.7878 6.80839 47.8365 6.65856L49.6542 1.06438Z" fill="#EAB308"/>
<path d="M69.6542 1.06438C69.763 0.72936 70.237 0.72936 70.3458 1.06438L72.1635 6.65856C72.2122 6.80839 72.3518 6.90983 72.5093 6.90983H78.3914C78.7437 6.90983 78.8901 7.3606 78.6051 7.56765L73.8465 11.025C73.719 11.1176 73.6657 11.2818 73.7144 11.4316L75.532 17.0258C75.6409 17.3608 75.2574 17.6394 74.9724 17.4323L70.2137 13.975C70.0863 13.8824 69.9137 13.8824 69.7863 13.975L65.0276 17.4323C64.7426 17.6394 64.3591 17.3608 64.468 17.0258L66.2856 11.4316C66.3343 11.2818 66.281 11.1176 66.1535 11.025L61.3949 7.56765C61.1099 7.3606 61.2563 6.90983 61.6086 6.90983H67.4907C67.6482 6.90983 67.7878 6.80839 67.8365 6.65856L69.6542 1.06438Z" fill="#EAB308"/>
<path d="M89.6542 1.06438C89.763 0.72936 90.237 0.72936 90.3458 1.06438L92.1635 6.65856C92.2122 6.80839 92.3518 6.90983 92.5093 6.90983H98.3914C98.7437 6.90983 98.8901 7.3606 98.6051 7.56765L93.8465 11.025C93.719 11.1176 93.6657 11.2818 93.7144 11.4316L95.532 17.0258C95.6409 17.3608 95.2574 17.6394 94.9724 17.4323L90.2137 13.975C90.0863 13.8824 89.9137 13.8824 89.7863 13.975L85.0276 17.4323C84.7426 17.6394 84.3591 17.3608 84.468 17.0258L86.2856 11.4316C86.3343 11.2818 86.281 11.1176 86.1535 11.025L81.3949 7.56765C81.1099 7.3606 81.2563 6.90983 81.6086 6.90983H87.4907C87.6482 6.90983 87.7878 6.80839 87.8365 6.65856L89.6542 1.06438Z" fill="#EAB308"/>
<path d="M109.176 10.1364C109.176 9.07102 109.317 8.09233 109.598 7.20028C109.882 6.3054 110.304 5.47869 110.864 4.72017H112.317C112.101 5.00142 111.899 5.34659 111.712 5.75568C111.524 6.16193 111.361 6.60795 111.222 7.09375C111.085 7.5767 110.977 8.07812 110.898 8.59801C110.821 9.1179 110.783 9.63068 110.783 10.1364C110.783 10.8097 110.849 11.4915 110.983 12.1818C111.119 12.8722 111.303 13.5128 111.533 14.1037C111.766 14.6918 112.027 15.1733 112.317 15.5483H110.864C110.304 14.7898 109.882 13.9645 109.598 13.0724C109.317 12.1776 109.176 11.1989 109.176 10.1364ZM117.048 5.77273V14.5H115.467V7.31108H115.416L113.375 8.61506V7.16619L115.544 5.77273H117.048ZM119.264 14.5V13.358L122.294 10.3878C122.583 10.0952 122.825 9.83523 123.018 9.60795C123.211 9.38068 123.356 9.16051 123.453 8.94744C123.549 8.73437 123.598 8.5071 123.598 8.26562C123.598 7.99006 123.535 7.75426 123.41 7.55824C123.285 7.35938 123.113 7.20597 122.895 7.09801C122.676 6.99006 122.427 6.93608 122.149 6.93608C121.862 6.93608 121.61 6.99574 121.395 7.11506C121.179 7.23153 121.011 7.39773 120.892 7.61364C120.775 7.82955 120.717 8.08665 120.717 8.38494H119.213C119.213 7.83097 119.339 7.34943 119.592 6.94034C119.845 6.53125 120.193 6.21449 120.636 5.99006C121.082 5.76562 121.593 5.65341 122.17 5.65341C122.755 5.65341 123.27 5.76278 123.713 5.98153C124.156 6.20028 124.5 6.5 124.744 6.88068C124.991 7.26136 125.115 7.69602 125.115 8.18466C125.115 8.51136 125.052 8.83239 124.927 9.14773C124.802 9.46307 124.582 9.8125 124.267 10.196C123.954 10.5795 123.515 11.044 122.95 11.5895L121.446 13.1193V13.179H125.247V14.5H119.264ZM129.943 14.6662C129.241 14.6662 128.639 14.4886 128.136 14.1335C127.636 13.7756 127.251 13.2599 126.981 12.5866C126.714 11.9105 126.581 11.0966 126.581 10.1449C126.583 9.19318 126.718 8.38352 126.985 7.71591C127.255 7.04545 127.64 6.53409 128.14 6.18182C128.643 5.82955 129.244 5.65341 129.943 5.65341C130.642 5.65341 131.243 5.82955 131.745 6.18182C132.248 6.53409 132.633 7.04545 132.9 7.71591C133.17 8.38636 133.305 9.19602 133.305 10.1449C133.305 11.0994 133.17 11.9148 132.9 12.5909C132.633 13.2642 132.248 13.7784 131.745 14.1335C131.245 14.4886 130.645 14.6662 129.943 14.6662ZM129.943 13.3324C130.488 13.3324 130.919 13.0639 131.234 12.527C131.552 11.9872 131.711 11.1932 131.711 10.1449C131.711 9.4517 131.639 8.86932 131.494 8.39773C131.349 7.92614 131.145 7.57102 130.88 7.33239C130.616 7.09091 130.304 6.97017 129.943 6.97017C129.4 6.97017 128.971 7.24006 128.656 7.77983C128.341 8.31676 128.181 9.10511 128.179 10.1449C128.176 10.8409 128.245 11.4261 128.387 11.9006C128.532 12.375 128.737 12.733 129.001 12.9744C129.265 13.2131 129.579 13.3324 129.943 13.3324ZM137.947 14.6662C137.245 14.6662 136.643 14.4886 136.14 14.1335C135.64 13.7756 135.255 13.2599 134.985 12.5866C134.718 11.9105 134.585 11.0966 134.585 10.1449C134.587 9.19318 134.722 8.38352 134.989 7.71591C135.259 7.04545 135.644 6.53409 136.144 6.18182C136.647 5.82955 137.248 5.65341 137.947 5.65341C138.646 5.65341 139.246 5.82955 139.749 6.18182C140.252 6.53409 140.637 7.04545 140.904 7.71591C141.174 8.38636 141.309 9.19602 141.309 10.1449C141.309 11.0994 141.174 11.9148 140.904 12.5909C140.637 13.2642 140.252 13.7784 139.749 14.1335C139.249 14.4886 138.648 14.6662 137.947 14.6662ZM137.947 13.3324C138.492 13.3324 138.923 13.0639 139.238 12.527C139.556 11.9872 139.715 11.1932 139.715 10.1449C139.715 9.4517 139.643 8.86932 139.498 8.39773C139.353 7.92614 139.148 7.57102 138.884 7.33239C138.62 7.09091 138.308 6.97017 137.947 6.97017C137.404 6.97017 136.975 7.24006 136.66 7.77983C136.344 8.31676 136.185 9.10511 136.183 10.1449C136.18 10.8409 136.249 11.4261 136.391 11.9006C136.536 12.375 136.741 12.733 137.005 12.9744C137.269 13.2131 137.583 13.3324 137.947 13.3324ZM145.787 14.5V5.77273H149.059C149.73 5.77273 150.292 5.8892 150.747 6.12216C151.204 6.35511 151.549 6.68182 151.782 7.10227C152.018 7.51989 152.136 8.0071 152.136 8.56392C152.136 9.12358 152.017 9.60937 151.778 10.0213C151.542 10.4304 151.194 10.7472 150.734 10.9716C150.274 11.1932 149.708 11.304 149.038 11.304H146.707V9.99148H148.825C149.217 9.99148 149.538 9.9375 149.788 9.82955C150.038 9.71875 150.223 9.55824 150.342 9.34801C150.464 9.13494 150.525 8.87358 150.525 8.56392C150.525 8.25426 150.464 7.99006 150.342 7.77131C150.22 7.54972 150.034 7.3821 149.784 7.26847C149.534 7.15199 149.211 7.09375 148.816 7.09375H147.368V14.5H145.787ZM150.295 10.5455L152.456 14.5H150.691L148.569 10.5455H150.295ZM155.407 14.6321C154.992 14.6321 154.618 14.5582 154.286 14.4105C153.956 14.2599 153.695 14.0384 153.502 13.7457C153.311 13.4531 153.216 13.0923 153.216 12.6634C153.216 12.294 153.284 11.9886 153.421 11.7472C153.557 11.5057 153.743 11.3125 153.979 11.1676C154.215 11.0227 154.48 10.9134 154.776 10.8395C155.074 10.7628 155.382 10.7074 155.701 10.6733C156.084 10.6335 156.395 10.598 156.634 10.5668C156.873 10.5327 157.046 10.4815 157.154 10.4134C157.265 10.3423 157.32 10.233 157.32 10.0852V10.0597C157.32 9.73864 157.225 9.49006 157.034 9.31392C156.844 9.13778 156.57 9.04972 156.212 9.04972C155.834 9.04972 155.534 9.1321 155.313 9.29688C155.094 9.46165 154.946 9.65625 154.87 9.88068L153.429 9.67614C153.543 9.27841 153.73 8.94602 153.992 8.67898C154.253 8.40909 154.573 8.20739 154.951 8.07386C155.328 7.9375 155.746 7.86932 156.203 7.86932C156.519 7.86932 156.833 7.90625 157.145 7.98011C157.458 8.05398 157.743 8.17614 158.002 8.34659C158.26 8.5142 158.468 8.7429 158.624 9.03267C158.783 9.32244 158.863 9.68466 158.863 10.1193V14.5H157.38V13.6009H157.328C157.235 13.7827 157.103 13.9531 156.932 14.1122C156.765 14.2685 156.553 14.3949 156.297 14.4915C156.044 14.5852 155.748 14.6321 155.407 14.6321ZM155.807 13.4986C156.117 13.4986 156.385 13.4375 156.613 13.3153C156.84 13.1903 157.015 13.0256 157.137 12.821C157.262 12.6165 157.324 12.3935 157.324 12.152V11.3807C157.276 11.4205 157.194 11.4574 157.077 11.4915C156.963 11.5256 156.836 11.5554 156.694 11.581C156.551 11.6065 156.411 11.6293 156.272 11.6491C156.132 11.669 156.012 11.6861 155.909 11.7003C155.679 11.7315 155.473 11.7827 155.292 11.8537C155.11 11.9247 154.966 12.0241 154.861 12.152C154.756 12.277 154.703 12.4389 154.703 12.6378C154.703 12.9219 154.807 13.1364 155.015 13.2812C155.222 13.4261 155.486 13.4986 155.807 13.4986ZM163.682 7.95455V9.14773H159.919V7.95455H163.682ZM160.848 6.38636H162.391V12.5312C162.391 12.7386 162.422 12.8977 162.485 13.0085C162.55 13.1165 162.635 13.1903 162.74 13.2301C162.846 13.2699 162.962 13.2898 163.09 13.2898C163.186 13.2898 163.275 13.2827 163.354 13.2685C163.436 13.2543 163.499 13.2415 163.542 13.2301L163.801 14.4361C163.719 14.4645 163.601 14.4957 163.448 14.5298C163.297 14.5639 163.113 14.5838 162.894 14.5895C162.507 14.6009 162.159 14.5426 161.85 14.4148C161.54 14.2841 161.294 14.0824 161.113 13.8097C160.934 13.5369 160.846 13.196 160.848 12.7869V6.38636ZM164.972 14.5V7.95455H166.515V14.5H164.972ZM165.748 7.02557C165.504 7.02557 165.293 6.9446 165.117 6.78267C164.941 6.6179 164.853 6.42045 164.853 6.19034C164.853 5.95739 164.941 5.75994 165.117 5.59801C165.293 5.43324 165.504 5.35085 165.748 5.35085C165.995 5.35085 166.205 5.43324 166.379 5.59801C166.555 5.75994 166.643 5.95739 166.643 6.19034C166.643 6.42045 166.555 6.6179 166.379 6.78267C166.205 6.9446 165.995 7.02557 165.748 7.02557ZM169.644 10.6648V14.5H168.101V7.95455H169.576V9.06676H169.652C169.803 8.70028 170.043 8.40909 170.373 8.19318C170.705 7.97727 171.115 7.86932 171.604 7.86932C172.056 7.86932 172.449 7.96591 172.784 8.15909C173.123 8.35227 173.384 8.6321 173.569 8.99858C173.756 9.36506 173.848 9.80966 173.846 10.3324V14.5H172.303V10.571C172.303 10.1335 172.189 9.79119 171.962 9.54403C171.738 9.29687 171.426 9.1733 171.029 9.1733C170.759 9.1733 170.519 9.23295 170.309 9.35227C170.101 9.46875 169.938 9.63778 169.819 9.85938C169.702 10.081 169.644 10.3494 169.644 10.6648ZM178.26 17.0909C177.706 17.0909 177.23 17.0156 176.833 16.8651C176.435 16.7173 176.115 16.5185 175.874 16.2685C175.632 16.0185 175.465 15.7415 175.371 15.4375L176.76 15.1009C176.823 15.2287 176.914 15.3551 177.033 15.4801C177.152 15.608 177.313 15.7131 177.515 15.7955C177.719 15.8807 177.976 15.9233 178.286 15.9233C178.723 15.9233 179.086 15.8168 179.373 15.6037C179.659 15.3935 179.803 15.0469 179.803 14.5639V13.3239H179.726C179.647 13.483 179.53 13.6463 179.377 13.8139C179.226 13.9815 179.026 14.1222 178.776 14.2358C178.529 14.3494 178.218 14.4062 177.843 14.4062C177.34 14.4062 176.884 14.2884 176.475 14.0526C176.069 13.8139 175.745 13.4588 175.503 12.9872C175.265 12.5128 175.145 11.919 175.145 11.206C175.145 10.4872 175.265 9.88068 175.503 9.38636C175.745 8.8892 176.07 8.51278 176.479 8.2571C176.888 7.99858 177.344 7.86932 177.847 7.86932C178.23 7.86932 178.546 7.93466 178.793 8.06534C179.043 8.19318 179.242 8.34801 179.39 8.52983C179.537 8.70881 179.65 8.87784 179.726 9.03693H179.811V7.95455H181.333V14.6065C181.333 15.1662 181.199 15.6293 180.932 15.9957C180.665 16.3622 180.3 16.6364 179.837 16.8182C179.374 17 178.848 17.0909 178.26 17.0909ZM178.273 13.196C178.6 13.196 178.878 13.1165 179.108 12.9574C179.338 12.7983 179.513 12.5696 179.632 12.2713C179.752 11.973 179.811 11.6151 179.811 11.1974C179.811 10.7855 179.752 10.4247 179.632 10.1151C179.516 9.8054 179.343 9.56534 179.113 9.39489C178.885 9.22159 178.605 9.13494 178.273 9.13494C177.929 9.13494 177.642 9.22443 177.412 9.40341C177.182 9.58239 177.009 9.82812 176.892 10.1406C176.776 10.4503 176.718 10.8026 176.718 11.1974C176.718 11.598 176.776 11.9489 176.892 12.25C177.012 12.5483 177.186 12.7812 177.417 12.9489C177.65 13.1136 177.935 13.196 178.273 13.196ZM188.087 9.68466L186.681 9.83807C186.641 9.69602 186.571 9.5625 186.472 9.4375C186.375 9.3125 186.245 9.21165 186.08 9.13494C185.915 9.05824 185.713 9.01989 185.475 9.01989C185.154 9.01989 184.884 9.08949 184.665 9.22869C184.449 9.3679 184.343 9.5483 184.346 9.76989C184.343 9.96023 184.412 10.1151 184.554 10.2344C184.699 10.3537 184.938 10.4517 185.27 10.5284L186.387 10.767C187.006 10.9006 187.466 11.1122 187.767 11.402C188.071 11.6918 188.225 12.071 188.228 12.5398C188.225 12.9517 188.104 13.3153 187.865 13.6307C187.63 13.9432 187.301 14.1875 186.881 14.3636C186.461 14.5398 185.978 14.6278 185.432 14.6278C184.631 14.6278 183.986 14.4602 183.498 14.125C183.009 13.7869 182.718 13.3168 182.624 12.7145L184.128 12.5696C184.196 12.8651 184.341 13.0881 184.563 13.2386C184.784 13.3892 185.073 13.4645 185.428 13.4645C185.794 13.4645 186.088 13.3892 186.31 13.2386C186.534 13.0881 186.647 12.902 186.647 12.6804C186.647 12.4929 186.574 12.3381 186.429 12.2159C186.287 12.0937 186.066 12 185.765 11.9347L184.648 11.7003C184.02 11.5696 183.556 11.3494 183.255 11.0398C182.953 10.7273 182.804 10.3324 182.807 9.85511C182.804 9.4517 182.914 9.10227 183.135 8.80682C183.36 8.50852 183.671 8.27841 184.069 8.11648C184.469 7.9517 184.931 7.86932 185.453 7.86932C186.221 7.86932 186.824 8.03267 187.265 8.35938C187.708 8.68608 187.982 9.12784 188.087 9.68466ZM192.252 10.9418C192.252 12.0043 192.11 12.983 191.826 13.8778C191.545 14.7699 191.125 15.5952 190.565 16.3537H189.112C189.331 16.0724 189.532 15.7287 189.717 15.3224C189.904 14.9162 190.066 14.4702 190.203 13.9844C190.342 13.4986 190.45 12.9957 190.527 12.4759C190.606 11.956 190.646 11.4446 190.646 10.9418C190.646 10.2685 190.578 9.58665 190.441 8.89631C190.308 8.20597 190.125 7.56534 189.892 6.97443C189.662 6.38352 189.402 5.90057 189.112 5.52557H190.565C191.125 6.28409 191.545 7.1108 191.826 8.00568C192.11 8.89773 192.252 9.87642 192.252 10.9418Z" fill="#334155"/>
</svg>
