<svg width="20" height="20" viewBox="0 0 20 20" fill="none" xmlns="http://www.w3.org/2000/svg">
<path d="M10.3435 14.8984L14.281 17.3984C14.7888 17.7187 15.4138 17.2421 15.2654 16.6562L14.1248 12.1719C14.0939 12.0476 14.0988 11.9171 14.1389 11.7955C14.179 11.6738 14.2526 11.566 14.3513 11.4844L17.8825 8.5391C18.3435 8.15629 18.1091 7.38286 17.5075 7.3438L12.8982 7.04692C12.7724 7.03961 12.6515 6.99581 12.5502 6.92089C12.449 6.84597 12.3717 6.74317 12.3279 6.62505L10.6092 2.29697C10.5637 2.1719 10.4808 2.06385 10.3718 1.9875C10.2628 1.91115 10.1329 1.8702 9.99979 1.8702C9.8667 1.8702 9.73683 1.91115 9.62782 1.9875C9.5188 2.06385 9.43592 2.1719 9.39042 2.29697L7.67169 6.62505C7.62789 6.74317 7.55062 6.84597 7.44934 6.92089C7.34806 6.99581 7.22715 7.03961 7.10139 7.04692L2.49206 7.3438C1.8905 7.38286 1.65613 8.15629 2.11706 8.5391L5.64828 11.4844C5.74697 11.566 5.82061 11.6738 5.86069 11.7955C5.90077 11.9171 5.90568 12.0476 5.87484 12.1719L4.82016 16.3281C4.64047 17.0312 5.39047 17.6015 5.99202 17.2187L9.65605 14.8984C9.75879 14.8331 9.87803 14.7984 9.99979 14.7984C10.1216 14.7984 10.2408 14.8331 10.3435 14.8984Z" fill="#FEC84B"/>
</svg>
