<svg width="40" height="40" viewBox="0 0 40 40" fill="none" xmlns="http://www.w3.org/2000/svg">
<path d="M19.9993 20.0002H20.0159M25.8918 25.8928C18.0813 33.7033 9.1115 37.3967 5.85714 34.1424C2.60277 30.888 6.29623 21.9182 14.1067 14.1077C21.9172 6.2972 30.887 2.60373 34.1414 5.8581C37.3958 9.11247 33.7023 18.0823 25.8918 25.8928ZM25.8918 14.1074C33.7022 21.9179 37.3957 30.8877 34.1413 34.1421C30.887 37.3964 21.9171 33.703 14.1066 25.8925C6.29616 18.082 2.6027 9.11217 5.85707 5.8578C9.11144 2.60343 18.0813 6.29689 25.8918 14.1074ZM20.8326 20.0002C20.8326 20.4605 20.4595 20.8336 19.9993 20.8336C19.539 20.8336 19.1659 20.4605 19.1659 20.0002C19.1659 19.54 19.539 19.1669 19.9993 19.1669C20.4595 19.1669 20.8326 19.54 20.8326 20.0002Z" stroke="#3B82F6" stroke-width="3.33333" stroke-linecap="round" stroke-linejoin="round"/>
</svg>
