<svg width="40" height="40" viewBox="0 0 40 40" fill="none" xmlns="http://www.w3.org/2000/svg">
<path d="M13.3333 35V11.6667C13.3333 10.1167 13.3333 9.34174 13.5036 8.7059C13.966 6.98044 15.3137 5.63271 17.0392 5.17037C17.675 5 18.45 5 19.9999 5C21.5499 5 22.3248 5 22.9607 5.17037C24.6861 5.63271 26.0339 6.98044 26.4962 8.7059C26.6666 9.34174 26.6666 10.1167 26.6666 11.6667V35M8.66659 35H31.3333C33.2001 35 34.1335 35 34.8466 34.6367C35.4738 34.3171 35.9837 33.8072 36.3033 33.18C36.6666 32.4669 36.6666 31.5335 36.6666 29.6667V17C36.6666 15.1332 36.6666 14.1997 36.3033 13.4867C35.9837 12.8595 35.4738 12.3496 34.8466 12.03C34.1335 11.6667 33.2001 11.6667 31.3333 11.6667H8.66658C6.79974 11.6667 5.86632 11.6667 5.15328 12.03C4.52608 12.3496 4.01614 12.8595 3.69656 13.4867C3.33325 14.1997 3.33325 15.1332 3.33325 17V29.6667C3.33325 31.5335 3.33325 32.4669 3.69656 33.18C4.01614 33.8072 4.52608 34.3171 5.15328 34.6367C5.86632 35 6.79974 35 8.66659 35Z" stroke="#3B82F6" stroke-width="3.33333" stroke-linecap="round" stroke-linejoin="round"/>
</svg>
