<svg width="101" height="81" viewBox="0 0 101 81" fill="none" xmlns="http://www.w3.org/2000/svg">
<circle cx="2.26928" cy="65.8544" r="2.00698" transform="rotate(-81.9157 2.26928 65.8544)" fill="#E2E8F0"/>
<circle cx="4.52713" cy="49.9583" r="2.00698" transform="rotate(-81.9157 4.52713 49.9583)" fill="#E2E8F0"/>
<circle cx="6.78523" cy="34.0617" r="2.00698" transform="rotate(-81.9157 6.78523 34.0617)" fill="#E2E8F0"/>
<circle cx="9.04308" cy="18.1656" r="2.00698" transform="rotate(-81.9157 9.04308 18.1656)" fill="#E2E8F0"/>
<circle cx="11.3009" cy="2.26948" r="2.00698" transform="rotate(-81.9157 11.3009 2.26948)" fill="#E2E8F0"/>
<circle cx="13.1979" cy="67.4067" r="2.00698" transform="rotate(-81.9157 13.1979 67.4067)" fill="#E2E8F0"/>
<circle cx="15.456" cy="51.5106" r="2.00698" transform="rotate(-81.9157 15.456 51.5106)" fill="#E2E8F0"/>
<circle cx="17.7139" cy="35.614" r="2.00698" transform="rotate(-81.9157 17.7139 35.614)" fill="#E2E8F0"/>
<circle cx="19.9717" cy="19.7179" r="2.00698" transform="rotate(-81.9157 19.9717 19.7179)" fill="#E2E8F0"/>
<circle cx="22.2298" cy="3.82175" r="2.00698" transform="rotate(-81.9157 22.2298 3.82175)" fill="#E2E8F0"/>
<circle cx="24.1266" cy="68.959" r="2.00698" transform="rotate(-81.9157 24.1266 68.959)" fill="#E2E8F0"/>
<circle cx="26.3847" cy="53.0629" r="2.00698" transform="rotate(-81.9157 26.3847 53.0629)" fill="#E2E8F0"/>
<circle cx="28.6425" cy="37.1667" r="2.00698" transform="rotate(-81.9157 28.6425 37.1667)" fill="#E2E8F0"/>
<circle cx="30.9006" cy="21.2701" r="2.00698" transform="rotate(-81.9157 30.9006 21.2701)" fill="#E2E8F0"/>
<circle cx="33.1585" cy="5.37403" r="2.00698" transform="rotate(-81.9157 33.1585 5.37403)" fill="#E2E8F0"/>
<circle cx="35.0554" cy="70.5112" r="2.00698" transform="rotate(-81.9157 35.0554 70.5112)" fill="#E2E8F0"/>
<circle cx="37.3133" cy="54.6151" r="2.00698" transform="rotate(-81.9157 37.3133 54.6151)" fill="#E2E8F0"/>
<circle cx="39.5711" cy="38.719" r="2.00698" transform="rotate(-81.9157 39.5711 38.719)" fill="#E2E8F0"/>
<circle cx="41.8292" cy="22.8224" r="2.00698" transform="rotate(-81.9157 41.8292 22.8224)" fill="#E2E8F0"/>
<circle cx="44.0871" cy="6.9263" r="2.00698" transform="rotate(-81.9157 44.0871 6.9263)" fill="#E2E8F0"/>
<circle cx="45.9841" cy="72.0635" r="2.00698" transform="rotate(-81.9157 45.9841 72.0635)" fill="#E2E8F0"/>
<circle cx="48.2419" cy="56.1674" r="2.00698" transform="rotate(-81.9157 48.2419 56.1674)" fill="#E2E8F0"/>
<circle cx="50.5" cy="40.2713" r="2.00698" transform="rotate(-81.9157 50.5 40.2713)" fill="#E2E8F0"/>
<circle cx="52.7579" cy="24.3747" r="2.00698" transform="rotate(-81.9157 52.7579 24.3747)" fill="#E2E8F0"/>
<circle cx="55.0157" cy="8.47858" r="2.00698" transform="rotate(-81.9157 55.0157 8.47858)" fill="#E2E8F0"/>
<circle cx="56.9127" cy="73.6163" r="2.00698" transform="rotate(-81.9157 56.9127 73.6163)" fill="#E2E8F0"/>
<circle cx="59.1708" cy="57.7197" r="2.00698" transform="rotate(-81.9157 59.1708 57.7197)" fill="#E2E8F0"/>
<circle cx="61.4287" cy="41.8236" r="2.00698" transform="rotate(-81.9157 61.4287 41.8236)" fill="#E2E8F0"/>
<circle cx="63.6865" cy="25.9275" r="2.00698" transform="rotate(-81.9157 63.6865 25.9275)" fill="#E2E8F0"/>
<circle cx="65.9446" cy="10.0309" r="2.00698" transform="rotate(-81.9157 65.9446 10.0309)" fill="#E2E8F0"/>
<circle cx="67.8414" cy="75.1686" r="2.00698" transform="rotate(-81.9157 67.8414 75.1686)" fill="#E2E8F0"/>
<circle cx="70.0995" cy="59.272" r="2.00698" transform="rotate(-81.9157 70.0995 59.272)" fill="#E2E8F0"/>
<circle cx="72.3573" cy="43.3758" r="2.00698" transform="rotate(-81.9157 72.3573 43.3758)" fill="#E2E8F0"/>
<circle cx="74.6152" cy="27.4797" r="2.00698" transform="rotate(-81.9157 74.6152 27.4797)" fill="#E2E8F0"/>
<circle cx="76.8733" cy="11.5831" r="2.00698" transform="rotate(-81.9157 76.8733 11.5831)" fill="#E2E8F0"/>
<circle cx="78.7702" cy="76.7208" r="2.00698" transform="rotate(-81.9157 78.7702 76.7208)" fill="#E2E8F0"/>
<circle cx="81.0281" cy="60.8242" r="2.00698" transform="rotate(-81.9157 81.0281 60.8242)" fill="#E2E8F0"/>
<circle cx="83.2859" cy="44.9281" r="2.00698" transform="rotate(-81.9157 83.2859 44.9281)" fill="#E2E8F0"/>
<circle cx="85.5441" cy="29.032" r="2.00698" transform="rotate(-81.9157 85.5441 29.032)" fill="#E2E8F0"/>
<circle cx="87.8019" cy="13.1354" r="2.00698" transform="rotate(-81.9157 87.8019 13.1354)" fill="#E2E8F0"/>
<circle cx="89.6989" cy="78.2731" r="2.00698" transform="rotate(-81.9157 89.6989 78.2731)" fill="#E2E8F0"/>
<circle cx="91.9567" cy="62.377" r="2.00698" transform="rotate(-81.9157 91.9567 62.377)" fill="#E2E8F0"/>
<circle cx="94.2148" cy="46.4804" r="2.00698" transform="rotate(-81.9157 94.2148 46.4804)" fill="#E2E8F0"/>
<circle cx="96.4727" cy="30.5843" r="2.00698" transform="rotate(-81.9157 96.4727 30.5843)" fill="#E2E8F0"/>
<circle cx="98.7305" cy="14.6877" r="2.00698" transform="rotate(-81.9157 98.7305 14.6877)" fill="#E2E8F0"/>
</svg>
