<svg width="68" height="92" viewBox="0 0 68 92" fill="none" xmlns="http://www.w3.org/2000/svg">
<circle cx="2" cy="2" r="2" fill="#E2E8F0"/>
<circle cx="18" cy="2" r="2" fill="#E2E8F0"/>
<circle cx="34" cy="2" r="2" fill="#E2E8F0"/>
<circle cx="50" cy="2" r="2" fill="#E2E8F0"/>
<circle cx="66" cy="2" r="2" fill="#E2E8F0"/>
<circle cx="2" cy="13" r="2" fill="#E2E8F0"/>
<circle cx="18" cy="13" r="2" fill="#E2E8F0"/>
<circle cx="34" cy="13" r="2" fill="#E2E8F0"/>
<circle cx="50" cy="13" r="2" fill="#E2E8F0"/>
<circle cx="66" cy="13" r="2" fill="#E2E8F0"/>
<circle cx="2" cy="24" r="2" fill="#E2E8F0"/>
<circle cx="18" cy="24" r="2" fill="#E2E8F0"/>
<circle cx="34" cy="24" r="2" fill="#E2E8F0"/>
<circle cx="50" cy="24" r="2" fill="#E2E8F0"/>
<circle cx="66" cy="24" r="2" fill="#E2E8F0"/>
<circle cx="2" cy="35" r="2" fill="#E2E8F0"/>
<circle cx="18" cy="35" r="2" fill="#E2E8F0"/>
<circle cx="34" cy="35" r="2" fill="#E2E8F0"/>
<circle cx="50" cy="35" r="2" fill="#E2E8F0"/>
<circle cx="66" cy="35" r="2" fill="#E2E8F0"/>
<circle cx="2" cy="46" r="2" fill="#E2E8F0"/>
<circle cx="18" cy="46" r="2" fill="#E2E8F0"/>
<circle cx="34" cy="46" r="2" fill="#E2E8F0"/>
<circle cx="50" cy="46" r="2" fill="#E2E8F0"/>
<circle cx="66" cy="46" r="2" fill="#E2E8F0"/>
<circle cx="2" cy="57" r="2" fill="#E2E8F0"/>
<circle cx="18" cy="57" r="2" fill="#E2E8F0"/>
<circle cx="34" cy="57" r="2" fill="#E2E8F0"/>
<circle cx="50" cy="57" r="2" fill="#E2E8F0"/>
<circle cx="66" cy="57" r="2" fill="#E2E8F0"/>
<circle cx="2" cy="68" r="2" fill="#E2E8F0"/>
<circle cx="18" cy="68" r="2" fill="#E2E8F0"/>
<circle cx="34" cy="68" r="2" fill="#E2E8F0"/>
<circle cx="50" cy="68" r="2" fill="#E2E8F0"/>
<circle cx="66" cy="68" r="2" fill="#E2E8F0"/>
<circle cx="2" cy="79" r="2" fill="#E2E8F0"/>
<circle cx="18" cy="79" r="2" fill="#E2E8F0"/>
<circle cx="34" cy="79" r="2" fill="#E2E8F0"/>
<circle cx="50" cy="79" r="2" fill="#E2E8F0"/>
<circle cx="66" cy="79" r="2" fill="#E2E8F0"/>
<circle cx="2" cy="90" r="2" fill="#E2E8F0"/>
<circle cx="18" cy="90" r="2" fill="#E2E8F0"/>
<circle cx="34" cy="90" r="2" fill="#E2E8F0"/>
<circle cx="50" cy="90" r="2" fill="#E2E8F0"/>
<circle cx="66" cy="90" r="2" fill="#E2E8F0"/>
</svg>
