<svg width="100" height="100" viewBox="0 0 100 100" fill="none" xmlns="http://www.w3.org/2000/svg">
<rect width="100" height="100" rx="50" fill="#E0F2FE"/>
<path d="M51.8696 54.7409L60.0007 66.6664M48.1317 54.7409L40.0007 66.6664M53.334 51.9998C53.334 53.8407 51.8416 55.3331 50.0007 55.3331C48.1597 55.3331 46.6673 53.8407 46.6673 51.9998C46.6673 50.1588 48.1597 48.6665 50.0007 48.6665C51.8416 48.6665 53.334 50.1588 53.334 51.9998ZM58.5815 37.5536L38.941 42.8162C38.4902 42.937 38.2648 42.9974 38.1161 43.1313C37.9854 43.2491 37.8952 43.4052 37.8586 43.5773C37.817 43.773 37.8774 43.9984 37.9982 44.4492L39.4649 49.9228C39.5857 50.3736 39.6461 50.599 39.7799 50.7477C39.8977 50.8785 40.0538 50.9686 40.226 51.0052C40.4216 51.0468 40.6471 50.9864 41.0979 50.8656L60.7384 45.603L58.5815 37.5536ZM66.3213 45.8325C64.5181 46.3156 63.6165 46.5572 62.8337 46.3909C62.1452 46.2445 61.5206 45.8839 61.0496 45.3608C60.5141 44.7661 60.2725 43.8645 59.7893 42.0612L59.5305 41.0953C59.0474 39.2921 58.8058 38.3905 58.9722 37.6077C59.1185 36.9191 59.4791 36.2946 60.0022 35.8236C60.5969 35.2881 61.4985 35.0465 63.3018 34.5633C63.7526 34.4425 63.978 34.3821 64.1737 34.4237C64.3458 34.4603 64.5019 34.5505 64.6197 34.6813C64.7536 34.8299 64.814 35.0553 64.9348 35.5061L67.2641 44.1995C67.3849 44.6503 67.4453 44.8757 67.4037 45.0714C67.3671 45.2435 67.277 45.3997 67.1462 45.5174C66.9975 45.6513 66.7721 45.7117 66.3213 45.8325ZM35.8369 50.5498L38.0907 49.9459C38.5415 49.8251 38.7669 49.7647 38.9156 49.6309C39.0464 49.5131 39.1365 49.357 39.1731 49.1848C39.2147 48.9891 39.1543 48.7637 39.0335 48.3129L38.4296 46.0591C38.3088 45.6083 38.2484 45.3829 38.1145 45.2342C37.9968 45.1034 37.8406 45.0133 37.6685 44.9767C37.4728 44.9351 37.2474 44.9955 36.7966 45.1163L34.5428 45.7202C34.092 45.841 33.8666 45.9014 33.7179 46.0353C33.5871 46.153 33.497 46.3092 33.4604 46.4813C33.4188 46.677 33.4792 46.9024 33.6 47.3532L34.2039 49.607C34.3247 50.0578 34.3851 50.2832 34.5189 50.4319C34.6367 50.5627 34.7928 50.6528 34.965 50.6894C35.1607 50.731 35.3861 50.6706 35.8369 50.5498Z" stroke="#3B82F6" stroke-width="3.33333" stroke-linecap="round" stroke-linejoin="round"/>
</svg>
