<svg width="16" height="16" viewBox="0 0 16 16" fill="none" xmlns="http://www.w3.org/2000/svg">
<path d="M10 6.6665C10.3956 6.6665 10.7822 6.54921 11.1111 6.32944C11.44 6.10968 11.6964 5.79732 11.8478 5.43187C11.9991 5.06642 12.0387 4.66429 11.9616 4.27632C11.8844 3.88836 11.6939 3.532 11.4142 3.25229C11.1345 2.97259 10.7781 2.7821 10.3902 2.70493C10.0022 2.62776 9.60009 2.66737 9.23463 2.81875C8.86918 2.97012 8.55682 3.22647 8.33706 3.55536C8.1173 3.88426 8 4.27094 8 4.66651C8 5.19694 8.21071 5.70565 8.58579 6.08072C8.96086 6.45579 9.46957 6.6665 10 6.6665ZM10 3.99984C10.1319 3.99984 10.2607 4.03894 10.3704 4.11219C10.48 4.18545 10.5655 4.28957 10.6159 4.41138C10.6664 4.5332 10.6796 4.66724 10.6539 4.79657C10.6281 4.92589 10.5646 5.04467 10.4714 5.13791C10.3782 5.23114 10.2594 5.29464 10.1301 5.32036C10.0007 5.34609 9.8667 5.33288 9.74488 5.28242C9.62306 5.23197 9.51894 5.14652 9.44569 5.03689C9.37243 4.92725 9.33333 4.79836 9.33333 4.66651C9.33333 4.48969 9.40357 4.32012 9.52859 4.1951C9.65362 4.07008 9.82319 3.99984 10 3.99984Z" fill="black"/>
<path d="M14.6667 0H1.33333C0.979711 0 0.640573 0.140476 0.390524 0.390524C0.140476 0.640573 0 0.979711 0 1.33333V14.6667C0 15.0203 0.140476 15.3594 0.390524 15.6095C0.640573 15.8595 0.979711 16 1.33333 16H14.6667C15.0203 16 15.3594 15.8595 15.6095 15.6095C15.8595 15.3594 16 15.0203 16 14.6667V1.33333C16 0.979711 15.8595 0.640573 15.6095 0.390524C15.3594 0.140476 15.0203 0 14.6667 0ZM14.6667 14.6667H1.33333V10.6667L4.66667 7.33333L8.39333 11.06C8.64315 11.3083 8.98109 11.4477 9.33333 11.4477C9.68558 11.4477 10.0235 11.3083 10.2733 11.06L11.3333 10L14.6667 13.3333V14.6667ZM14.6667 11.4467L12.2733 9.05333C12.0235 8.805 11.6856 8.66561 11.3333 8.66561C10.9811 8.66561 10.6432 8.805 10.3933 9.05333L9.33333 10.1133L5.60667 6.38667C5.35685 6.13833 5.01891 5.99894 4.66667 5.99894C4.31442 5.99894 3.97648 6.13833 3.72667 6.38667L1.33333 8.78V1.33333H14.6667V11.4467Z" fill="black"/>
</svg>
