<svg width="16" height="11" viewBox="0 0 16 11" fill="none" xmlns="http://www.w3.org/2000/svg">
<rect x="2.86289" y="8.26843" width="13.1371" height="2.02109" rx="1" fill="#0F172A"/>
<rect x="2.86289" y="4.22624" width="13.1371" height="2.02109" rx="1" fill="#0F172A"/>
<rect x="2.86289" y="0.18405" width="13.1371" height="2.02109" rx="1" fill="#0F172A"/>
<path d="M1.23762 0V2.20483H0.771457V0.442473H0.758538L0.253624 0.758987V0.345581L0.799448 0H1.23762Z" fill="black"/>
<path d="M0.0659403 6.24706V5.91117L0.850765 5.18448C0.917513 5.11989 0.973495 5.06175 1.01871 5.01008C1.06465 4.9584 1.09945 4.9078 1.12314 4.85828C1.14682 4.80804 1.15867 4.75385 1.15867 4.69572C1.15867 4.63112 1.14395 4.5755 1.11453 4.52885C1.0851 4.48148 1.04491 4.44523 0.99395 4.42011C0.942992 4.39427 0.885216 4.38136 0.820621 4.38136C0.753156 4.38136 0.694303 4.39499 0.644062 4.42227C0.593822 4.44954 0.555065 4.48865 0.527792 4.53961C0.500519 4.59057 0.486882 4.65122 0.486882 4.72155H0.0444088C0.0444088 4.57729 0.077065 4.45205 0.142377 4.34583C0.20769 4.23961 0.299199 4.15743 0.416905 4.09929C0.53461 4.04116 0.670259 4.01209 0.823851 4.01209C0.981749 4.01209 1.11919 4.04008 1.23618 4.09606C1.35389 4.15133 1.44539 4.22812 1.51071 4.32645C1.57602 4.42478 1.60868 4.53746 1.60868 4.66449C1.60868 4.74775 1.59217 4.82993 1.55915 4.91103C1.52686 4.99213 1.46908 5.08221 1.38582 5.18125C1.30257 5.27958 1.18522 5.39764 1.03378 5.53545L0.711887 5.85088V5.86595H1.63774V6.24706H0.0659403Z" fill="black"/>
<path d="M0.836501 10.3194C0.675732 10.3194 0.532547 10.2918 0.406946 10.2365C0.282063 10.1805 0.183377 10.1037 0.110887 10.0061C0.0391156 9.90778 0.00215315 9.79438 0 9.66591H0.469388C0.472259 9.71974 0.489843 9.76711 0.52214 9.80802C0.555155 9.84821 0.598936 9.87943 0.653482 9.90168C0.708029 9.92393 0.769394 9.93506 0.837577 9.93506C0.908631 9.93506 0.971432 9.9225 1.02598 9.89738C1.08052 9.87226 1.12323 9.83745 1.15409 9.79295C1.18495 9.74845 1.20038 9.69713 1.20038 9.639C1.20038 9.58015 1.18388 9.52811 1.15086 9.4829C1.11856 9.43696 1.07191 9.40108 1.01091 9.37524C0.950618 9.3494 0.878846 9.33648 0.79559 9.33648H0.589964V8.99413H0.79559C0.865927 8.99413 0.92801 8.98193 0.981838 8.95753C1.03639 8.93312 1.07873 8.89939 1.10887 8.85633C1.13902 8.81255 1.15409 8.76159 1.15409 8.70345C1.15409 8.64819 1.14081 8.59974 1.11426 8.55812C1.08842 8.51577 1.05182 8.48276 1.00445 8.45907C0.957795 8.43539 0.903248 8.42354 0.840807 8.42354C0.777648 8.42354 0.719871 8.43503 0.667478 8.45799C0.615084 8.48024 0.573098 8.51218 0.541518 8.55381C0.509939 8.59544 0.493072 8.64424 0.490919 8.70022H0.0441397C0.0462928 8.57319 0.0825376 8.46122 0.152874 8.36433C0.22321 8.26744 0.317949 8.19172 0.43709 8.13717C0.556949 8.08191 0.692239 8.05428 0.84296 8.05428C0.995116 8.05428 1.12825 8.08191 1.24237 8.13717C1.35649 8.19244 1.44513 8.26708 1.50828 8.3611C1.57216 8.45441 1.60374 8.55919 1.60302 8.67546C1.60374 8.79891 1.56534 8.9019 1.48783 8.98444C1.41103 9.06698 1.31091 9.11937 1.18746 9.14162V9.15885C1.34967 9.17966 1.47312 9.236 1.55781 9.32787C1.64322 9.41902 1.68556 9.53314 1.68484 9.67022C1.68556 9.79582 1.64932 9.90743 1.57611 10.005C1.50362 10.1026 1.4035 10.1794 1.27574 10.2354C1.14799 10.2914 1.00158 10.3194 0.836501 10.3194Z" fill="black"/>
</svg>
