<svg width="45" height="45" viewBox="0 0 45 45" fill="none" xmlns="http://www.w3.org/2000/svg">
<path d="M36.562 5.62518H8.43709C6.94575 5.62681 5.51596 6.21997 4.46142 7.2745C3.40688 8.32904 2.81373 9.75883 2.8121 11.2502V33.7501C2.81373 35.2415 3.40688 36.6713 4.46142 37.7258C5.51596 38.7803 6.94575 39.3735 8.43709 39.3751H36.562C38.0534 39.3735 39.4832 38.7803 40.5377 37.7258C41.5922 36.6713 42.1854 35.2415 42.187 33.7501V11.2502C42.1854 9.75883 41.5922 8.32904 40.5377 7.2745C39.4832 6.21997 38.0534 5.62681 36.562 5.62518ZM29.5308 11.2502C30.3652 11.2502 31.1808 11.4976 31.8746 11.9612C32.5684 12.4247 33.1091 13.0836 33.4284 13.8545C33.7477 14.6253 33.8313 15.4736 33.6685 16.2919C33.5057 17.1103 33.1039 17.862 32.5139 18.452C31.9239 19.042 31.1722 19.4438 30.3538 19.6066C29.5355 19.7694 28.6872 19.6858 27.9164 19.3665C27.1455 19.0472 26.4866 18.5065 26.023 17.8127C25.5595 17.119 25.3121 16.3033 25.3121 15.4689C25.3132 14.3504 25.7581 13.278 26.549 12.4871C27.3399 11.6962 28.4123 11.2513 29.5308 11.2502ZM8.43709 36.5626C7.69117 36.5626 6.9758 36.2663 6.44835 35.7389C5.92091 35.2114 5.62459 34.496 5.62459 33.7501V27.8061L13.9601 20.3969C14.7644 19.6837 15.8103 19.3038 16.8848 19.3349C17.9593 19.3659 18.9816 19.8054 19.7433 20.5639L25.4518 26.2601L15.1493 36.5626H8.43709ZM39.3745 33.7501C39.3745 34.496 39.0782 35.2114 38.5508 35.7389C38.0233 36.2663 37.3079 36.5626 36.562 36.5626H19.1272L29.7989 25.891C30.5544 25.2484 31.5132 24.8944 32.5051 24.8919C33.4969 24.8893 34.4575 25.2383 35.2164 25.8769L39.3745 29.3415V33.7501Z" fill="white"/>
</svg>
