<svg width="866" height="147" viewBox="0 0 866 147" fill="none" xmlns="http://www.w3.org/2000/svg">
<path d="M74.4817 76.6193L4.38856 124.154C1.64376 126.016 0 129.117 0 132.433V136.359C0 141.884 4.47846 146.362 10.0029 146.362H855.997C861.522 146.362 866 141.884 866 136.359V56.0131C866 51.9943 863.595 48.3657 859.894 46.8002L794.527 19.154C790.426 17.4195 785.673 18.6046 782.866 22.0612L715.952 104.463C711.985 109.348 704.546 109.401 700.511 104.571L635.74 27.057C632.43 23.0963 626.651 22.304 622.397 25.2281L558.409 69.2187C554.415 71.9648 549.026 71.4517 545.621 68.001L481.472 2.97825C477.107 -1.44561 469.808 -0.861045 466.203 4.20102L396.654 101.865C394.856 104.391 391.987 105.94 388.889 106.058L319.127 108.73C316.189 108.842 313.35 107.657 311.365 105.488L243.791 31.6535C240.05 27.5669 233.701 27.2983 229.629 31.0545L161.876 93.5541C159.288 95.9415 155.635 96.7924 152.259 95.7944L82.9312 75.3053C80.0599 74.4567 76.9596 74.9389 74.4817 76.6193Z" fill="url(#paint0_linear_269_2700)"/>
<defs>
<linearGradient id="paint0_linear_269_2700" x1="433" y1="-5.49771" x2="433" y2="146.362" gradientUnits="userSpaceOnUse">
<stop stop-color="#165DFF" stop-opacity="0.2"/>
<stop offset="1" stop-color="#165DFF" stop-opacity="0"/>
</linearGradient>
</defs>
</svg>
