<svg width="866" height="153" viewBox="0 0 866 153" fill="none" xmlns="http://www.w3.org/2000/svg">
<path opacity="0.6" d="M791.377 62.4837L862.915 130.972C864.885 132.859 866 135.469 866 138.197V142.905C866 148.43 861.522 152.908 855.997 152.908H10.0029C4.47843 152.908 -6.10531e-05 148.43 -6.10531e-05 142.905V62.6664C-6.10531e-05 58.6499 2.40232 55.0229 6.10055 53.456L71.4637 25.7622C75.5687 24.0229 80.3292 25.2103 83.1366 28.6736L148.794 109.671C153.142 115.034 161.487 114.485 165.094 108.597L228.697 4.77776C232.307 -1.11457 240.662 -1.65907 245.006 3.71488L308.273 81.9818C311.72 86.2455 317.957 86.9403 322.257 83.5396L389.757 30.1636C391.769 28.5727 394.315 27.8154 396.869 28.0481L469.429 34.6595C471.241 34.8245 472.973 35.4802 474.439 36.5562L544.411 87.8953C548.467 90.8717 554.103 90.3717 557.573 86.7276L622.677 18.3426C626.25 14.5895 632.098 14.1865 636.152 17.4138L704.655 71.9463C706.964 73.7844 709.967 74.509 712.86 73.9263L782.484 59.9031C785.692 59.257 789.013 60.2208 791.377 62.4837Z" fill="url(#paint0_linear_269_2698)"/>
<defs>
<linearGradient id="paint0_linear_269_2698" x1="433" y1="-7.30391" x2="433" y2="152.908" gradientUnits="userSpaceOnUse">
<stop stop-color="#3BB346" stop-opacity="0.2"/>
<stop offset="1" stop-color="#3BB346" stop-opacity="0"/>
</linearGradient>
</defs>
</svg>
