<svg width="867" height="130" viewBox="0 0 867 130" fill="none" xmlns="http://www.w3.org/2000/svg">
<path d="M0.56172 128.37L75.0428 77.7647C77.5234 76.0793 80.6293 75.5957 83.5049 76.4472L152.82 96.9713C156.202 97.9725 159.86 97.1194 162.45 94.7259L230.196 32.1155C234.27 28.3503 240.63 28.6193 244.371 32.7151L311.943 106.685C313.929 108.858 316.771 110.047 319.712 109.934L389.467 107.258C392.568 107.139 395.439 105.587 397.237 103.057L466.786 5.20912C470.391 0.137547 477.702 -0.44774 482.067 3.98574L546.208 69.1212C549.614 72.5802 555.012 73.0944 559.01 70.3407L622.984 26.2772C627.241 23.3453 633.03 24.139 636.341 28.1084L701.105 105.761C705.141 110.599 712.591 110.547 716.558 105.652L783.468 23.101C786.276 19.637 791.037 18.4495 795.142 20.1891L866.609 50.4725" stroke="#165DFF" stroke-width="2" stroke-linejoin="round"/>
</svg>
