<svg width="867" height="136" viewBox="0 0 867 136" fill="none" xmlns="http://www.w3.org/2000/svg">
<path d="M866.308 134.913L791.692 63.4779C789.329 61.2152 786.008 60.2516 782.801 60.8976L713.183 74.9195C710.29 75.5021 707.288 74.7776 704.979 72.9397L636.482 18.4123C632.428 15.1853 626.581 15.5883 623.009 19.341L557.91 87.7195C554.441 91.3633 548.806 91.8633 544.75 88.8871L474.785 37.5529C473.319 36.4771 471.587 35.8214 469.776 35.6564L397.222 29.0456C394.668 28.8129 392.122 29.5702 390.111 31.1609L322.617 84.5319C318.317 87.9322 312.081 87.2375 308.635 82.9742L245.373 4.71473C241.03 -0.658717 232.676 -0.114263 229.066 5.7775L165.469 109.587C161.863 115.474 153.518 116.024 149.17 110.661L83.5194 29.6711C80.7122 26.2081 75.9522 25.0209 71.8475 26.76L0.390624 57.0357" stroke="#0FC6C2" stroke-width="2" stroke-linejoin="round"/>
</svg>
