<svg width="16" height="16" viewBox="0 0 16 16" fill="none" xmlns="http://www.w3.org/2000/svg">
<path d="M6.70759 4.80258C6.73892 4.8336 6.78122 4.851 6.8253 4.851C6.86938 4.851 6.91168 4.8336 6.943 4.80258L9.36376 2.38163C10.4846 1.26074 12.3762 1.14198 13.6136 2.38163C14.8532 3.62127 14.7344 5.51095 13.6136 6.63183L11.1929 9.05279C11.1283 9.11737 11.1283 9.22363 11.1929 9.28821L12.022 10.1174C12.0533 10.1484 12.0956 10.1658 12.1397 10.1658C12.1838 10.1658 12.2261 10.1484 12.2574 10.1174L14.6782 7.69647C16.4406 5.93388 16.4406 3.08166 14.6782 1.32116C12.9157 -0.439342 10.0637 -0.441427 8.30337 1.32116L5.88262 3.74211C5.81804 3.8067 5.81804 3.91295 5.88262 3.97754L6.70759 4.80258ZM1.32027 14.6781C3.08271 16.4406 5.9347 16.4406 7.69506 14.6781L10.1179 12.2571C10.1489 12.2258 10.1663 12.1835 10.1663 12.1394C10.1663 12.0953 10.1489 12.053 10.1179 12.0217L9.29084 11.1946C9.22626 11.13 9.12002 11.13 9.05543 11.1946L6.63468 13.6155C5.51388 14.7364 3.62228 14.8552 2.38482 13.6155C1.14528 12.3759 1.26402 10.4862 2.38482 9.3653L4.80557 6.94435C4.83659 6.91302 4.85399 6.87072 4.85399 6.82664C4.85399 6.78255 4.83659 6.74025 4.80557 6.70892L3.97643 5.87971C3.91185 5.81513 3.8056 5.81513 3.74102 5.87971L1.32027 8.30067C-0.44009 10.0633 -0.44009 12.9155 1.32027 14.6781ZM5.95553 10.9091C5.98686 10.9401 6.02916 10.9575 6.07324 10.9575C6.11732 10.9575 6.15962 10.9401 6.19094 10.9091L10.9095 6.19223C10.9406 6.1609 10.958 6.1186 10.958 6.07452C10.958 6.03043 10.9406 5.98813 10.9095 5.9568L10.0846 5.13176C10.02 5.06718 9.91374 5.06718 9.84916 5.13176L5.13265 9.84866C5.06806 9.91324 5.06806 10.0195 5.13265 10.0841L5.95553 10.9091Z" fill="black"/>
</svg>
