<svg width="80" height="25" viewBox="0 0 80 25" fill="none" xmlns="http://www.w3.org/2000/svg">
<path d="M22.56 12.75C22.56 11.97 22.49 11.22 22.36 10.5H12V14.76H17.92C17.66 16.13 16.88 17.29 15.71 18.07V20.84H19.28C21.36 18.92 22.56 16.1 22.56 12.75Z" fill="#4285F4"/>
<path d="M12.0001 23.5001C14.9701 23.5001 17.4601 22.5201 19.2801 20.8401L15.7101 18.0701C14.7301 18.7301 13.4801 19.1301 12.0001 19.1301C9.14005 19.1301 6.71005 17.2001 5.84005 14.6001H2.18005V17.4401C3.99005 21.0301 7.70005 23.5001 12.0001 23.5001Z" fill="#34A853"/>
<path d="M5.84 14.5898C5.62 13.9298 5.49 13.2298 5.49 12.4998C5.49 11.7698 5.62 11.0698 5.84 10.4098V7.56982H2.18C1.43 9.04982 1 10.7198 1 12.4998C1 14.2798 1.43 15.9498 2.18 17.4298L5.03 15.2098L5.84 14.5898Z" fill="#FBBC05"/>
<path d="M12.0001 5.88C13.6201 5.88 15.0601 6.44 16.2101 7.52L19.3601 4.37C17.4501 2.59 14.9701 1.5 12.0001 1.5C7.70005 1.5 3.99005 3.97 2.18005 7.57L5.84005 10.41C6.71005 7.81 9.14005 5.88 12.0001 5.88Z" fill="#EA4335"/>
<path d="M40.1932 11C40.0838 10.6652 39.9396 10.3653 39.7607 10.1001C39.585 9.83168 39.3745 9.60298 39.1293 9.41406C38.8873 9.22514 38.6122 9.08097 38.304 8.98153C37.9957 8.8821 37.6577 8.83239 37.2898 8.83239C36.6866 8.83239 36.138 8.98816 35.6442 9.29972C35.1503 9.61127 34.7576 10.0703 34.4659 10.6768C34.1742 11.2834 34.0284 12.0275 34.0284 12.9091C34.0284 13.7907 34.1759 14.5348 34.4709 15.1413C34.7659 15.7479 35.1652 16.2069 35.669 16.5185C36.1728 16.83 36.7396 16.9858 37.3693 16.9858C37.9527 16.9858 38.4664 16.8615 38.9105 16.6129C39.358 16.361 39.706 16.0064 39.9545 15.549C40.2064 15.0883 40.3324 14.5464 40.3324 13.9233L40.7102 14.0028H37.6477V12.9091H41.5256V14.0028C41.5256 14.8414 41.3466 15.5705 40.9886 16.1903C40.634 16.8101 40.1435 17.2907 39.517 17.6321C38.8939 17.9702 38.178 18.1392 37.3693 18.1392C36.4678 18.1392 35.6757 17.9271 34.9929 17.5028C34.3134 17.0786 33.7831 16.4754 33.402 15.6932C33.0241 14.911 32.8352 13.983 32.8352 12.9091C32.8352 12.1037 32.9429 11.3795 33.1584 10.7365C33.3771 10.0902 33.6854 9.54001 34.0831 9.08594C34.4808 8.63187 34.9515 8.28385 35.495 8.0419C36.0386 7.79995 36.6368 7.67898 37.2898 7.67898C37.8267 7.67898 38.3272 7.76018 38.7912 7.92258C39.2585 8.08168 39.6745 8.30871 40.0391 8.60369C40.407 8.89536 40.7135 9.24503 40.9588 9.6527C41.2041 10.0571 41.3731 10.5062 41.4659 11H40.1932ZM46.5804 18.1591C45.891 18.1591 45.2862 17.995 44.7658 17.6669C44.2488 17.3388 43.8444 16.8797 43.5527 16.2898C43.2644 15.6998 43.1202 15.0104 43.1202 14.2216C43.1202 13.4261 43.2644 12.7318 43.5527 12.1385C43.8444 11.5452 44.2488 11.0845 44.7658 10.7564C45.2862 10.4283 45.891 10.2642 46.5804 10.2642C47.2698 10.2642 47.873 10.4283 48.3901 10.7564C48.9105 11.0845 49.3148 11.5452 49.6032 12.1385C49.8948 12.7318 50.0407 13.4261 50.0407 14.2216C50.0407 15.0104 49.8948 15.6998 49.6032 16.2898C49.3148 16.8797 48.9105 17.3388 48.3901 17.6669C47.873 17.995 47.2698 18.1591 46.5804 18.1591ZM46.5804 17.1051C47.1041 17.1051 47.535 16.9709 47.873 16.7024C48.2111 16.4339 48.4614 16.081 48.6238 15.6435C48.7862 15.206 48.8674 14.732 48.8674 14.2216C48.8674 13.7112 48.7862 13.2356 48.6238 12.7947C48.4614 12.3539 48.2111 11.9976 47.873 11.7259C47.535 11.4541 47.1041 11.3182 46.5804 11.3182C46.0568 11.3182 45.6259 11.4541 45.2878 11.7259C44.9498 11.9976 44.6995 12.3539 44.5371 12.7947C44.3747 13.2356 44.2935 13.7112 44.2935 14.2216C44.2935 14.732 44.3747 15.206 44.5371 15.6435C44.6995 16.081 44.9498 16.4339 45.2878 16.7024C45.6259 16.9709 46.0568 17.1051 46.5804 17.1051ZM54.9339 18.1591C54.2446 18.1591 53.6397 17.995 53.1193 17.6669C52.6023 17.3388 52.1979 16.8797 51.9062 16.2898C51.6179 15.6998 51.4737 15.0104 51.4737 14.2216C51.4737 13.4261 51.6179 12.7318 51.9062 12.1385C52.1979 11.5452 52.6023 11.0845 53.1193 10.7564C53.6397 10.4283 54.2446 10.2642 54.9339 10.2642C55.6233 10.2642 56.2266 10.4283 56.7436 10.7564C57.264 11.0845 57.6683 11.5452 57.9567 12.1385C58.2483 12.7318 58.3942 13.4261 58.3942 14.2216C58.3942 15.0104 58.2483 15.6998 57.9567 16.2898C57.6683 16.8797 57.264 17.3388 56.7436 17.6669C56.2266 17.995 55.6233 18.1591 54.9339 18.1591ZM54.9339 17.1051C55.4576 17.1051 55.8885 16.9709 56.2266 16.7024C56.5646 16.4339 56.8149 16.081 56.9773 15.6435C57.1397 15.206 57.2209 14.732 57.2209 14.2216C57.2209 13.7112 57.1397 13.2356 56.9773 12.7947C56.8149 12.3539 56.5646 11.9976 56.2266 11.7259C55.8885 11.4541 55.4576 11.3182 54.9339 11.3182C54.4103 11.3182 53.9794 11.4541 53.6413 11.7259C53.3033 11.9976 53.053 12.3539 52.8906 12.7947C52.7282 13.2356 52.647 13.7112 52.647 14.2216C52.647 14.732 52.7282 15.206 52.8906 15.6435C53.053 16.081 53.3033 16.4339 53.6413 16.7024C53.9794 16.9709 54.4103 17.1051 54.9339 17.1051ZM63.2676 21.0227C62.7008 21.0227 62.2136 20.9498 61.8059 20.804C61.3983 20.6615 61.0585 20.4725 60.7868 20.2372C60.5183 20.0052 60.3045 19.7566 60.1454 19.4915L61.0801 18.8352C61.1861 18.9744 61.3204 19.1335 61.4828 19.3125C61.6452 19.4948 61.8672 19.6522 62.149 19.7848C62.434 19.9207 62.8069 19.9886 63.2676 19.9886C63.8841 19.9886 64.3928 19.8395 64.7939 19.5412C65.1949 19.2429 65.3954 18.7756 65.3954 18.1392V16.5881H65.296C65.2098 16.7273 65.0872 16.8996 64.9281 17.1051C64.7723 17.3073 64.5469 17.4879 64.252 17.647C63.9603 17.8028 63.5659 17.8807 63.0687 17.8807C62.4522 17.8807 61.8987 17.7348 61.4082 17.4432C60.921 17.1515 60.5349 16.7273 60.2498 16.1705C59.9681 15.6136 59.8272 14.9375 59.8272 14.142C59.8272 13.3598 59.9648 12.6787 60.2399 12.0987C60.515 11.5154 60.8978 11.0646 61.3883 10.7464C61.8788 10.425 62.4456 10.2642 63.0886 10.2642C63.5858 10.2642 63.9802 10.3471 64.2718 10.5128C64.5668 10.6752 64.7922 10.8608 64.948 11.0696C65.1071 11.2751 65.2297 11.4441 65.3159 11.5767H65.4352V10.3636H66.5687V18.2188C66.5687 18.875 66.4196 19.4086 66.1213 19.8196C65.8263 20.2339 65.4286 20.5372 64.9281 20.7294C64.4309 20.925 63.8774 21.0227 63.2676 21.0227ZM63.2278 16.8267C63.6984 16.8267 64.0962 16.719 64.421 16.5036C64.7458 16.2881 64.9927 15.9782 65.1618 15.5739C65.3308 15.1695 65.4153 14.6856 65.4153 14.1222C65.4153 13.572 65.3324 13.0864 65.1667 12.6655C65.001 12.2446 64.7557 11.9148 64.4309 11.6761C64.1061 11.4375 63.7051 11.3182 63.2278 11.3182C62.7306 11.3182 62.3163 11.4441 61.9849 11.696C61.6568 11.9479 61.4099 12.286 61.2441 12.7102C61.0817 13.1345 61.0005 13.6051 61.0005 14.1222C61.0005 14.6525 61.0834 15.1214 61.2491 15.5291C61.4181 15.9335 61.6667 16.2517 61.9949 16.4837C62.3263 16.7124 62.7373 16.8267 63.2278 16.8267ZM69.8897 7.81818V18H68.7164V7.81818H69.8897ZM75.2404 18.1591C74.5046 18.1591 73.8699 17.9967 73.3363 17.6719C72.806 17.3438 72.3967 16.8864 72.1083 16.2997C71.8233 15.7098 71.6808 15.0237 71.6808 14.2415C71.6808 13.4593 71.8233 12.7699 72.1083 12.1733C72.3967 11.5734 72.7977 11.1061 73.3114 10.7713C73.8285 10.4332 74.4317 10.2642 75.1211 10.2642C75.5188 10.2642 75.9116 10.3305 76.2994 10.4631C76.6871 10.5956 77.0401 10.8111 77.3583 11.1094C77.6765 11.4044 77.93 11.7955 78.119 12.2827C78.3079 12.7699 78.4023 13.3698 78.4023 14.0824V14.5795H72.516V13.5653H77.2092C77.2092 13.1345 77.123 12.75 76.9506 12.4119C76.7816 12.0739 76.5397 11.8071 76.2248 11.6115C75.9132 11.416 75.5453 11.3182 75.1211 11.3182C74.6538 11.3182 74.2494 11.4342 73.908 11.6662C73.57 11.8949 73.3098 12.1932 73.1275 12.5611C72.9452 12.929 72.854 13.3234 72.854 13.7443V14.4205C72.854 14.9972 72.9535 15.486 73.1523 15.8871C73.3545 16.2848 73.6346 16.5881 73.9925 16.7969C74.3505 17.0024 74.7665 17.1051 75.2404 17.1051C75.5487 17.1051 75.8271 17.062 76.0756 16.9759C76.3275 16.8864 76.5446 16.7538 76.7269 16.5781C76.9092 16.3991 77.0501 16.1771 77.1495 15.9119L78.283 16.2301C78.1637 16.6146 77.9632 16.9527 77.6815 17.2443C77.3997 17.5327 77.0517 17.758 76.6374 17.9205C76.2231 18.0795 75.7575 18.1591 75.2404 18.1591Z" fill="#EA4335"/>
</svg>
