<svg width="732" height="50" viewBox="0 0 732 50" fill="none" xmlns="http://www.w3.org/2000/svg">
<g filter="url(#filter0_d_229_2539)">
<rect x="1" width="728" height="46" rx="8" fill="white" shape-rendering="crispEdges"/>
<path d="M22.8778 28.5V16.8636H26.8097C27.7225 16.8636 28.4688 17.0284 29.0483 17.358C29.6316 17.6837 30.0634 18.125 30.3438 18.6818C30.6241 19.2386 30.7642 19.8598 30.7642 20.5455C30.7642 21.2311 30.6241 21.8542 30.3438 22.4148C30.0672 22.9754 29.6392 23.4223 29.0597 23.7557C28.4801 24.0852 27.7377 24.25 26.8324 24.25H24.0142V23H26.7869C27.4119 23 27.9138 22.892 28.2926 22.6761C28.6714 22.4602 28.946 22.1686 29.1165 21.8011C29.2907 21.4299 29.3778 21.0114 29.3778 20.5455C29.3778 20.0795 29.2907 19.6629 29.1165 19.2955C28.946 18.928 28.6695 18.6402 28.2869 18.4318C27.9044 18.2197 27.3968 18.1136 26.7642 18.1136H24.2869V28.5H22.8778ZM35.4205 28.7045C34.8674 28.7045 34.3655 28.6004 33.9148 28.392C33.464 28.1799 33.1061 27.875 32.8409 27.4773C32.5758 27.0758 32.4432 26.5909 32.4432 26.0227C32.4432 25.5227 32.5417 25.1174 32.7386 24.8068C32.9356 24.4924 33.1989 24.2462 33.5284 24.0682C33.858 23.8902 34.2216 23.7576 34.6193 23.6705C35.0208 23.5795 35.4242 23.5076 35.8295 23.4545C36.3598 23.3864 36.7898 23.3352 37.1193 23.3011C37.4527 23.2633 37.6951 23.2008 37.8466 23.1136C38.0019 23.0265 38.0795 22.875 38.0795 22.6591V22.6136C38.0795 22.053 37.9261 21.6174 37.6193 21.3068C37.3163 20.9962 36.8561 20.8409 36.2386 20.8409C35.5985 20.8409 35.0966 20.9811 34.733 21.2614C34.3693 21.5417 34.1136 21.8409 33.9659 22.1591L32.6932 21.7045C32.9205 21.1742 33.2235 20.7614 33.6023 20.4659C33.9848 20.1667 34.4015 19.9583 34.8523 19.8409C35.3068 19.7197 35.7538 19.6591 36.1932 19.6591C36.4735 19.6591 36.7955 19.6932 37.1591 19.7614C37.5265 19.8258 37.8807 19.9602 38.2216 20.1648C38.5663 20.3693 38.8523 20.678 39.0795 21.0909C39.3068 21.5038 39.4205 22.0568 39.4205 22.75V28.5H38.0795V27.3182H38.0114C37.9205 27.5076 37.7689 27.7102 37.5568 27.9261C37.3447 28.142 37.0625 28.3258 36.7102 28.4773C36.358 28.6288 35.928 28.7045 35.4205 28.7045ZM35.625 27.5C36.1553 27.5 36.6023 27.3958 36.9659 27.1875C37.3333 26.9792 37.6098 26.7102 37.7955 26.3807C37.9848 26.0511 38.0795 25.7045 38.0795 25.3409V24.1136C38.0227 24.1818 37.8977 24.2443 37.7045 24.3011C37.5152 24.3542 37.2955 24.4015 37.0455 24.4432C36.7992 24.4811 36.5587 24.5152 36.3239 24.5455C36.0928 24.572 35.9053 24.5947 35.7614 24.6136C35.4129 24.6591 35.0871 24.733 34.7841 24.8352C34.4848 24.9337 34.2424 25.0833 34.0568 25.2841C33.875 25.4811 33.7841 25.75 33.7841 26.0909C33.7841 26.5568 33.9564 26.9091 34.3011 27.1477C34.6496 27.3826 35.0909 27.5 35.625 27.5ZM41.8679 28.5V19.7727H43.1634V21.0909H43.2543C43.4134 20.6591 43.7012 20.3087 44.1179 20.0398C44.5346 19.7708 45.0043 19.6364 45.527 19.6364C45.6255 19.6364 45.7486 19.6383 45.8963 19.642C46.044 19.6458 46.1558 19.6515 46.2315 19.6591V21.0227C46.1861 21.0114 46.0819 20.9943 45.919 20.9716C45.7599 20.9451 45.5914 20.9318 45.4134 20.9318C44.9891 20.9318 44.6103 21.0208 44.277 21.1989C43.9474 21.3731 43.6861 21.6155 43.4929 21.9261C43.3035 22.233 43.2088 22.5833 43.2088 22.9773V28.5H41.8679ZM50.3892 28.7045C49.8362 28.7045 49.3343 28.6004 48.8835 28.392C48.4328 28.1799 48.0748 27.875 47.8097 27.4773C47.5445 27.0758 47.4119 26.5909 47.4119 26.0227C47.4119 25.5227 47.5104 25.1174 47.7074 24.8068C47.9044 24.4924 48.1676 24.2462 48.4972 24.0682C48.8267 23.8902 49.1903 23.7576 49.5881 23.6705C49.9896 23.5795 50.393 23.5076 50.7983 23.4545C51.3286 23.3864 51.7585 23.3352 52.0881 23.3011C52.4214 23.2633 52.6638 23.2008 52.8153 23.1136C52.9706 23.0265 53.0483 22.875 53.0483 22.6591V22.6136C53.0483 22.053 52.8949 21.6174 52.5881 21.3068C52.285 20.9962 51.8248 20.8409 51.2074 20.8409C50.5672 20.8409 50.0653 20.9811 49.7017 21.2614C49.3381 21.5417 49.0824 21.8409 48.9347 22.1591L47.6619 21.7045C47.8892 21.1742 48.1922 20.7614 48.571 20.4659C48.9536 20.1667 49.3703 19.9583 49.821 19.8409C50.2756 19.7197 50.7225 19.6591 51.1619 19.6591C51.4422 19.6591 51.7642 19.6932 52.1278 19.7614C52.4953 19.8258 52.8494 19.9602 53.1903 20.1648C53.535 20.3693 53.821 20.678 54.0483 21.0909C54.2756 21.5038 54.3892 22.0568 54.3892 22.75V28.5H53.0483V27.3182H52.9801C52.8892 27.5076 52.7377 27.7102 52.5256 27.9261C52.3134 28.142 52.0313 28.3258 51.679 28.4773C51.3267 28.6288 50.8968 28.7045 50.3892 28.7045ZM50.5938 27.5C51.1241 27.5 51.571 27.3958 51.9347 27.1875C52.3021 26.9792 52.5786 26.7102 52.7642 26.3807C52.9536 26.0511 53.0483 25.7045 53.0483 25.3409V24.1136C52.9915 24.1818 52.8665 24.2443 52.6733 24.3011C52.4839 24.3542 52.2642 24.4015 52.0142 24.4432C51.768 24.4811 51.5275 24.5152 51.2926 24.5455C51.0616 24.572 50.8741 24.5947 50.7301 24.6136C50.3816 24.6591 50.0559 24.733 49.7528 24.8352C49.4536 24.9337 49.2112 25.0833 49.0256 25.2841C48.8438 25.4811 48.7528 25.75 48.7528 26.0909C48.7528 26.5568 48.9252 26.9091 49.2699 27.1477C49.6184 27.3826 50.0597 27.5 50.5938 27.5ZM60.3594 31.9545C59.7116 31.9545 59.1548 31.8712 58.6889 31.7045C58.223 31.5417 57.8348 31.3258 57.5241 31.0568C57.2173 30.7917 56.973 30.5076 56.7912 30.2045L57.8594 29.4545C57.9806 29.6136 58.134 29.7955 58.3196 30C58.5052 30.2083 58.759 30.3883 59.081 30.5398C59.4067 30.6951 59.8329 30.7727 60.3594 30.7727C61.0639 30.7727 61.6454 30.6023 62.1037 30.2614C62.562 29.9205 62.7912 29.3864 62.7912 28.6591V26.8864H62.6776C62.5791 27.0455 62.4389 27.2424 62.2571 27.4773C62.0791 27.7083 61.8215 27.9148 61.4844 28.0966C61.151 28.2746 60.7003 28.3636 60.1321 28.3636C59.4276 28.3636 58.795 28.197 58.2344 27.8636C57.6776 27.5303 57.2363 27.0455 56.9105 26.4091C56.5885 25.7727 56.4276 25 56.4276 24.0909C56.4276 23.197 56.5848 22.4186 56.8991 21.7557C57.2135 21.089 57.651 20.5739 58.2116 20.2102C58.7723 19.8428 59.42 19.6591 60.1548 19.6591C60.723 19.6591 61.1738 19.7538 61.5071 19.9432C61.8442 20.1288 62.1018 20.3409 62.2798 20.5795C62.4616 20.8144 62.6018 21.0076 62.7003 21.1591H62.8366V19.7727H64.1321V28.75C64.1321 29.5 63.9616 30.1098 63.6207 30.5795C63.2836 31.053 62.8291 31.3996 62.2571 31.6193C61.6889 31.8428 61.0563 31.9545 60.3594 31.9545ZM60.3139 27.1591C60.8518 27.1591 61.3063 27.036 61.6776 26.7898C62.0488 26.5436 62.331 26.1894 62.5241 25.7273C62.7173 25.2652 62.8139 24.7121 62.8139 24.0682C62.8139 23.4394 62.7192 22.8845 62.5298 22.4034C62.3404 21.9223 62.0601 21.5455 61.6889 21.2727C61.3177 21 60.8594 20.8636 60.3139 20.8636C59.7457 20.8636 59.2723 21.0076 58.8935 21.2955C58.5185 21.5833 58.2363 21.9697 58.0469 22.4545C57.8613 22.9394 57.7685 23.4773 57.7685 24.0682C57.7685 24.6742 57.8632 25.2102 58.0526 25.6761C58.2457 26.1383 58.5298 26.5019 58.9048 26.767C59.2836 27.0284 59.7533 27.1591 60.3139 27.1591ZM66.5866 28.5V19.7727H67.8821V21.0909H67.973C68.1321 20.6591 68.42 20.3087 68.8366 20.0398C69.2533 19.7708 69.723 19.6364 70.2457 19.6364C70.3442 19.6364 70.4673 19.6383 70.6151 19.642C70.7628 19.6458 70.8745 19.6515 70.9503 19.6591V21.0227C70.9048 21.0114 70.8007 20.9943 70.6378 20.9716C70.4787 20.9451 70.3101 20.9318 70.1321 20.9318C69.7079 20.9318 69.3291 21.0208 68.9957 21.1989C68.6662 21.3731 68.4048 21.6155 68.2116 21.9261C68.0223 22.233 67.9276 22.5833 67.9276 22.9773V28.5H66.5866ZM75.108 28.7045C74.5549 28.7045 74.053 28.6004 73.6023 28.392C73.1515 28.1799 72.7936 27.875 72.5284 27.4773C72.2633 27.0758 72.1307 26.5909 72.1307 26.0227C72.1307 25.5227 72.2292 25.1174 72.4261 24.8068C72.6231 24.4924 72.8864 24.2462 73.2159 24.0682C73.5455 23.8902 73.9091 23.7576 74.3068 23.6705C74.7083 23.5795 75.1117 23.5076 75.517 23.4545C76.0473 23.3864 76.4773 23.3352 76.8068 23.3011C77.1402 23.2633 77.3826 23.2008 77.5341 23.1136C77.6894 23.0265 77.767 22.875 77.767 22.6591V22.6136C77.767 22.053 77.6136 21.6174 77.3068 21.3068C77.0038 20.9962 76.5436 20.8409 75.9261 20.8409C75.286 20.8409 74.7841 20.9811 74.4205 21.2614C74.0568 21.5417 73.8011 21.8409 73.6534 22.1591L72.3807 21.7045C72.608 21.1742 72.911 20.7614 73.2898 20.4659C73.6723 20.1667 74.089 19.9583 74.5398 19.8409C74.9943 19.7197 75.4413 19.6591 75.8807 19.6591C76.161 19.6591 76.483 19.6932 76.8466 19.7614C77.214 19.8258 77.5682 19.9602 77.9091 20.1648C78.2538 20.3693 78.5398 20.678 78.767 21.0909C78.9943 21.5038 79.108 22.0568 79.108 22.75V28.5H77.767V27.3182H77.6989C77.608 27.5076 77.4564 27.7102 77.2443 27.9261C77.0322 28.142 76.75 28.3258 76.3977 28.4773C76.0455 28.6288 75.6155 28.7045 75.108 28.7045ZM75.3125 27.5C75.8428 27.5 76.2898 27.3958 76.6534 27.1875C77.0208 26.9792 77.2973 26.7102 77.483 26.3807C77.6723 26.0511 77.767 25.7045 77.767 25.3409V24.1136C77.7102 24.1818 77.5852 24.2443 77.392 24.3011C77.2027 24.3542 76.983 24.4015 76.733 24.4432C76.4867 24.4811 76.2462 24.5152 76.0114 24.5455C75.7803 24.572 75.5928 24.5947 75.4489 24.6136C75.1004 24.6591 74.7746 24.733 74.4716 24.8352C74.1723 24.9337 73.9299 25.0833 73.7443 25.2841C73.5625 25.4811 73.4716 25.75 73.4716 26.0909C73.4716 26.5568 73.6439 26.9091 73.9886 27.1477C74.3371 27.3826 74.7784 27.5 75.3125 27.5ZM81.5554 31.7727V19.7727H82.8509V21.1591H83.0099C83.1084 21.0076 83.2448 20.8144 83.419 20.5795C83.5971 20.3409 83.8509 20.1288 84.1804 19.9432C84.5137 19.7538 84.9645 19.6591 85.5327 19.6591C86.2675 19.6591 86.9152 19.8428 87.4759 20.2102C88.0365 20.5777 88.474 21.0985 88.7884 21.7727C89.1027 22.447 89.2599 23.2424 89.2599 24.1591C89.2599 25.0833 89.1027 25.8845 88.7884 26.5625C88.474 27.2367 88.0384 27.7595 87.4815 28.1307C86.9247 28.4981 86.2827 28.6818 85.5554 28.6818C84.9948 28.6818 84.5459 28.589 84.2088 28.4034C83.8717 28.214 83.6122 28 83.4304 27.7614C83.2486 27.5189 83.1084 27.3182 83.0099 27.1591H82.8963V31.7727H81.5554ZM82.8736 24.1364C82.8736 24.7955 82.9702 25.3769 83.1634 25.8807C83.3565 26.3807 83.6387 26.7727 84.0099 27.0568C84.3812 27.3371 84.8357 27.4773 85.3736 27.4773C85.9342 27.4773 86.402 27.3295 86.777 27.0341C87.1558 26.7348 87.4399 26.3333 87.6293 25.8295C87.8224 25.322 87.919 24.7576 87.919 24.1364C87.919 23.5227 87.8243 22.9697 87.6349 22.4773C87.4493 21.9811 87.1671 21.589 86.7884 21.3011C86.4134 21.0095 85.9418 20.8636 85.3736 20.8636C84.8281 20.8636 84.3698 21.0019 83.9986 21.2784C83.6274 21.5511 83.3471 21.9337 83.1577 22.4261C82.9683 22.9148 82.8736 23.4848 82.8736 24.1364ZM92.6463 23.25V28.5H91.3054V16.8636H92.6463V21.1364H92.7599C92.9645 20.6856 93.2713 20.3277 93.6804 20.0625C94.0933 19.7936 94.6425 19.6591 95.3281 19.6591C95.9228 19.6591 96.4437 19.7784 96.8906 20.017C97.3376 20.2519 97.6842 20.6136 97.9304 21.1023C98.1804 21.5871 98.3054 22.2045 98.3054 22.9545V28.5H96.9645V23.0455C96.9645 22.3523 96.7846 21.8163 96.4247 21.4375C96.0687 21.0549 95.5743 20.8636 94.9418 20.8636C94.5024 20.8636 94.1084 20.9564 93.7599 21.142C93.4152 21.3277 93.1425 21.5985 92.9418 21.9545C92.7448 22.3106 92.6463 22.7424 92.6463 23.25Z" fill="black"/>
<path d="M111 23.5L108 26.5L105 23.5" stroke="#0F172A" stroke-width="1.5" stroke-linecap="round" stroke-linejoin="round"/>
<line x1="132.231" y1="7" x2="132.231" y2="39" stroke="#E2E8F0"/>
<path d="M157.907 16.8636V28.5H156.498V18.3409H156.43L153.589 20.2273V18.7955L156.498 16.8636H157.907ZM160.981 26.1136V24.9545L166.094 16.8636H166.935V18.6591H166.367L162.503 24.7727V24.8636H169.39V26.1136H160.981ZM166.458 28.5V25.7614V25.2216V16.8636H167.799V28.5H166.458Z" fill="black"/>
<path d="M181.463 24.5L178.463 27.5L175.463 24.5" stroke="#E2E8F0" stroke-width="1.5" stroke-linecap="round" stroke-linejoin="round"/>
<path d="M175.463 20.5L178.463 17.5L181.463 20.5" stroke="#E2E8F0" stroke-width="1.5" stroke-linecap="round" stroke-linejoin="round"/>
<line x1="202.694" y1="7" x2="202.694" y2="39" stroke="#E2E8F0"/>
<path d="M225.958 28.5H223.322L227.339 16.8636H230.51L234.521 28.5H231.885L228.97 19.5227H228.879L225.958 28.5ZM225.794 23.9261H232.021V25.8466H225.794V23.9261Z" fill="#0F172A"/>
<path d="M222.941 31.6818H234.907V32.7727H222.941V31.6818Z" fill="#0F172A"/>
<line x1="256.157" y1="7" x2="256.157" y2="39" stroke="#E2E8F0"/>
<path d="M277.611 28.5V16.8636H282.27C283.126 16.8636 283.84 16.9905 284.412 17.2443C284.984 17.4981 285.414 17.8504 285.702 18.3011C285.99 18.7481 286.134 19.2633 286.134 19.8466C286.134 20.3011 286.043 20.7008 285.861 21.0455C285.679 21.3864 285.429 21.6667 285.111 21.8864C284.797 22.1023 284.437 22.2557 284.031 22.3466V22.4602C284.475 22.4792 284.889 22.6042 285.276 22.8352C285.666 23.0663 285.982 23.3902 286.225 23.8068C286.467 24.2197 286.588 24.7121 286.588 25.2841C286.588 25.9015 286.435 26.4527 286.128 26.9375C285.825 27.4186 285.376 27.7992 284.781 28.0795C284.187 28.3598 283.454 28.5 282.583 28.5H277.611ZM280.071 26.4886H282.077C282.762 26.4886 283.262 26.358 283.577 26.0966C283.891 25.8314 284.048 25.4792 284.048 25.0398C284.048 24.7178 283.971 24.4337 283.816 24.1875C283.66 23.9413 283.439 23.7481 283.151 23.608C282.867 23.4678 282.528 23.3977 282.134 23.3977H280.071V26.4886ZM280.071 21.733H281.895C282.232 21.733 282.531 21.6742 282.793 21.5568C283.058 21.4356 283.266 21.2652 283.418 21.0455C283.573 20.8258 283.651 20.5625 283.651 20.2557C283.651 19.8352 283.501 19.4962 283.202 19.2386C282.906 18.9811 282.486 18.8523 281.941 18.8523H280.071V21.733Z" fill="#0F172A"/>
<path d="M301.794 16.8636L299.862 28.5H298.453L300.385 16.8636H301.794Z" fill="#0F172A"/>
<path d="M321.504 16.8636H322.914V24.5682C322.914 25.3636 322.726 26.0739 322.351 26.6989C321.98 27.3201 321.455 27.8106 320.777 28.1705C320.099 28.5265 319.304 28.7045 318.391 28.7045C317.478 28.7045 316.682 28.5265 316.004 28.1705C315.326 27.8106 314.8 27.3201 314.425 26.6989C314.054 26.0739 313.868 25.3636 313.868 24.5682V16.8636H315.277V24.4545C315.277 25.0227 315.402 25.5284 315.652 25.9716C315.902 26.411 316.258 26.7576 316.72 27.0114C317.186 27.2614 317.743 27.3864 318.391 27.3864C319.039 27.3864 319.595 27.2614 320.061 27.0114C320.527 26.7576 320.883 26.411 321.129 25.9716C321.379 25.5284 321.504 25.0227 321.504 24.4545V16.8636Z" fill="#0F172A"/>
<path d="M312.459 31.6818H324.323V32.7727H312.459V31.6818Z" fill="#0F172A"/>
<line x1="345.62" y1="7" x2="345.62" y2="39" stroke="#E2E8F0"/>
<rect x="365.852" y="18" width="16" height="1" rx="0.5" fill="#0F172A"/>
<rect x="365.852" y="21" width="12" height="1" rx="0.5" fill="#0F172A"/>
<rect x="365.852" y="24" width="16" height="1" rx="0.5" fill="#0F172A"/>
<rect x="365.852" y="27" width="10" height="1" rx="0.5" fill="#0F172A"/>
<rect x="402.584" y="18" width="16" height="1" rx="0.5" fill="#0F172A"/>
<rect x="404.584" y="21" width="12" height="1" rx="0.5" fill="#0F172A"/>
<rect x="402.584" y="24" width="16" height="1" rx="0.5" fill="#0F172A"/>
<rect x="405.584" y="27" width="10" height="1" rx="0.5" fill="#0F172A"/>
<rect x="439.315" y="13" width="22" height="20" rx="3" fill="#E2E8F0"/>
<rect x="442.315" y="18" width="16" height="1" rx="0.5" fill="#3B82F6"/>
<rect x="446.315" y="21" width="12" height="1" rx="0.5" fill="#3B82F6"/>
<rect x="442.315" y="24" width="16" height="1" rx="0.5" fill="#3B82F6"/>
<rect x="448.315" y="27" width="10" height="1" rx="0.5" fill="#3B82F6"/>
<rect x="482.047" y="18" width="16" height="1" rx="0.5" fill="#0F172A"/>
<rect x="482.047" y="21" width="16" height="1" rx="0.5" fill="#0F172A"/>
<rect x="482.047" y="24" width="16" height="1" rx="0.5" fill="#0F172A"/>
<rect x="482.047" y="27" width="16" height="1" rx="0.5" fill="#0F172A"/>
<line x1="519.278" y1="7" x2="519.278" y2="39" stroke="#E2E8F0"/>
<rect x="542.51" y="26" width="13" height="2" rx="1" fill="#0F172A"/>
<rect x="542.51" y="22" width="13" height="2" rx="1" fill="#0F172A"/>
<rect x="542.51" y="18" width="13" height="2" rx="1" fill="#0F172A"/>
<circle cx="540.51" cy="19" r="1" fill="#0F172A"/>
<circle cx="540.51" cy="23" r="1" fill="#0F172A"/>
<circle cx="540.51" cy="27" r="1" fill="#0F172A"/>
<rect x="579.074" y="26.0762" width="13" height="2" rx="1" fill="#0F172A"/>
<rect x="579.074" y="22.0762" width="13" height="2" rx="1" fill="#0F172A"/>
<rect x="579.074" y="18.0762" width="13" height="2" rx="1" fill="#0F172A"/>
<path d="M577.466 17.894V20.0759H577.005V18.3319H576.992L576.492 18.6451V18.236L577.032 17.894H577.466Z" fill="black"/>
<path d="M576.306 24.0759V23.7435L577.083 23.0244C577.149 22.9605 577.205 22.903 577.249 22.8518C577.295 22.8007 577.329 22.7506 577.353 22.7016C577.376 22.6519 577.388 22.5983 577.388 22.5407C577.388 22.4768 577.373 22.4218 577.344 22.3756C577.315 22.3287 577.275 22.2929 577.225 22.268C577.174 22.2425 577.117 22.2297 577.053 22.2297C576.987 22.2297 576.928 22.2432 576.879 22.2702C576.829 22.2971 576.79 22.3358 576.763 22.3863C576.737 22.4367 576.723 22.4967 576.723 22.5663H576.285C576.285 22.4236 576.317 22.2996 576.382 22.1945C576.447 22.0894 576.537 22.0081 576.654 21.9506C576.77 21.893 576.904 21.8643 577.056 21.8643C577.213 21.8643 577.349 21.892 577.464 21.9474C577.581 22.002 577.672 22.078 577.736 22.1753C577.801 22.2726 577.833 22.3841 577.833 22.5099C577.833 22.5922 577.817 22.6736 577.784 22.7538C577.752 22.8341 577.695 22.9232 577.613 23.0212C577.53 23.1185 577.414 23.2354 577.264 23.3717L576.946 23.6839V23.6988H577.862V24.0759H576.306Z" fill="black"/>
<path d="M577.069 28.1057C576.91 28.1057 576.768 28.0784 576.644 28.0237C576.52 27.9683 576.423 27.8923 576.351 27.7957C576.28 27.6984 576.243 27.5862 576.241 27.4591H576.706C576.709 27.5123 576.726 27.5592 576.758 27.5997C576.791 27.6395 576.834 27.6704 576.888 27.6924C576.942 27.7144 577.003 27.7254 577.07 27.7254C577.14 27.7254 577.203 27.713 577.256 27.6881C577.31 27.6633 577.353 27.6288 577.383 27.5848C577.414 27.5407 577.429 27.49 577.429 27.4324C577.429 27.3742 577.413 27.3227 577.38 27.278C577.348 27.2325 577.302 27.197 577.242 27.1714C577.182 27.1459 577.111 27.1331 577.028 27.1331H576.825V26.7943H577.028C577.098 26.7943 577.16 26.7822 577.213 26.7581C577.267 26.7339 577.309 26.7006 577.339 26.6579C577.368 26.6146 577.383 26.5642 577.383 26.5067C577.383 26.452 577.37 26.404 577.344 26.3628C577.318 26.3209 577.282 26.2883 577.235 26.2648C577.189 26.2414 577.135 26.2297 577.073 26.2297C577.011 26.2297 576.954 26.241 576.902 26.2638C576.85 26.2858 576.808 26.3174 576.777 26.3586C576.746 26.3998 576.729 26.4481 576.727 26.5035H576.285C576.287 26.3778 576.323 26.267 576.392 26.1711C576.462 26.0752 576.556 26.0003 576.674 25.9463C576.792 25.8916 576.926 25.8643 577.075 25.8643C577.226 25.8643 577.358 25.8916 577.471 25.9463C577.584 26.001 577.671 26.0748 577.734 26.1679C577.797 26.2602 577.828 26.3639 577.828 26.479C577.828 26.6011 577.79 26.703 577.714 26.7847C577.638 26.8664 577.538 26.9182 577.416 26.9403V26.9573C577.577 26.9779 577.699 27.0336 577.783 27.1246C577.867 27.2148 577.909 27.3277 577.908 27.4633C577.909 27.5876 577.873 27.6981 577.801 27.7947C577.729 27.8912 577.63 27.9672 577.504 28.0226C577.377 28.078 577.232 28.1057 577.069 28.1057Z" fill="black"/>
<line x1="613.306" y1="7" x2="613.306" y2="39" stroke="#E2E8F0"/>
<path d="M643.537 21.6665C643.933 21.6665 644.319 21.5492 644.648 21.3294C644.977 21.1097 645.233 20.7973 645.385 20.4319C645.536 20.0664 645.576 19.6643 645.499 19.2763C645.422 18.8884 645.231 18.532 644.951 18.2523C644.672 17.9726 644.315 17.7821 643.927 17.7049C643.539 17.6278 643.137 17.6674 642.772 17.8187C642.406 17.9701 642.094 18.2265 641.874 18.5554C641.654 18.8843 641.537 19.2709 641.537 19.6665C641.537 20.1969 641.748 20.7056 642.123 21.0807C642.498 21.4558 643.007 21.6665 643.537 21.6665ZM643.537 18.9998C643.669 18.9998 643.798 19.0389 643.907 19.1122C644.017 19.1854 644.103 19.2896 644.153 19.4114C644.203 19.5332 644.217 19.6672 644.191 19.7966C644.165 19.9259 644.102 20.0447 644.009 20.1379C643.915 20.2311 643.796 20.2946 643.667 20.3204C643.538 20.3461 643.404 20.3329 643.282 20.2824C643.16 20.232 643.056 20.1465 642.983 20.0369C642.91 19.9273 642.87 19.7984 642.87 19.6665C642.87 19.4897 642.941 19.3201 643.066 19.1951C643.191 19.0701 643.36 18.9998 643.537 18.9998Z" fill="black"/>
<path d="M648.204 15H634.87C634.517 15 634.178 15.1405 633.928 15.3905C633.678 15.6406 633.537 15.9797 633.537 16.3333V29.6667C633.537 30.0203 633.678 30.3594 633.928 30.6095C634.178 30.8595 634.517 31 634.87 31H648.204C648.557 31 648.897 30.8595 649.147 30.6095C649.397 30.3594 649.537 30.0203 649.537 29.6667V16.3333C649.537 15.9797 649.397 15.6406 649.147 15.3905C648.897 15.1405 648.557 15 648.204 15ZM648.204 29.6667H634.87V25.6667L638.204 22.3333L641.93 26.06C642.18 26.3083 642.518 26.4477 642.87 26.4477C643.223 26.4477 643.561 26.3083 643.81 26.06L644.87 25L648.204 28.3333V29.6667ZM648.204 26.4467L645.81 24.0533C645.561 23.805 645.223 23.6656 644.87 23.6656C644.518 23.6656 644.18 23.805 643.93 24.0533L642.87 25.1133L639.144 21.3867C638.894 21.1383 638.556 20.9989 638.204 20.9989C637.852 20.9989 637.514 21.1383 637.264 21.3867L634.87 23.78V16.3333H648.204V26.4467Z" fill="black"/>
<path d="M676.976 19.8026C677.007 19.8336 677.05 19.851 677.094 19.851C677.138 19.851 677.18 19.8336 677.212 19.8026L679.632 17.3816C680.753 16.2607 682.645 16.142 683.882 17.3816C685.122 18.6213 685.003 20.5109 683.882 21.6318L681.461 24.0528C681.397 24.1174 681.397 24.2236 681.461 24.2882L682.291 25.1174C682.322 25.1484 682.364 25.1658 682.408 25.1658C682.452 25.1658 682.495 25.1484 682.526 25.1174L684.947 22.6965C686.709 20.9339 686.709 18.0817 684.947 16.3212C683.184 14.5607 680.332 14.5586 678.572 16.3212L676.151 18.7421C676.087 18.8067 676.087 18.913 676.151 18.9775L676.976 19.8026ZM671.589 29.6781C673.351 31.4406 676.203 31.4406 677.964 29.6781L680.386 27.2571C680.417 27.2258 680.435 27.1835 680.435 27.1394C680.435 27.0953 680.417 27.053 680.386 27.0217L679.559 26.1946C679.495 26.13 679.389 26.13 679.324 26.1946L676.903 28.6155C675.782 29.7364 673.891 29.8552 672.653 28.6155C671.414 27.3759 671.533 25.4862 672.653 24.3653L675.074 21.9444C675.105 21.913 675.123 21.8707 675.123 21.8266C675.123 21.7826 675.105 21.7402 675.074 21.7089L674.245 20.8797C674.18 20.8151 674.074 20.8151 674.01 20.8797L671.589 23.3007C669.828 25.0633 669.828 27.9155 671.589 29.6781ZM676.224 25.9091C676.255 25.9401 676.298 25.9575 676.342 25.9575C676.386 25.9575 676.428 25.9401 676.459 25.9091L681.178 21.1922C681.209 21.1609 681.227 21.1186 681.227 21.0745C681.227 21.0304 681.209 20.9881 681.178 20.9568L680.353 20.1318C680.289 20.0672 680.182 20.0672 680.118 20.1318L675.401 24.8487C675.337 24.9132 675.337 25.0195 675.401 25.0841L676.224 25.9091Z" fill="black"/>
<circle cx="708" cy="19" r="1" fill="#0F172A"/>
<circle cx="708" cy="23" r="1" fill="#0F172A"/>
<circle cx="708" cy="27" r="1" fill="#0F172A"/>
</g>
<defs>
<filter id="filter0_d_229_2539" x="0" y="0" width="732" height="50" filterUnits="userSpaceOnUse" color-interpolation-filters="sRGB">
<feFlood flood-opacity="0" result="BackgroundImageFix"/>
<feColorMatrix in="SourceAlpha" type="matrix" values="0 0 0 0 0 0 0 0 0 0 0 0 0 0 0 0 0 0 127 0" result="hardAlpha"/>
<feOffset dx="1" dy="2"/>
<feGaussianBlur stdDeviation="1"/>
<feComposite in2="hardAlpha" operator="out"/>
<feColorMatrix type="matrix" values="0 0 0 0 0 0 0 0 0 0 0 0 0 0 0 0 0 0 0.15 0"/>
<feBlend mode="normal" in2="BackgroundImageFix" result="effect1_dropShadow_229_2539"/>
<feBlend mode="normal" in="SourceGraphic" in2="effect1_dropShadow_229_2539" result="shape"/>
</filter>
</defs>
</svg>
