<svg width="252" height="137" viewBox="0 0 252 137" fill="none" xmlns="http://www.w3.org/2000/svg">
<g filter="url(#filter0_d_950_6962)">
<rect x="8" y="8" width="236" height="121" rx="8" fill="white"/>
<rect x="8.5" y="8.5" width="235" height="120" rx="7.5" stroke="#E2E8F0"/>
<circle cx="48" cy="48" r="24" fill="#E0F2FE"/>
<path d="M42.5 56H41C39.8954 56 39 55.1046 39 54V40C39 38.8954 39.8954 38 41 38H55C56.1046 38 57 38.8954 57 40V54C57 55.1046 56.1046 56 55 56H53.5M48 55C49.6569 55 51 53.6569 51 52C51 50.3431 49.6569 49 48 49C46.3431 49 45 50.3431 45 52C45 53.6569 46.3431 55 48 55ZM48 55L48.0214 54.9998L44.8287 58.1926L42.0002 55.3641L45.0197 52.3447M48 55L51.1928 58.1926L54.0212 55.3641L51.0018 52.3447M45 42H51M43 45.5H53" stroke="#1E3A8A" stroke-width="2" stroke-linecap="round" stroke-linejoin="round"/>
<path d="M89.3068 31.8182V42H88.1136L82.5653 34.0057H82.4659V42H81.233V31.8182H82.4261L87.9943 39.8324H88.0938V31.8182H89.3068ZM96.4274 38.8778V34.3636H97.6007V42H96.4274V40.7074H96.3478C96.1689 41.0952 95.8904 41.425 95.5126 41.6967C95.1348 41.9652 94.6575 42.0994 94.0808 42.0994C93.6035 42.0994 93.1793 41.995 92.8081 41.7862C92.4368 41.5741 92.1452 41.2559 91.9331 40.8317C91.7209 40.4041 91.6149 39.8655 91.6149 39.2159V34.3636H92.7882V39.1364C92.7882 39.6932 92.944 40.1373 93.2555 40.4688C93.5704 40.8002 93.9714 40.9659 94.4586 40.9659C94.7503 40.9659 95.0469 40.8913 95.3485 40.7422C95.6535 40.593 95.9087 40.3643 96.1142 40.0561C96.323 39.7479 96.4274 39.3551 96.4274 38.8778ZM99.7496 42V34.3636H100.883V35.5568H100.983C101.142 35.1491 101.399 34.8326 101.753 34.6072C102.108 34.3786 102.534 34.2642 103.031 34.2642C103.535 34.2642 103.954 34.3786 104.289 34.6072C104.627 34.8326 104.89 35.1491 105.079 35.5568H105.159C105.354 35.1624 105.648 34.8492 106.039 34.6172C106.43 34.3819 106.899 34.2642 107.446 34.2642C108.128 34.2642 108.687 34.478 109.121 34.9055C109.555 35.3298 109.772 35.991 109.772 36.8892V42H108.599V36.8892C108.599 36.3258 108.445 35.9231 108.137 35.6811C107.828 35.4392 107.466 35.3182 107.048 35.3182C106.511 35.3182 106.095 35.4806 105.8 35.8054C105.505 36.1269 105.358 36.5346 105.358 37.0284V42H104.164V36.7699C104.164 36.3357 104.024 35.986 103.742 35.7209C103.46 35.4524 103.097 35.3182 102.653 35.3182C102.348 35.3182 102.063 35.3994 101.798 35.5618C101.536 35.7242 101.324 35.9496 101.162 36.2379C101.002 36.523 100.923 36.8527 100.923 37.2273V42H99.7496ZM112.077 42V31.8182H113.25V35.5767H113.349C113.436 35.4441 113.555 35.2751 113.707 35.0696C113.863 34.8608 114.085 34.6752 114.374 34.5128C114.665 34.3471 115.06 34.2642 115.557 34.2642C116.2 34.2642 116.767 34.425 117.257 34.7464C117.748 35.0679 118.13 35.5237 118.406 36.1136C118.681 36.7036 118.818 37.3996 118.818 38.2017C118.818 39.0104 118.681 39.7114 118.406 40.3047C118.13 40.8946 117.749 41.352 117.262 41.6768C116.775 41.9983 116.213 42.1591 115.577 42.1591C115.086 42.1591 114.693 42.0779 114.398 41.9155C114.103 41.7498 113.876 41.5625 113.717 41.3537C113.558 41.1416 113.436 40.9659 113.349 40.8267H113.21V42H112.077ZM113.23 38.1818C113.23 38.7585 113.315 39.2673 113.484 39.7081C113.653 40.1456 113.9 40.4886 114.224 40.7372C114.549 40.9825 114.947 41.1051 115.418 41.1051C115.908 41.1051 116.317 40.9759 116.646 40.7173C116.977 40.4555 117.226 40.1042 117.391 39.6634C117.56 39.2192 117.645 38.7254 117.645 38.1818C117.645 37.6449 117.562 37.161 117.396 36.7301C117.234 36.2959 116.987 35.9529 116.656 35.701C116.327 35.4458 115.915 35.3182 115.418 35.3182C114.94 35.3182 114.539 35.4392 114.214 35.6811C113.89 35.9197 113.644 36.2545 113.479 36.6854C113.313 37.1129 113.23 37.6117 113.23 38.1818ZM123.815 42.1591C123.079 42.1591 122.444 41.9967 121.911 41.6719C121.38 41.3438 120.971 40.8864 120.683 40.2997C120.397 39.7098 120.255 39.0237 120.255 38.2415C120.255 37.4593 120.397 36.7699 120.683 36.1733C120.971 35.5734 121.372 35.1061 121.886 34.7713C122.403 34.4332 123.006 34.2642 123.695 34.2642C124.093 34.2642 124.486 34.3305 124.874 34.4631C125.261 34.5956 125.614 34.8111 125.933 35.1094C126.251 35.4044 126.504 35.7955 126.693 36.2827C126.882 36.7699 126.977 37.3698 126.977 38.0824V38.5795H121.09V37.5653H125.783C125.783 37.1345 125.697 36.75 125.525 36.4119C125.356 36.0739 125.114 35.8071 124.799 35.6115C124.487 35.416 124.12 35.3182 123.695 35.3182C123.228 35.3182 122.824 35.4342 122.482 35.6662C122.144 35.8949 121.884 36.1932 121.702 36.5611C121.519 36.929 121.428 37.3234 121.428 37.7443V38.4205C121.428 38.9972 121.528 39.486 121.727 39.8871C121.929 40.2848 122.209 40.5881 122.567 40.7969C122.925 41.0024 123.341 41.1051 123.815 41.1051C124.123 41.1051 124.401 41.062 124.65 40.9759C124.902 40.8864 125.119 40.7538 125.301 40.5781C125.483 40.3991 125.624 40.1771 125.724 39.9119L126.857 40.2301C126.738 40.6146 126.537 40.9527 126.256 41.2443C125.974 41.5327 125.626 41.758 125.212 41.9205C124.797 42.0795 124.332 42.1591 123.815 42.1591ZM128.761 42V34.3636H129.895V35.517H129.974C130.114 35.1392 130.366 34.8326 130.73 34.5973C131.095 34.362 131.506 34.2443 131.963 34.2443C132.049 34.2443 132.157 34.246 132.286 34.2493C132.415 34.2526 132.513 34.2576 132.58 34.2642V35.4574C132.54 35.4474 132.449 35.4325 132.306 35.4126C132.167 35.3894 132.019 35.3778 131.864 35.3778C131.492 35.3778 131.161 35.4557 130.869 35.6115C130.581 35.764 130.352 35.9761 130.183 36.2479C130.018 36.5163 129.935 36.8229 129.935 37.1676V42H128.761ZM141.01 42.1591C140.321 42.1591 139.716 41.995 139.195 41.6669C138.678 41.3388 138.274 40.8797 137.982 40.2898C137.694 39.6998 137.55 39.0104 137.55 38.2216C137.55 37.4261 137.694 36.7318 137.982 36.1385C138.274 35.5452 138.678 35.0845 139.195 34.7564C139.716 34.4283 140.321 34.2642 141.01 34.2642C141.7 34.2642 142.303 34.4283 142.82 34.7564C143.34 35.0845 143.744 35.5452 144.033 36.1385C144.325 36.7318 144.47 37.4261 144.47 38.2216C144.47 39.0104 144.325 39.6998 144.033 40.2898C143.744 40.8797 143.34 41.3388 142.82 41.6669C142.303 41.995 141.7 42.1591 141.01 42.1591ZM141.01 41.1051C141.534 41.1051 141.965 40.9709 142.303 40.7024C142.641 40.4339 142.891 40.081 143.053 39.6435C143.216 39.206 143.297 38.732 143.297 38.2216C143.297 37.7112 143.216 37.2356 143.053 36.7947C142.891 36.3539 142.641 35.9976 142.303 35.7259C141.965 35.4541 141.534 35.3182 141.01 35.3182C140.486 35.3182 140.056 35.4541 139.718 35.7259C139.379 35.9976 139.129 36.3539 138.967 36.7947C138.804 37.2356 138.723 37.7112 138.723 38.2216C138.723 38.732 138.804 39.206 138.967 39.6435C139.129 40.081 139.379 40.4339 139.718 40.7024C140.056 40.9709 140.486 41.1051 141.01 41.1051ZM149.662 34.3636V35.358H145.545V34.3636H149.662ZM146.778 42V33.3097C146.778 32.8722 146.881 32.5076 147.087 32.2159C147.292 31.9242 147.559 31.7055 147.887 31.5597C148.215 31.4138 148.562 31.3409 148.926 31.3409C149.214 31.3409 149.45 31.3641 149.632 31.4105C149.814 31.4569 149.95 31.5 150.04 31.5398L149.702 32.554C149.642 32.5341 149.559 32.5092 149.453 32.4794C149.35 32.4496 149.214 32.4347 149.045 32.4347C148.658 32.4347 148.378 32.5324 148.205 32.728C148.036 32.9235 147.952 33.2102 147.952 33.5881V42H146.778ZM158.346 42.1591C157.63 42.1591 157.014 41.9901 156.497 41.652C155.98 41.3139 155.582 40.8482 155.303 40.255C155.025 39.6617 154.886 38.9839 154.886 38.2216C154.886 37.446 155.028 36.7616 155.313 36.1683C155.602 35.5717 156.003 35.1061 156.517 34.7713C157.034 34.4332 157.637 34.2642 158.326 34.2642C158.863 34.2642 159.347 34.3636 159.778 34.5625C160.209 34.7614 160.562 35.0398 160.837 35.3977C161.112 35.7557 161.283 36.1733 161.349 36.6506H160.176C160.086 36.3026 159.887 35.9943 159.579 35.7259C159.274 35.4541 158.863 35.3182 158.346 35.3182C157.889 35.3182 157.488 35.4375 157.143 35.6761C156.802 35.9115 156.535 36.2446 156.343 36.6754C156.154 37.103 156.059 37.6051 156.059 38.1818C156.059 38.7718 156.152 39.2855 156.338 39.723C156.526 40.1605 156.792 40.5002 157.133 40.7422C157.478 40.9841 157.882 41.1051 158.346 41.1051C158.651 41.1051 158.928 41.0521 159.176 40.946C159.425 40.84 159.635 40.6875 159.808 40.4886C159.98 40.2898 160.103 40.0511 160.176 39.7727H161.349C161.283 40.2235 161.119 40.6295 160.857 40.9908C160.598 41.3487 160.255 41.6338 159.828 41.8459C159.403 42.0547 158.91 42.1591 158.346 42.1591ZM166.166 42.1591C165.477 42.1591 164.872 41.995 164.352 41.6669C163.835 41.3388 163.43 40.8797 163.139 40.2898C162.85 39.6998 162.706 39.0104 162.706 38.2216C162.706 37.4261 162.85 36.7318 163.139 36.1385C163.43 35.5452 163.835 35.0845 164.352 34.7564C164.872 34.4283 165.477 34.2642 166.166 34.2642C166.856 34.2642 167.459 34.4283 167.976 34.7564C168.496 35.0845 168.901 35.5452 169.189 36.1385C169.481 36.7318 169.627 37.4261 169.627 38.2216C169.627 39.0104 169.481 39.6998 169.189 40.2898C168.901 40.8797 168.496 41.3388 167.976 41.6669C167.459 41.995 166.856 42.1591 166.166 42.1591ZM166.166 41.1051C166.69 41.1051 167.121 40.9709 167.459 40.7024C167.797 40.4339 168.047 40.081 168.21 39.6435C168.372 39.206 168.453 38.732 168.453 38.2216C168.453 37.7112 168.372 37.2356 168.21 36.7947C168.047 36.3539 167.797 35.9976 167.459 35.7259C167.121 35.4541 166.69 35.3182 166.166 35.3182C165.643 35.3182 165.212 35.4541 164.874 35.7259C164.536 35.9976 164.285 36.3539 164.123 36.7947C163.961 37.2356 163.879 37.7112 163.879 38.2216C163.879 38.732 163.961 39.206 164.123 39.6435C164.285 40.081 164.536 40.4339 164.874 40.7024C165.212 40.9709 165.643 41.1051 166.166 41.1051ZM176.23 38.8778V34.3636H177.403V42H176.23V40.7074H176.151C175.972 41.0952 175.693 41.425 175.315 41.6967C174.938 41.9652 174.46 42.0994 173.884 42.0994C173.406 42.0994 172.982 41.995 172.611 41.7862C172.24 41.5741 171.948 41.2559 171.736 40.8317C171.524 40.4041 171.418 39.8655 171.418 39.2159V34.3636H172.591V39.1364C172.591 39.6932 172.747 40.1373 173.058 40.4688C173.373 40.8002 173.774 40.9659 174.261 40.9659C174.553 40.9659 174.85 40.8913 175.151 40.7422C175.456 40.593 175.711 40.3643 175.917 40.0561C176.126 39.7479 176.23 39.3551 176.23 38.8778ZM179.552 42V34.3636H180.686V35.517H180.765C180.905 35.1392 181.157 34.8326 181.521 34.5973C181.886 34.362 182.297 34.2443 182.754 34.2443C182.84 34.2443 182.948 34.246 183.077 34.2493C183.206 34.2526 183.304 34.2576 183.371 34.2642V35.4574C183.331 35.4474 183.24 35.4325 183.097 35.4126C182.958 35.3894 182.81 35.3778 182.655 35.3778C182.283 35.3778 181.952 35.4557 181.66 35.6115C181.372 35.764 181.143 35.9761 180.974 36.2479C180.809 36.5163 180.726 36.8229 180.726 37.1676V42H179.552ZM190.17 36.0739L189.116 36.3722C189.05 36.1965 188.952 36.0258 188.823 35.8601C188.697 35.6911 188.525 35.5518 188.306 35.4425C188.087 35.3331 187.807 35.2784 187.466 35.2784C186.999 35.2784 186.609 35.3861 186.298 35.6016C185.989 35.8137 185.835 36.0838 185.835 36.4119C185.835 36.7036 185.941 36.9339 186.153 37.103C186.366 37.272 186.697 37.4129 187.148 37.5256L188.281 37.804C188.964 37.9697 189.473 38.2232 189.808 38.5646C190.142 38.9027 190.31 39.3385 190.31 39.8722C190.31 40.3097 190.184 40.7008 189.932 41.0455C189.683 41.3902 189.335 41.6619 188.888 41.8608C188.44 42.0597 187.92 42.1591 187.327 42.1591C186.548 42.1591 185.903 41.9901 185.393 41.652C184.882 41.3139 184.559 40.8201 184.423 40.1705L185.537 39.892C185.643 40.303 185.844 40.6113 186.138 40.8168C186.437 41.0223 186.826 41.125 187.307 41.125C187.854 41.125 188.288 41.009 188.609 40.777C188.934 40.5417 189.097 40.2599 189.097 39.9318C189.097 39.6667 189.004 39.4446 188.818 39.2656C188.633 39.0833 188.348 38.9474 187.963 38.858L186.69 38.5597C185.991 38.3939 185.477 38.1371 185.149 37.7891C184.824 37.4377 184.662 36.9986 184.662 36.4716C184.662 36.0407 184.783 35.6596 185.025 35.3281C185.27 34.9967 185.603 34.7365 186.024 34.5476C186.448 34.3587 186.929 34.2642 187.466 34.2642C188.222 34.2642 188.815 34.4299 189.246 34.7614C189.68 35.0928 189.988 35.5303 190.17 36.0739ZM195.278 42.1591C194.542 42.1591 193.907 41.9967 193.373 41.6719C192.843 41.3438 192.434 40.8864 192.145 40.2997C191.86 39.7098 191.718 39.0237 191.718 38.2415C191.718 37.4593 191.86 36.7699 192.145 36.1733C192.434 35.5734 192.835 35.1061 193.349 34.7713C193.866 34.4332 194.469 34.2642 195.158 34.2642C195.556 34.2642 195.949 34.3305 196.336 34.4631C196.724 34.5956 197.077 34.8111 197.395 35.1094C197.714 35.4044 197.967 35.7955 198.156 36.2827C198.345 36.7699 198.439 37.3698 198.439 38.0824V38.5795H192.553V37.5653H197.246C197.246 37.1345 197.16 36.75 196.988 36.4119C196.819 36.0739 196.577 35.8071 196.262 35.6115C195.95 35.416 195.582 35.3182 195.158 35.3182C194.691 35.3182 194.287 35.4342 193.945 35.6662C193.607 35.8949 193.347 36.1932 193.165 36.5611C192.982 36.929 192.891 37.3234 192.891 37.7443V38.4205C192.891 38.9972 192.991 39.486 193.189 39.8871C193.392 40.2848 193.672 40.5881 194.03 40.7969C194.388 41.0024 194.804 41.1051 195.278 41.1051C195.586 41.1051 195.864 41.062 196.113 40.9759C196.365 40.8864 196.582 40.7538 196.764 40.5781C196.946 40.3991 197.087 40.1771 197.187 39.9119L198.32 40.2301C198.201 40.6146 198 40.9527 197.719 41.2443C197.437 41.5327 197.089 41.758 196.675 41.9205C196.26 42.0795 195.795 42.1591 195.278 42.1591ZM205.633 36.0739L204.579 36.3722C204.513 36.1965 204.415 36.0258 204.286 35.8601C204.16 35.6911 203.988 35.5518 203.769 35.4425C203.55 35.3331 203.27 35.2784 202.929 35.2784C202.461 35.2784 202.072 35.3861 201.76 35.6016C201.452 35.8137 201.298 36.0838 201.298 36.4119C201.298 36.7036 201.404 36.9339 201.616 37.103C201.828 37.272 202.16 37.4129 202.611 37.5256L203.744 37.804C204.427 37.9697 204.936 38.2232 205.27 38.5646C205.605 38.9027 205.773 39.3385 205.773 39.8722C205.773 40.3097 205.647 40.7008 205.395 41.0455C205.146 41.3902 204.798 41.6619 204.351 41.8608C203.903 42.0597 203.383 42.1591 202.79 42.1591C202.011 42.1591 201.366 41.9901 200.856 41.652C200.345 41.3139 200.022 40.8201 199.886 40.1705L201 39.892C201.106 40.303 201.306 40.6113 201.601 40.8168C201.9 41.0223 202.289 41.125 202.77 41.125C203.317 41.125 203.751 41.009 204.072 40.777C204.397 40.5417 204.559 40.2599 204.559 39.9318C204.559 39.6667 204.467 39.4446 204.281 39.2656C204.095 39.0833 203.81 38.9474 203.426 38.858L202.153 38.5597C201.454 38.3939 200.94 38.1371 200.612 37.7891C200.287 37.4377 200.125 36.9986 200.125 36.4716C200.125 36.0407 200.246 35.6596 200.488 35.3281C200.733 34.9967 201.066 34.7365 201.487 34.5476C201.911 34.3587 202.392 34.2642 202.929 34.2642C203.684 34.2642 204.278 34.4299 204.709 34.7614C205.143 35.0928 205.451 35.5303 205.633 36.0739ZM86.483 57.0739L85.429 57.3722C85.3627 57.1965 85.2649 57.0258 85.1357 56.8601C85.0097 56.6911 84.8374 56.5518 84.6186 56.4425C84.3999 56.3331 84.1198 56.2784 83.7784 56.2784C83.3111 56.2784 82.9216 56.3861 82.6101 56.6016C82.3018 56.8137 82.1477 57.0838 82.1477 57.4119C82.1477 57.7036 82.2538 57.9339 82.4659 58.103C82.678 58.272 83.0095 58.4129 83.4602 58.5256L84.5938 58.804C85.2765 58.9697 85.7853 59.2232 86.12 59.5646C86.4548 59.9027 86.6222 60.3385 86.6222 60.8722C86.6222 61.3097 86.4962 61.7008 86.2443 62.0455C85.9957 62.3902 85.6477 62.6619 85.2003 62.8608C84.7528 63.0597 84.2325 63.1591 83.6392 63.1591C82.8603 63.1591 82.2157 62.9901 81.7053 62.652C81.1948 62.3139 80.8717 61.8201 80.7358 61.1705L81.8494 60.892C81.9555 61.303 82.156 61.6113 82.451 61.8168C82.7493 62.0223 83.1387 62.125 83.6193 62.125C84.1662 62.125 84.6004 62.009 84.9219 61.777C85.2467 61.5417 85.4091 61.2599 85.4091 60.9318C85.4091 60.6667 85.3163 60.4446 85.1307 60.2656C84.9451 60.0833 84.66 59.9474 84.2756 59.858L83.0028 59.5597C82.3035 59.3939 81.7898 59.1371 81.4616 58.7891C81.1368 58.4377 80.9744 57.9986 80.9744 57.4716C80.9744 57.0407 81.0954 56.6596 81.3374 56.3281C81.5826 55.9967 81.9157 55.7365 82.3366 55.5476C82.7609 55.3587 83.2415 55.2642 83.7784 55.2642C84.5341 55.2642 85.1274 55.4299 85.5582 55.7614C85.9924 56.0928 86.3007 56.5303 86.483 57.0739ZM91.4906 63.1591C90.8012 63.1591 90.1963 62.995 89.676 62.6669C89.1589 62.3388 88.7546 61.8797 88.4629 61.2898C88.1745 60.6998 88.0304 60.0104 88.0304 59.2216C88.0304 58.4261 88.1745 57.7318 88.4629 57.1385C88.7546 56.5452 89.1589 56.0845 89.676 55.7564C90.1963 55.4283 90.8012 55.2642 91.4906 55.2642C92.18 55.2642 92.7832 55.4283 93.3002 55.7564C93.8206 56.0845 94.225 56.5452 94.5133 57.1385C94.805 57.7318 94.9508 58.4261 94.9508 59.2216C94.9508 60.0104 94.805 60.6998 94.5133 61.2898C94.225 61.8797 93.8206 62.3388 93.3002 62.6669C92.7832 62.995 92.18 63.1591 91.4906 63.1591ZM91.4906 62.1051C92.0143 62.1051 92.4451 61.9709 92.7832 61.7024C93.1213 61.4339 93.3715 61.081 93.5339 60.6435C93.6963 60.206 93.7775 59.732 93.7775 59.2216C93.7775 58.7112 93.6963 58.2356 93.5339 57.7947C93.3715 57.3539 93.1213 56.9976 92.7832 56.7259C92.4451 56.4541 92.0143 56.3182 91.4906 56.3182C90.9669 56.3182 90.536 56.4541 90.198 56.7259C89.8599 56.9976 89.6097 57.3539 89.4473 57.7947C89.2849 58.2356 89.2037 58.7112 89.2037 59.2216C89.2037 59.732 89.2849 60.206 89.4473 60.6435C89.6097 61.081 89.8599 61.4339 90.198 61.7024C90.536 61.9709 90.9669 62.1051 91.4906 62.1051ZM97.9151 52.8182V63H96.7418V52.8182H97.9151ZM102.948 63.1591C102.311 63.1591 101.749 62.9983 101.262 62.6768C100.775 62.352 100.394 61.8946 100.119 61.3047C99.8437 60.7114 99.7061 60.0104 99.7061 59.2017C99.7061 58.3996 99.8437 57.7036 100.119 57.1136C100.394 56.5237 100.777 56.0679 101.267 55.7464C101.758 55.425 102.325 55.2642 102.968 55.2642C103.465 55.2642 103.857 55.3471 104.146 55.5128C104.437 55.6752 104.66 55.8608 104.812 56.0696C104.968 56.2751 105.089 56.4441 105.175 56.5767H105.274V52.8182H106.448V63H105.314V61.8267H105.175C105.089 61.9659 104.966 62.1416 104.807 62.3537C104.648 62.5625 104.421 62.7498 104.126 62.9155C103.831 63.0779 103.438 63.1591 102.948 63.1591ZM103.107 62.1051C103.577 62.1051 103.975 61.9825 104.3 61.7372C104.625 61.4886 104.872 61.1456 105.041 60.7081C105.21 60.2673 105.294 59.7585 105.294 59.1818C105.294 58.6117 105.211 58.1129 105.046 57.6854C104.88 57.2545 104.635 56.9197 104.31 56.6811C103.985 56.4392 103.584 56.3182 103.107 56.3182C102.61 56.3182 102.195 56.4458 101.864 56.701C101.536 56.9529 101.289 57.2959 101.123 57.7301C100.961 58.161 100.879 58.6449 100.879 59.1818C100.879 59.7254 100.962 60.2192 101.128 60.6634C101.297 61.1042 101.546 61.4555 101.874 61.7173C102.205 61.9759 102.616 62.1051 103.107 62.1051Z" fill="#64748B"/>
<path d="M87.2088 81.4545V96H84.5739V84.0185H84.4886L81.0866 86.1918V83.777L84.7017 81.4545H87.2088ZM96.2784 96.277C95.1089 96.277 94.1051 95.9811 93.267 95.3892C92.4337 94.7926 91.7921 93.9332 91.3423 92.8111C90.8973 91.6842 90.6747 90.3277 90.6747 88.7415C90.6795 87.1553 90.9044 85.8059 91.3494 84.6932C91.7992 83.5758 92.4408 82.7235 93.2741 82.1364C94.1122 81.5492 95.1136 81.2557 96.2784 81.2557C97.4432 81.2557 98.4446 81.5492 99.2827 82.1364C100.121 82.7235 100.762 83.5758 101.207 84.6932C101.657 85.8106 101.882 87.16 101.882 88.7415C101.882 90.3324 101.657 91.6913 101.207 92.8182C100.762 93.9403 100.121 94.7973 99.2827 95.3892C98.4493 95.9811 97.4479 96.277 96.2784 96.277ZM96.2784 94.054C97.1875 94.054 97.9048 93.6065 98.4304 92.7116C98.9607 91.812 99.2259 90.4886 99.2259 88.7415C99.2259 87.5862 99.1051 86.6155 98.8636 85.8295C98.6222 85.0436 98.2813 84.4517 97.8409 84.054C97.4006 83.6515 96.8797 83.4503 96.2784 83.4503C95.3741 83.4503 94.6591 83.9001 94.1335 84.7997C93.608 85.6946 93.3428 87.0085 93.3381 88.7415C93.3333 89.9015 93.4493 90.8769 93.6861 91.6676C93.9276 92.4583 94.2685 93.0549 94.7088 93.4574C95.1491 93.8551 95.6723 94.054 96.2784 94.054ZM109.618 96.277C108.449 96.277 107.445 95.9811 106.607 95.3892C105.774 94.7926 105.132 93.9332 104.682 92.8111C104.237 91.6842 104.015 90.3277 104.015 88.7415C104.019 87.1553 104.244 85.8059 104.689 84.6932C105.139 83.5758 105.781 82.7235 106.614 82.1364C107.452 81.5492 108.453 81.2557 109.618 81.2557C110.783 81.2557 111.784 81.5492 112.623 82.1364C113.461 82.7235 114.102 83.5758 114.547 84.6932C114.997 85.8106 115.222 87.16 115.222 88.7415C115.222 90.3324 114.997 91.6913 114.547 92.8182C114.102 93.9403 113.461 94.7973 112.623 95.3892C111.789 95.9811 110.788 96.277 109.618 96.277ZM109.618 94.054C110.527 94.054 111.245 93.6065 111.77 92.7116C112.301 91.812 112.566 90.4886 112.566 88.7415C112.566 87.5862 112.445 86.6155 112.203 85.8295C111.962 85.0436 111.621 84.4517 111.181 84.054C110.74 83.6515 110.22 83.4503 109.618 83.4503C108.714 83.4503 107.999 83.9001 107.473 84.7997C106.948 85.6946 106.683 87.0085 106.678 88.7415C106.673 89.9015 106.789 90.8769 107.026 91.6676C107.267 92.4583 107.608 93.0549 108.049 93.4574C108.489 93.8551 109.012 94.054 109.618 94.054ZM120.062 94.0114L119.97 94.7926C119.904 95.3892 119.785 95.9953 119.615 96.6108C119.449 97.2311 119.274 97.8016 119.089 98.3224C118.904 98.8433 118.755 99.2528 118.642 99.5511H116.909C116.975 99.2623 117.065 98.8693 117.179 98.3722C117.297 97.875 117.411 97.3163 117.52 96.696C117.628 96.0758 117.702 95.446 117.74 94.8068L117.789 94.0114H120.062ZM127.724 96.277C126.554 96.277 125.55 95.9811 124.712 95.3892C123.879 94.7926 123.237 93.9332 122.788 92.8111C122.343 91.6842 122.12 90.3277 122.12 88.7415C122.125 87.1553 122.35 85.8059 122.795 84.6932C123.245 83.5758 123.886 82.7235 124.719 82.1364C125.558 81.5492 126.559 81.2557 127.724 81.2557C128.888 81.2557 129.89 81.5492 130.728 82.1364C131.566 82.7235 132.208 83.5758 132.653 84.6932C133.103 85.8106 133.327 87.16 133.327 88.7415C133.327 90.3324 133.103 91.6913 132.653 92.8182C132.208 93.9403 131.566 94.7973 130.728 95.3892C129.895 95.9811 128.893 96.277 127.724 96.277ZM127.724 94.054C128.633 94.054 129.35 93.6065 129.876 92.7116C130.406 91.812 130.671 90.4886 130.671 88.7415C130.671 87.5862 130.55 86.6155 130.309 85.8295C130.067 85.0436 129.727 84.4517 129.286 84.054C128.846 83.6515 128.325 83.4503 127.724 83.4503C126.819 83.4503 126.104 83.9001 125.579 84.7997C125.053 85.6946 124.788 87.0085 124.783 88.7415C124.779 89.9015 124.895 90.8769 125.131 91.6676C125.373 92.4583 125.714 93.0549 126.154 93.4574C126.594 93.8551 127.118 94.054 127.724 94.054ZM141.064 96.277C139.894 96.277 138.89 95.9811 138.052 95.3892C137.219 94.7926 136.577 93.9332 136.127 92.8111C135.682 91.6842 135.46 90.3277 135.46 88.7415C135.465 87.1553 135.69 85.8059 136.135 84.6932C136.584 83.5758 137.226 82.7235 138.059 82.1364C138.897 81.5492 139.899 81.2557 141.064 81.2557C142.228 81.2557 143.23 81.5492 144.068 82.1364C144.906 82.7235 145.547 83.5758 145.993 84.6932C146.442 85.8106 146.667 87.16 146.667 88.7415C146.667 90.3324 146.442 91.6913 145.993 92.8182C145.547 93.9403 144.906 94.7973 144.068 95.3892C143.234 95.9811 142.233 96.277 141.064 96.277ZM141.064 94.054C141.973 94.054 142.69 93.6065 143.216 92.7116C143.746 91.812 144.011 90.4886 144.011 88.7415C144.011 87.5862 143.89 86.6155 143.649 85.8295C143.407 85.0436 143.066 84.4517 142.626 84.054C142.186 83.6515 141.665 83.4503 141.064 83.4503C140.159 83.4503 139.444 83.9001 138.919 84.7997C138.393 85.6946 138.128 87.0085 138.123 88.7415C138.118 89.9015 138.234 90.8769 138.471 91.6676C138.713 92.4583 139.054 93.0549 139.494 93.4574C139.934 93.8551 140.458 94.054 141.064 94.054ZM154.403 96.277C153.234 96.277 152.23 95.9811 151.392 95.3892C150.559 94.7926 149.917 93.9332 149.467 92.8111C149.022 91.6842 148.8 90.3277 148.8 88.7415C148.804 87.1553 149.029 85.8059 149.474 84.6932C149.924 83.5758 150.566 82.7235 151.399 82.1364C152.237 81.5492 153.239 81.2557 154.403 81.2557C155.568 81.2557 156.57 81.5492 157.408 82.1364C158.246 82.7235 158.887 83.5758 159.332 84.6932C159.782 85.8106 160.007 87.16 160.007 88.7415C160.007 90.3324 159.782 91.6913 159.332 92.8182C158.887 93.9403 158.246 94.7973 157.408 95.3892C156.574 95.9811 155.573 96.277 154.403 96.277ZM154.403 94.054C155.313 94.054 156.03 93.6065 156.555 92.7116C157.086 91.812 157.351 90.4886 157.351 88.7415C157.351 87.5862 157.23 86.6155 156.989 85.8295C156.747 85.0436 156.406 84.4517 155.966 84.054C155.526 83.6515 155.005 83.4503 154.403 83.4503C153.499 83.4503 152.784 83.9001 152.259 84.7997C151.733 85.6946 151.468 87.0085 151.463 88.7415C151.458 89.9015 151.574 90.8769 151.811 91.6676C152.053 92.4583 152.393 93.0549 152.834 93.4574C153.274 93.8551 153.797 94.054 154.403 94.054ZM166.685 93.6705V83.8409H168.915V93.6705H166.685ZM162.885 89.8707V87.6406H172.715V89.8707H162.885Z" fill="black"/>
</g>
<defs>
<filter id="filter0_d_950_6962" x="0" y="0" width="252" height="137" filterUnits="userSpaceOnUse" color-interpolation-filters="sRGB">
<feFlood flood-opacity="0" result="BackgroundImageFix"/>
<feColorMatrix in="SourceAlpha" type="matrix" values="0 0 0 0 0 0 0 0 0 0 0 0 0 0 0 0 0 0 127 0" result="hardAlpha"/>
<feOffset/>
<feGaussianBlur stdDeviation="4"/>
<feComposite in2="hardAlpha" operator="out"/>
<feColorMatrix type="matrix" values="0 0 0 0 0.231373 0 0 0 0 0.509804 0 0 0 0 0.964706 0 0 0 0.12 0"/>
<feBlend mode="normal" in2="BackgroundImageFix" result="effect1_dropShadow_950_6962"/>
<feBlend mode="normal" in="SourceGraphic" in2="effect1_dropShadow_950_6962" result="shape"/>
</filter>
</defs>
</svg>
