<svg width="203" height="162" viewBox="0 0 203 162" fill="none" xmlns="http://www.w3.org/2000/svg">
<g filter="url(#filter0_d_950_6968)">
<rect x="8.5" y="8" width="186" height="146" rx="8" fill="white"/>
<rect x="9" y="8.5" width="185" height="145" rx="7.5" stroke="#E2E8F0"/>
<path d="M81.3168 90.179C80.3665 90.179 79.5227 90.0192 78.7855 89.6996C78.0526 89.38 77.4773 88.9432 77.0597 88.3892C76.6463 87.831 76.4418 87.1982 76.446 86.4908C76.4418 85.9411 76.5611 85.4361 76.804 84.9759C77.0469 84.5156 77.375 84.1321 77.7884 83.8253C78.206 83.5142 78.6705 83.3161 79.1818 83.2308V83.1413C78.5085 82.9922 77.9631 82.6491 77.5455 82.1122C77.1321 81.571 76.9276 80.9467 76.9318 80.2393C76.9276 79.5661 77.1151 78.9652 77.4943 78.4368C77.8736 77.9084 78.3935 77.4929 79.054 77.1903C79.7145 76.8835 80.4688 76.7301 81.3168 76.7301C82.1563 76.7301 82.9041 76.8835 83.5604 77.1903C84.2209 77.4929 84.7408 77.9084 85.12 78.4368C85.5036 78.9652 85.6953 79.5661 85.6953 80.2393C85.6953 80.9467 85.4844 81.571 85.0625 82.1122C84.6449 82.6491 84.1058 82.9922 83.4453 83.1413V83.2308C83.9567 83.3161 84.4169 83.5142 84.826 83.8253C85.2393 84.1321 85.5675 84.5156 85.8104 84.9759C86.0575 85.4361 86.1811 85.9411 86.1811 86.4908C86.1811 87.1982 85.9723 87.831 85.5547 88.3892C85.1371 88.9432 84.5618 89.38 83.8288 89.6996C83.1001 90.0192 82.2628 90.179 81.3168 90.179ZM81.3168 88.3509C81.8068 88.3509 82.233 88.2678 82.5952 88.1016C82.9574 87.9311 83.2386 87.6925 83.4389 87.3857C83.6392 87.0788 83.7415 86.7251 83.7457 86.3246C83.7415 85.907 83.6328 85.5384 83.4197 85.2188C83.2109 84.8949 82.9233 84.6413 82.5568 84.4581C82.1946 84.2749 81.7813 84.1832 81.3168 84.1832C80.848 84.1832 80.4304 84.2749 80.0639 84.4581C79.6974 84.6413 79.4077 84.8949 79.1946 85.2188C78.9858 85.5384 78.8835 85.907 78.8878 86.3246C78.8835 86.7251 78.9815 87.0788 79.1818 87.3857C79.3821 87.6882 79.6634 87.9247 80.0256 88.0952C80.392 88.2656 80.8224 88.3509 81.3168 88.3509ZM81.3168 82.3871C81.7173 82.3871 82.071 82.3061 82.3778 82.1442C82.6889 81.9822 82.9339 81.7564 83.1129 81.4666C83.2919 81.1768 83.3835 80.8423 83.3878 80.4631C83.3835 80.0881 83.294 79.7599 83.1193 79.4787C82.9446 79.1932 82.7017 78.9737 82.3906 78.8203C82.0795 78.6626 81.7216 78.5838 81.3168 78.5838C80.9034 78.5838 80.5391 78.6626 80.2237 78.8203C79.9126 78.9737 79.6697 79.1932 79.495 79.4787C79.3246 79.7599 79.2415 80.0881 79.2457 80.4631C79.2415 80.8423 79.3267 81.1768 79.5014 81.4666C79.6804 81.7521 79.9254 81.978 80.2365 82.1442C80.5518 82.3061 80.9119 82.3871 81.3168 82.3871ZM88.7619 90L94.3294 78.9801V78.8906H87.867V76.9091H96.7839V78.9354L91.2228 90H88.7619ZM98.0479 90.1406C97.6602 90.1406 97.3278 90.0043 97.0508 89.7315C96.7738 89.4588 96.6374 89.1264 96.6417 88.7344C96.6374 88.3509 96.7738 88.0227 97.0508 87.75C97.3278 87.4773 97.6602 87.3409 98.0479 87.3409C98.4229 87.3409 98.7489 87.4773 99.0259 87.75C99.3072 88.0227 99.4499 88.3509 99.4542 88.7344C99.4499 88.9943 99.3817 89.2308 99.2496 89.4439C99.1218 89.657 98.9513 89.8274 98.7383 89.9553C98.5295 90.0788 98.2994 90.1406 98.0479 90.1406ZM106.102 90.179C105.475 90.1747 104.864 90.0661 104.267 89.853C103.671 89.6357 103.134 89.2841 102.657 88.7983C102.179 88.3082 101.8 87.6584 101.519 86.8487C101.238 86.0348 101.099 85.027 101.103 83.8253C101.103 82.7045 101.223 81.7053 101.461 80.8274C101.7 79.9496 102.043 79.2081 102.49 78.603C102.938 77.9936 103.477 77.5291 104.108 77.2095C104.743 76.8899 105.452 76.7301 106.236 76.7301C107.059 76.7301 107.787 76.892 108.422 77.2159C109.061 77.5398 109.577 77.983 109.969 78.5455C110.361 79.1037 110.604 79.7344 110.698 80.4375H108.365C108.245 79.9347 108 79.5341 107.63 79.2358C107.263 78.9332 106.799 78.782 106.236 78.782C105.328 78.782 104.63 79.1761 104.14 79.9645C103.654 80.7528 103.409 81.8352 103.404 83.2116H103.494C103.703 82.8366 103.973 82.5149 104.306 82.2464C104.638 81.978 105.013 81.7713 105.431 81.6264C105.853 81.4773 106.298 81.4027 106.767 81.4027C107.534 81.4027 108.222 81.5859 108.831 81.9524C109.445 82.3189 109.931 82.8239 110.289 83.4673C110.647 84.1065 110.824 84.8395 110.819 85.6662C110.824 86.527 110.627 87.3004 110.231 87.9865C109.835 88.6683 109.283 89.2053 108.576 89.5973C107.868 89.9893 107.044 90.1832 106.102 90.179ZM106.089 88.2614C106.554 88.2614 106.969 88.1484 107.336 87.9226C107.702 87.6967 107.992 87.392 108.205 87.0085C108.418 86.625 108.522 86.1946 108.518 85.7173C108.522 85.2486 108.42 84.8246 108.211 84.4453C108.007 84.0661 107.723 83.7656 107.361 83.544C106.999 83.3224 106.586 83.2116 106.121 83.2116C105.776 83.2116 105.454 83.2777 105.156 83.4098C104.858 83.5419 104.598 83.7251 104.376 83.9595C104.154 84.1896 103.98 84.4581 103.852 84.7649C103.728 85.0675 103.664 85.3913 103.66 85.7365C103.664 86.1925 103.771 86.6122 103.98 86.9957C104.189 87.3793 104.476 87.6861 104.843 87.9162C105.209 88.1463 105.625 88.2614 106.089 88.2614ZM119.979 87.5455V86.8551C119.979 86.348 120.086 85.8814 120.299 85.4553C120.516 85.0291 120.831 84.6861 121.245 84.4261C121.658 84.1662 122.159 84.0362 122.747 84.0362C123.352 84.0362 123.859 84.1662 124.268 84.4261C124.677 84.6818 124.986 85.0227 125.195 85.4489C125.408 85.875 125.515 86.3437 125.515 86.8551V87.5455C125.515 88.0526 125.408 88.5192 125.195 88.9453C124.982 89.3714 124.669 89.7145 124.255 89.9744C123.846 90.2344 123.343 90.3643 122.747 90.3643C122.15 90.3643 121.645 90.2344 121.232 89.9744C120.819 89.7145 120.505 89.3714 120.292 88.9453C120.083 88.5192 119.979 88.0526 119.979 87.5455ZM121.647 86.8551V87.5455C121.647 87.8821 121.728 88.1911 121.89 88.4723C122.052 88.7536 122.338 88.8942 122.747 88.8942C123.16 88.8942 123.444 88.7557 123.597 88.4787C123.755 88.1974 123.833 87.8864 123.833 87.5455V86.8551C123.833 86.5142 123.759 86.2031 123.61 85.9219C123.461 85.6364 123.173 85.4936 122.747 85.4936C122.346 85.4936 122.063 85.6364 121.897 85.9219C121.73 86.2031 121.647 86.5142 121.647 86.8551ZM113.325 80.054V79.3636C113.325 78.8523 113.434 78.3835 113.651 77.9574C113.868 77.5312 114.184 77.1903 114.597 76.9347C115.01 76.6747 115.511 76.5447 116.099 76.5447C116.7 76.5447 117.205 76.6747 117.614 76.9347C118.027 77.1903 118.338 77.5312 118.547 77.9574C118.756 78.3835 118.86 78.8523 118.86 79.3636V80.054C118.86 80.5653 118.754 81.0341 118.541 81.4602C118.332 81.8821 118.021 82.2209 117.608 82.4766C117.194 82.7322 116.691 82.8601 116.099 82.8601C115.498 82.8601 114.991 82.7322 114.578 82.4766C114.169 82.2209 113.858 81.88 113.645 81.4538C113.431 81.0277 113.325 80.5611 113.325 80.054ZM115.006 79.3636V80.054C115.006 80.3949 115.085 80.706 115.243 80.9872C115.404 81.2642 115.69 81.4027 116.099 81.4027C116.508 81.4027 116.789 81.2642 116.943 80.9872C117.1 80.706 117.179 80.3949 117.179 80.054V79.3636C117.179 79.0227 117.105 78.7116 116.956 78.4304C116.806 78.1449 116.521 78.0021 116.099 78.0021C115.694 78.0021 115.411 78.1449 115.249 78.4304C115.087 78.7159 115.006 79.027 115.006 79.3636ZM114.054 90L123.054 76.9091H124.652L115.652 90H114.054Z" fill="black"/>
<path d="M36.017 106H34.784C34.7111 105.645 34.5835 105.334 34.4012 105.065C34.2222 104.797 34.0035 104.571 33.7449 104.389C33.4897 104.204 33.2064 104.064 32.8948 103.972C32.5832 103.879 32.2584 103.832 31.9204 103.832C31.3039 103.832 30.7454 103.988 30.2449 104.3C29.7478 104.611 29.3517 105.07 29.0567 105.677C28.7651 106.283 28.6192 107.027 28.6192 107.909C28.6192 108.791 28.7651 109.535 29.0567 110.141C29.3517 110.748 29.7478 111.207 30.2449 111.518C30.7454 111.83 31.3039 111.986 31.9204 111.986C32.2584 111.986 32.5832 111.939 32.8948 111.847C33.2064 111.754 33.4897 111.616 33.7449 111.434C34.0035 111.248 34.2222 111.021 34.4012 110.753C34.5835 110.481 34.7111 110.17 34.784 109.818H36.017C35.9242 110.339 35.7551 110.804 35.5099 111.215C35.2646 111.626 34.9597 111.976 34.5951 112.264C34.2305 112.549 33.8212 112.766 33.3671 112.915C32.9163 113.065 32.4341 113.139 31.9204 113.139C31.052 113.139 30.2797 112.927 29.6036 112.503C28.9275 112.079 28.3955 111.475 28.0077 110.693C27.6199 109.911 27.426 108.983 27.426 107.909C27.426 106.835 27.6199 105.907 28.0077 105.125C28.3955 104.343 28.9275 103.74 29.6036 103.315C30.2797 102.891 31.052 102.679 31.9204 102.679C32.4341 102.679 32.9163 102.754 33.3671 102.903C33.8212 103.052 34.2305 103.271 34.5951 103.559C34.9597 103.844 35.2646 104.192 35.5099 104.603C35.7551 105.011 35.9242 105.476 36.017 106ZM40.9525 113.159C40.2631 113.159 39.6582 112.995 39.1379 112.667C38.6208 112.339 38.2165 111.88 37.9248 111.29C37.6365 110.7 37.4923 110.01 37.4923 109.222C37.4923 108.426 37.6365 107.732 37.9248 107.138C38.2165 106.545 38.6208 106.085 39.1379 105.756C39.6582 105.428 40.2631 105.264 40.9525 105.264C41.6419 105.264 42.2451 105.428 42.7622 105.756C43.2825 106.085 43.6869 106.545 43.9752 107.138C44.2669 107.732 44.4127 108.426 44.4127 109.222C44.4127 110.01 44.2669 110.7 43.9752 111.29C43.6869 111.88 43.2825 112.339 42.7622 112.667C42.2451 112.995 41.6419 113.159 40.9525 113.159ZM40.9525 112.105C41.4762 112.105 41.907 111.971 42.2451 111.702C42.5832 111.434 42.8334 111.081 42.9958 110.643C43.1582 110.206 43.2394 109.732 43.2394 109.222C43.2394 108.711 43.1582 108.236 42.9958 107.795C42.8334 107.354 42.5832 106.998 42.2451 106.726C41.907 106.454 41.4762 106.318 40.9525 106.318C40.4288 106.318 39.998 106.454 39.6599 106.726C39.3218 106.998 39.0716 107.354 38.9092 107.795C38.7468 108.236 38.6656 108.711 38.6656 109.222C38.6656 109.732 38.7468 110.206 38.9092 110.643C39.0716 111.081 39.3218 111.434 39.6599 111.702C39.998 111.971 40.4288 112.105 40.9525 112.105ZM46.2037 113V105.364H47.3373V106.557H47.4367C47.5958 106.149 47.8527 105.833 48.2073 105.607C48.5619 105.379 48.9878 105.264 49.485 105.264C49.9888 105.264 50.4081 105.379 50.7428 105.607C51.0809 105.833 51.3444 106.149 51.5333 106.557H51.6128C51.8084 106.162 52.1017 105.849 52.4928 105.617C52.8839 105.382 53.3529 105.264 53.8998 105.264C54.5825 105.264 55.141 105.478 55.5752 105.906C56.0094 106.33 56.2265 106.991 56.2265 107.889V113H55.0532V107.889C55.0532 107.326 54.8991 106.923 54.5908 106.681C54.2826 106.439 53.9197 106.318 53.502 106.318C52.9651 106.318 52.5492 106.481 52.2542 106.805C51.9592 107.127 51.8117 107.535 51.8117 108.028V113H50.6185V107.77C50.6185 107.336 50.4777 106.986 50.1959 106.721C49.9142 106.452 49.5513 106.318 49.1072 106.318C48.8022 106.318 48.5172 106.399 48.252 106.562C47.9902 106.724 47.7781 106.95 47.6157 107.238C47.4566 107.523 47.377 107.853 47.377 108.227V113H46.2037ZM58.3717 115.864V105.364H59.5052V106.577H59.6444C59.7306 106.444 59.8499 106.275 60.0024 106.07C60.1582 105.861 60.3802 105.675 60.6686 105.513C60.9603 105.347 61.3547 105.264 61.8518 105.264C62.4948 105.264 63.0616 105.425 63.5521 105.746C64.0426 106.068 64.4255 106.524 64.7006 107.114C64.9756 107.704 65.1132 108.4 65.1132 109.202C65.1132 110.01 64.9756 110.711 64.7006 111.305C64.4255 111.895 64.0443 112.352 63.5571 112.677C63.0699 112.998 62.5081 113.159 61.8717 113.159C61.3812 113.159 60.9884 113.078 60.6934 112.915C60.3985 112.75 60.1714 112.562 60.0123 112.354C59.8532 112.142 59.7306 111.966 59.6444 111.827H59.545V115.864H58.3717ZM59.5251 109.182C59.5251 109.759 59.6096 110.267 59.7787 110.708C59.9477 111.146 60.1946 111.489 60.5194 111.737C60.8443 111.982 61.242 112.105 61.7126 112.105C62.2032 112.105 62.6125 111.976 62.9406 111.717C63.272 111.455 63.5206 111.104 63.6863 110.663C63.8554 110.219 63.9399 109.725 63.9399 109.182C63.9399 108.645 63.857 108.161 63.6913 107.73C63.5289 107.296 63.282 106.953 62.9506 106.701C62.6224 106.446 62.2098 106.318 61.7126 106.318C61.2354 106.318 60.8343 106.439 60.5095 106.681C60.1847 106.92 59.9394 107.254 59.7737 107.685C59.608 108.113 59.5251 108.612 59.5251 109.182ZM68.0763 102.818V113H66.903V102.818H68.0763ZM73.4269 113.159C72.6911 113.159 72.0564 112.997 71.5228 112.672C70.9925 112.344 70.5832 111.886 70.2948 111.3C70.0098 110.71 69.8673 110.024 69.8673 109.241C69.8673 108.459 70.0098 107.77 70.2948 107.173C70.5832 106.573 70.9842 106.106 71.498 105.771C72.015 105.433 72.6182 105.264 73.3076 105.264C73.7053 105.264 74.0981 105.33 74.4859 105.463C74.8737 105.596 75.2267 105.811 75.5448 106.109C75.863 106.404 76.1166 106.795 76.3055 107.283C76.4944 107.77 76.5889 108.37 76.5889 109.082V109.58H70.7025V108.565H75.3957C75.3957 108.134 75.3095 107.75 75.1372 107.412C74.9681 107.074 74.7262 106.807 74.4113 106.612C74.0998 106.416 73.7319 106.318 73.3076 106.318C72.8403 106.318 72.4359 106.434 72.0945 106.666C71.7565 106.895 71.4963 107.193 71.314 107.561C71.1317 107.929 71.0406 108.323 71.0406 108.744V109.42C71.0406 109.997 71.14 110.486 71.3389 110.887C71.541 111.285 71.8211 111.588 72.1791 111.797C72.537 112.002 72.953 112.105 73.4269 112.105C73.7352 112.105 74.0136 112.062 74.2622 111.976C74.5141 111.886 74.7311 111.754 74.9134 111.578C75.0957 111.399 75.2366 111.177 75.336 110.912L76.4695 111.23C76.3502 111.615 76.1497 111.953 75.868 112.244C75.5863 112.533 75.2383 112.758 74.824 112.92C74.4097 113.08 73.944 113.159 73.4269 113.159ZM81.6947 105.364V106.358H77.7373V105.364H81.6947ZM78.8907 103.534H80.064V110.812C80.064 111.144 80.1121 111.393 80.2082 111.558C80.3076 111.721 80.4336 111.83 80.586 111.886C80.7418 111.939 80.9059 111.966 81.0782 111.966C81.2075 111.966 81.3135 111.959 81.3964 111.946C81.4793 111.929 81.5455 111.916 81.5953 111.906L81.8339 112.96C81.7544 112.99 81.6433 113.02 81.5008 113.05C81.3583 113.083 81.1776 113.099 80.9589 113.099C80.6275 113.099 80.3026 113.028 79.9845 112.886C79.6696 112.743 79.4078 112.526 79.199 112.234C78.9935 111.943 78.8907 111.575 78.8907 111.131V103.534ZM83.4596 113V105.364H84.6329V113H83.4596ZM84.0562 104.091C83.8275 104.091 83.6303 104.013 83.4646 103.857C83.3022 103.701 83.221 103.514 83.221 103.295C83.221 103.077 83.3022 102.889 83.4646 102.734C83.6303 102.578 83.8275 102.5 84.0562 102.5C84.2849 102.5 84.4804 102.578 84.6428 102.734C84.8086 102.889 84.8914 103.077 84.8914 103.295C84.8914 103.514 84.8086 103.701 84.6428 103.857C84.4804 104.013 84.2849 104.091 84.0562 104.091ZM89.8841 113.159C89.1948 113.159 88.5899 112.995 88.0695 112.667C87.5525 112.339 87.1481 111.88 86.8564 111.29C86.5681 110.7 86.4239 110.01 86.4239 109.222C86.4239 108.426 86.5681 107.732 86.8564 107.138C87.1481 106.545 87.5525 106.085 88.0695 105.756C88.5899 105.428 89.1948 105.264 89.8841 105.264C90.5735 105.264 91.1768 105.428 91.6938 105.756C92.2142 106.085 92.6185 106.545 92.9069 107.138C93.1985 107.732 93.3444 108.426 93.3444 109.222C93.3444 110.01 93.1985 110.7 92.9069 111.29C92.6185 111.88 92.2142 112.339 91.6938 112.667C91.1768 112.995 90.5735 113.159 89.8841 113.159ZM89.8841 112.105C90.4078 112.105 90.8387 111.971 91.1768 111.702C91.5148 111.434 91.7651 111.081 91.9275 110.643C92.0899 110.206 92.1711 109.732 92.1711 109.222C92.1711 108.711 92.0899 108.236 91.9275 107.795C91.7651 107.354 91.5148 106.998 91.1768 106.726C90.8387 106.454 90.4078 106.318 89.8841 106.318C89.3605 106.318 88.9296 106.454 88.5915 106.726C88.2535 106.998 88.0032 107.354 87.8408 107.795C87.6784 108.236 87.5972 108.711 87.5972 109.222C87.5972 109.732 87.6784 110.206 87.8408 110.643C88.0032 111.081 88.2535 111.434 88.5915 111.702C88.9296 111.971 89.3605 112.105 89.8841 112.105ZM96.3087 108.406V113H95.1354V105.364H96.2689V106.557H96.3683C96.5473 106.169 96.8191 105.857 97.1837 105.622C97.5483 105.384 98.0189 105.264 98.5956 105.264C99.1127 105.264 99.5651 105.37 99.9529 105.582C100.341 105.791 100.642 106.109 100.858 106.537C101.073 106.961 101.181 107.498 101.181 108.148V113H100.008V108.227C100.008 107.627 99.8518 107.16 99.5402 106.825C99.2287 106.487 98.8011 106.318 98.2575 106.318C97.883 106.318 97.5483 106.399 97.2533 106.562C96.9616 106.724 96.7313 106.961 96.5622 107.273C96.3932 107.584 96.3087 107.962 96.3087 108.406ZM107.262 113V105.364H108.396V106.517H108.475C108.615 106.139 108.867 105.833 109.231 105.597C109.596 105.362 110.007 105.244 110.464 105.244C110.55 105.244 110.658 105.246 110.787 105.249C110.916 105.253 111.014 105.258 111.081 105.264V106.457C111.041 106.447 110.95 106.433 110.807 106.413C110.668 106.389 110.52 106.378 110.365 106.378C109.993 106.378 109.662 106.456 109.37 106.612C109.082 106.764 108.853 106.976 108.684 107.248C108.518 107.516 108.436 107.823 108.436 108.168V113H107.262ZM114.718 113.179C114.235 113.179 113.795 113.088 113.401 112.906C113.007 112.72 112.693 112.453 112.461 112.105C112.229 111.754 112.113 111.33 112.113 110.832C112.113 110.395 112.2 110.04 112.372 109.768C112.544 109.493 112.775 109.278 113.063 109.122C113.351 108.966 113.669 108.85 114.017 108.774C114.369 108.695 114.722 108.632 115.076 108.585C115.54 108.526 115.917 108.481 116.205 108.451C116.497 108.418 116.709 108.363 116.841 108.287C116.977 108.211 117.045 108.078 117.045 107.889V107.849C117.045 107.359 116.911 106.978 116.642 106.706C116.377 106.434 115.975 106.298 115.434 106.298C114.874 106.298 114.435 106.421 114.117 106.666C113.799 106.911 113.575 107.173 113.446 107.452L112.332 107.054C112.531 106.59 112.796 106.229 113.128 105.97C113.462 105.708 113.827 105.526 114.221 105.423C114.619 105.317 115.01 105.264 115.395 105.264C115.64 105.264 115.922 105.294 116.24 105.354C116.561 105.41 116.871 105.528 117.169 105.707C117.471 105.886 117.721 106.156 117.92 106.517C118.119 106.878 118.218 107.362 118.218 107.969V113H117.045V111.966H116.986C116.906 112.132 116.773 112.309 116.588 112.498C116.402 112.687 116.155 112.848 115.847 112.98C115.539 113.113 115.163 113.179 114.718 113.179ZM114.897 112.125C115.361 112.125 115.753 112.034 116.071 111.852C116.392 111.669 116.634 111.434 116.797 111.146C116.962 110.857 117.045 110.554 117.045 110.236V109.162C116.995 109.222 116.886 109.276 116.717 109.326C116.551 109.372 116.359 109.414 116.14 109.45C115.925 109.483 115.714 109.513 115.509 109.54C115.307 109.563 115.143 109.583 115.017 109.599C114.712 109.639 114.427 109.704 114.162 109.793C113.9 109.879 113.688 110.01 113.525 110.186C113.366 110.358 113.287 110.594 113.287 110.892C113.287 111.3 113.437 111.608 113.739 111.817C114.044 112.022 114.43 112.125 114.897 112.125ZM123.681 105.364V106.358H119.724V105.364H123.681ZM120.877 103.534H122.05V110.812C122.05 111.144 122.098 111.393 122.195 111.558C122.294 111.721 122.42 111.83 122.572 111.886C122.728 111.939 122.892 111.966 123.065 111.966C123.194 111.966 123.3 111.959 123.383 111.946C123.466 111.929 123.532 111.916 123.582 111.906L123.82 112.96C123.741 112.99 123.63 113.02 123.487 113.05C123.345 113.083 123.164 113.099 122.945 113.099C122.614 113.099 122.289 113.028 121.971 112.886C121.656 112.743 121.394 112.526 121.185 112.234C120.98 111.943 120.877 111.575 120.877 111.131V103.534ZM128.566 113.159C127.83 113.159 127.195 112.997 126.661 112.672C126.131 112.344 125.722 111.886 125.434 111.3C125.148 110.71 125.006 110.024 125.006 109.241C125.006 108.459 125.148 107.77 125.434 107.173C125.722 106.573 126.123 106.106 126.637 105.771C127.154 105.433 127.757 105.264 128.446 105.264C128.844 105.264 129.237 105.33 129.625 105.463C130.012 105.596 130.365 105.811 130.684 106.109C131.002 106.404 131.255 106.795 131.444 107.283C131.633 107.77 131.728 108.37 131.728 109.082V109.58H125.841V108.565H130.534C130.534 108.134 130.448 107.75 130.276 107.412C130.107 107.074 129.865 106.807 129.55 106.612C129.238 106.416 128.871 106.318 128.446 106.318C127.979 106.318 127.575 106.434 127.233 106.666C126.895 106.895 126.635 107.193 126.453 107.561C126.27 107.929 126.179 108.323 126.179 108.744V109.42C126.179 109.997 126.279 110.486 126.478 110.887C126.68 111.285 126.96 111.588 127.318 111.797C127.676 112.002 128.092 112.105 128.566 112.105C128.874 112.105 129.152 112.062 129.401 111.976C129.653 111.886 129.87 111.754 130.052 111.578C130.234 111.399 130.375 111.177 130.475 110.912L131.608 111.23C131.489 111.615 131.288 111.953 131.007 112.244C130.725 112.533 130.377 112.758 129.963 112.92C129.548 113.08 129.083 113.159 128.566 113.159ZM140.552 113.159C139.863 113.159 139.258 112.995 138.737 112.667C138.22 112.339 137.816 111.88 137.524 111.29C137.236 110.7 137.092 110.01 137.092 109.222C137.092 108.426 137.236 107.732 137.524 107.138C137.816 106.545 138.22 106.085 138.737 105.756C139.258 105.428 139.863 105.264 140.552 105.264C141.242 105.264 141.845 105.428 142.362 105.756C142.882 106.085 143.286 106.545 143.575 107.138C143.867 107.732 144.012 108.426 144.012 109.222C144.012 110.01 143.867 110.7 143.575 111.29C143.286 111.88 142.882 112.339 142.362 112.667C141.845 112.995 141.242 113.159 140.552 113.159ZM140.552 112.105C141.076 112.105 141.507 111.971 141.845 111.702C142.183 111.434 142.433 111.081 142.595 110.643C142.758 110.206 142.839 109.732 142.839 109.222C142.839 108.711 142.758 108.236 142.595 107.795C142.433 107.354 142.183 106.998 141.845 106.726C141.507 106.454 141.076 106.318 140.552 106.318C140.028 106.318 139.598 106.454 139.259 106.726C138.921 106.998 138.671 107.354 138.509 107.795C138.346 108.236 138.265 108.711 138.265 109.222C138.265 109.732 138.346 110.206 138.509 110.643C138.671 111.081 138.921 111.434 139.259 111.702C139.598 111.971 140.028 112.105 140.552 112.105ZM149.204 105.364V106.358H145.087V105.364H149.204ZM146.32 113V104.31C146.32 103.872 146.423 103.508 146.629 103.216C146.834 102.924 147.101 102.705 147.429 102.56C147.757 102.414 148.104 102.341 148.468 102.341C148.756 102.341 148.992 102.364 149.174 102.411C149.356 102.457 149.492 102.5 149.582 102.54L149.244 103.554C149.184 103.534 149.101 103.509 148.995 103.479C148.892 103.45 148.756 103.435 148.587 103.435C148.2 103.435 147.92 103.532 147.747 103.728C147.578 103.924 147.494 104.21 147.494 104.588V113H146.32ZM157.888 113.159C157.199 113.159 156.594 112.995 156.073 112.667C155.556 112.339 155.152 111.88 154.86 111.29C154.572 110.7 154.428 110.01 154.428 109.222C154.428 108.426 154.572 107.732 154.86 107.138C155.152 106.545 155.556 106.085 156.073 105.756C156.594 105.428 157.199 105.264 157.888 105.264C158.577 105.264 159.181 105.428 159.698 105.756C160.218 106.085 160.622 106.545 160.911 107.138C161.202 107.732 161.348 108.426 161.348 109.222C161.348 110.01 161.202 110.7 160.911 111.29C160.622 111.88 160.218 112.339 159.698 112.667C159.181 112.995 158.577 113.159 157.888 113.159ZM157.888 112.105C158.412 112.105 158.843 111.971 159.181 111.702C159.519 111.434 159.769 111.081 159.931 110.643C160.094 110.206 160.175 109.732 160.175 109.222C160.175 108.711 160.094 108.236 159.931 107.795C159.769 107.354 159.519 106.998 159.181 106.726C158.843 106.454 158.412 106.318 157.888 106.318C157.364 106.318 156.934 106.454 156.595 106.726C156.257 106.998 156.007 107.354 155.845 107.795C155.682 108.236 155.601 108.711 155.601 109.222C155.601 109.732 155.682 110.206 155.845 110.643C156.007 111.081 156.257 111.434 156.595 111.702C156.934 111.971 157.364 112.105 157.888 112.105ZM167.952 109.878V105.364H169.125V113H167.952V111.707H167.872C167.693 112.095 167.415 112.425 167.037 112.697C166.659 112.965 166.182 113.099 165.605 113.099C165.128 113.099 164.704 112.995 164.332 112.786C163.961 112.574 163.67 112.256 163.457 111.832C163.245 111.404 163.139 110.866 163.139 110.216V105.364H164.313V110.136C164.313 110.693 164.468 111.137 164.78 111.469C165.095 111.8 165.496 111.966 165.983 111.966C166.275 111.966 166.571 111.891 166.873 111.742C167.178 111.593 167.433 111.364 167.639 111.056C167.847 110.748 167.952 110.355 167.952 109.878ZM171.274 113V105.364H172.408V106.517H172.487C172.626 106.139 172.878 105.833 173.243 105.597C173.607 105.362 174.018 105.244 174.476 105.244C174.562 105.244 174.67 105.246 174.799 105.249C174.928 105.253 175.026 105.258 175.092 105.264V106.457C175.052 106.447 174.961 106.433 174.819 106.413C174.68 106.389 174.532 106.378 174.376 106.378C174.005 106.378 173.674 106.456 173.382 106.612C173.094 106.764 172.865 106.976 172.696 107.248C172.53 107.516 172.447 107.823 172.447 108.168V113H171.274ZM79.0287 134.159C78.3128 134.159 77.6963 133.99 77.1792 133.652C76.6622 133.314 76.2645 132.848 75.9861 132.255C75.7077 131.662 75.5684 130.984 75.5684 130.222C75.5684 129.446 75.711 128.762 75.996 128.168C76.2844 127.572 76.6854 127.106 77.1991 126.771C77.7162 126.433 78.3194 126.264 79.0088 126.264C79.5457 126.264 80.0296 126.364 80.4605 126.562C80.8914 126.761 81.2443 127.04 81.5194 127.398C81.7945 127.756 81.9652 128.173 82.0315 128.651H80.8582C80.7687 128.303 80.5699 127.994 80.2616 127.726C79.9567 127.454 79.5457 127.318 79.0287 127.318C78.5713 127.318 78.1702 127.437 77.8256 127.676C77.4842 127.911 77.2174 128.245 77.0251 128.675C76.8362 129.103 76.7417 129.605 76.7417 130.182C76.7417 130.772 76.8345 131.286 77.0202 131.723C77.2091 132.161 77.4742 132.5 77.8156 132.742C78.1603 132.984 78.5647 133.105 79.0287 133.105C79.3336 133.105 79.6104 133.052 79.8589 132.946C80.1075 132.84 80.318 132.688 80.4903 132.489C80.6627 132.29 80.7853 132.051 80.8582 131.773H82.0315C81.9652 132.223 81.8012 132.629 81.5393 132.991C81.2808 133.349 80.9378 133.634 80.5102 133.846C80.086 134.055 79.5921 134.159 79.0287 134.159ZM86.849 134.159C86.1596 134.159 85.5547 133.995 85.0344 133.667C84.5173 133.339 84.113 132.88 83.8213 132.29C83.5329 131.7 83.3888 131.01 83.3888 130.222C83.3888 129.426 83.5329 128.732 83.8213 128.138C84.113 127.545 84.5173 127.085 85.0344 126.756C85.5547 126.428 86.1596 126.264 86.849 126.264C87.5384 126.264 88.1416 126.428 88.6586 126.756C89.179 127.085 89.5834 127.545 89.8717 128.138C90.1634 128.732 90.3092 129.426 90.3092 130.222C90.3092 131.01 90.1634 131.7 89.8717 132.29C89.5834 132.88 89.179 133.339 88.6586 133.667C88.1416 133.995 87.5384 134.159 86.849 134.159ZM86.849 133.105C87.3727 133.105 87.8035 132.971 88.1416 132.702C88.4797 132.434 88.7299 132.081 88.8923 131.643C89.0547 131.206 89.1359 130.732 89.1359 130.222C89.1359 129.711 89.0547 129.236 88.8923 128.795C88.7299 128.354 88.4797 127.998 88.1416 127.726C87.8035 127.454 87.3727 127.318 86.849 127.318C86.3253 127.318 85.8944 127.454 85.5564 127.726C85.2183 127.998 84.9681 128.354 84.8057 128.795C84.6433 129.236 84.5621 129.711 84.5621 130.222C84.5621 130.732 84.6433 131.206 84.8057 131.643C84.9681 132.081 85.2183 132.434 85.5564 132.702C85.8944 132.971 86.3253 133.105 86.849 133.105ZM96.9127 130.878V126.364H98.086V134H96.9127V132.707H96.8332C96.6542 133.095 96.3758 133.425 95.998 133.697C95.6201 133.965 95.1428 134.099 94.5661 134.099C94.0889 134.099 93.6646 133.995 93.2934 133.786C92.9222 133.574 92.6305 133.256 92.4184 132.832C92.2063 132.404 92.1002 131.866 92.1002 131.216V126.364H93.2735V131.136C93.2735 131.693 93.4293 132.137 93.7409 132.469C94.0557 132.8 94.4568 132.966 94.944 132.966C95.2356 132.966 95.5323 132.891 95.8339 132.742C96.1388 132.593 96.394 132.364 96.5995 132.056C96.8083 131.748 96.9127 131.355 96.9127 130.878ZM100.235 134V126.364H101.369V127.517H101.448C101.587 127.139 101.839 126.833 102.204 126.597C102.568 126.362 102.979 126.244 103.437 126.244C103.523 126.244 103.631 126.246 103.76 126.249C103.889 126.253 103.987 126.258 104.053 126.264V127.457C104.013 127.447 103.922 127.433 103.78 127.413C103.641 127.389 103.493 127.378 103.337 127.378C102.966 127.378 102.635 127.456 102.343 127.612C102.055 127.764 101.826 127.976 101.657 128.248C101.491 128.516 101.408 128.823 101.408 129.168V134H100.235ZM110.853 128.074L109.799 128.372C109.733 128.196 109.635 128.026 109.506 127.86C109.38 127.691 109.207 127.552 108.989 127.442C108.77 127.333 108.49 127.278 108.149 127.278C107.681 127.278 107.292 127.386 106.98 127.602C106.672 127.814 106.518 128.084 106.518 128.412C106.518 128.704 106.624 128.934 106.836 129.103C107.048 129.272 107.38 129.413 107.83 129.526L108.964 129.804C109.647 129.97 110.155 130.223 110.49 130.565C110.825 130.903 110.992 131.339 110.992 131.872C110.992 132.31 110.866 132.701 110.614 133.045C110.366 133.39 110.018 133.662 109.57 133.861C109.123 134.06 108.603 134.159 108.009 134.159C107.23 134.159 106.586 133.99 106.075 133.652C105.565 133.314 105.242 132.82 105.106 132.17L106.22 131.892C106.326 132.303 106.526 132.611 106.821 132.817C107.119 133.022 107.509 133.125 107.989 133.125C108.536 133.125 108.97 133.009 109.292 132.777C109.617 132.542 109.779 132.26 109.779 131.932C109.779 131.667 109.686 131.445 109.501 131.266C109.315 131.083 109.03 130.947 108.646 130.858L107.373 130.56C106.674 130.394 106.16 130.137 105.832 129.789C105.507 129.438 105.345 128.999 105.345 128.472C105.345 128.041 105.466 127.66 105.707 127.328C105.953 126.997 106.286 126.737 106.707 126.548C107.131 126.359 107.612 126.264 108.149 126.264C108.904 126.264 109.497 126.43 109.928 126.761C110.363 127.093 110.671 127.53 110.853 128.074ZM115.96 134.159C115.224 134.159 114.59 133.997 114.056 133.672C113.526 133.344 113.116 132.886 112.828 132.3C112.543 131.71 112.4 131.024 112.4 130.241C112.4 129.459 112.543 128.77 112.828 128.173C113.116 127.573 113.517 127.106 114.031 126.771C114.548 126.433 115.151 126.264 115.841 126.264C116.239 126.264 116.631 126.33 117.019 126.463C117.407 126.596 117.76 126.811 118.078 127.109C118.396 127.404 118.65 127.795 118.839 128.283C119.028 128.77 119.122 129.37 119.122 130.082V130.58H113.236V129.565H117.929C117.929 129.134 117.843 128.75 117.67 128.412C117.501 128.074 117.259 127.807 116.945 127.612C116.633 127.416 116.265 127.318 115.841 127.318C115.373 127.318 114.969 127.434 114.628 127.666C114.29 127.895 114.03 128.193 113.847 128.561C113.665 128.929 113.574 129.323 113.574 129.744V130.42C113.574 130.997 113.673 131.486 113.872 131.887C114.074 132.285 114.354 132.588 114.712 132.797C115.07 133.002 115.486 133.105 115.96 133.105C116.268 133.105 116.547 133.062 116.795 132.976C117.047 132.886 117.264 132.754 117.447 132.578C117.629 132.399 117.77 132.177 117.869 131.912L119.003 132.23C118.883 132.615 118.683 132.953 118.401 133.244C118.119 133.533 117.771 133.758 117.357 133.92C116.943 134.08 116.477 134.159 115.96 134.159ZM126.316 128.074L125.262 128.372C125.196 128.196 125.098 128.026 124.969 127.86C124.843 127.691 124.67 127.552 124.452 127.442C124.233 127.333 123.953 127.278 123.611 127.278C123.144 127.278 122.755 127.386 122.443 127.602C122.135 127.814 121.981 128.084 121.981 128.412C121.981 128.704 122.087 128.934 122.299 129.103C122.511 129.272 122.842 129.413 123.293 129.526L124.427 129.804C125.11 129.97 125.618 130.223 125.953 130.565C126.288 130.903 126.455 131.339 126.455 131.872C126.455 132.31 126.329 132.701 126.077 133.045C125.829 133.39 125.481 133.662 125.033 133.861C124.586 134.06 124.065 134.159 123.472 134.159C122.693 134.159 122.049 133.99 121.538 133.652C121.028 133.314 120.705 132.82 120.569 132.17L121.682 131.892C121.789 132.303 121.989 132.611 122.284 132.817C122.582 133.022 122.972 133.125 123.452 133.125C123.999 133.125 124.433 133.009 124.755 132.777C125.08 132.542 125.242 132.26 125.242 131.932C125.242 131.667 125.149 131.445 124.964 131.266C124.778 131.083 124.493 130.947 124.109 130.858L122.836 130.56C122.137 130.394 121.623 130.137 121.295 129.789C120.97 129.438 120.807 128.999 120.807 128.472C120.807 128.041 120.928 127.66 121.17 127.328C121.416 126.997 121.749 126.737 122.17 126.548C122.594 126.359 123.074 126.264 123.611 126.264C124.367 126.264 124.96 126.43 125.391 126.761C125.825 127.093 126.134 127.53 126.316 128.074Z" fill="black"/>
<path d="M166.5 87C166.5 69.7609 159.652 53.2279 147.462 41.0381C135.272 28.8482 118.739 22 101.5 22C84.2609 22 67.7279 28.8482 55.5381 41.0381C43.3482 53.2279 36.5 69.7609 36.5 87H49.4751C49.4751 73.2021 54.9563 59.9694 64.7129 50.2128C74.4694 40.4563 87.7021 34.9751 101.5 34.9751C115.298 34.9751 128.531 40.4563 138.287 50.2129C148.044 59.9694 153.525 73.2021 153.525 87H166.5Z" fill="#BFDBFE"/>
<path d="M152.393 46.5663C144.021 36.0285 132.584 28.3494 119.662 24.5888C106.739 20.8283 92.9677 21.1719 80.2486 25.5722C67.5296 29.9724 56.49 38.2123 48.6538 49.1545C40.8176 60.0967 36.5713 73.2015 36.5009 86.66L49.4758 86.7279C49.5322 75.9559 52.9309 65.467 59.2028 56.7091C65.4748 47.9512 74.3106 41.3561 84.4908 37.8342C94.6709 34.3123 105.693 34.0373 116.036 37.0472C126.379 40.057 135.533 46.2033 142.234 54.6376L152.393 46.5663Z" fill="#3B82F6"/>
<circle cx="101.5" cy="58" r="6" fill="#2563EB"/>
</g>
<defs>
<filter id="filter0_d_950_6968" x="0.5" y="0" width="202" height="162" filterUnits="userSpaceOnUse" color-interpolation-filters="sRGB">
<feFlood flood-opacity="0" result="BackgroundImageFix"/>
<feColorMatrix in="SourceAlpha" type="matrix" values="0 0 0 0 0 0 0 0 0 0 0 0 0 0 0 0 0 0 127 0" result="hardAlpha"/>
<feOffset/>
<feGaussianBlur stdDeviation="4"/>
<feComposite in2="hardAlpha" operator="out"/>
<feColorMatrix type="matrix" values="0 0 0 0 0.231373 0 0 0 0 0.509804 0 0 0 0 0.964706 0 0 0 0.12 0"/>
<feBlend mode="normal" in2="BackgroundImageFix" result="effect1_dropShadow_950_6968"/>
<feBlend mode="normal" in="SourceGraphic" in2="effect1_dropShadow_950_6968" result="shape"/>
</filter>
</defs>
</svg>
