<svg width="20" height="20" viewBox="0 0 20 20" fill="none" xmlns="http://www.w3.org/2000/svg">
<path d="M10.3437 14.8984L14.2811 17.3984C14.7889 17.7187 15.4139 17.2421 15.2655 16.6562L14.1249 12.1719C14.094 12.0476 14.0989 11.9171 14.139 11.7955C14.1791 11.6738 14.2527 11.566 14.3514 11.4844L17.8827 8.5391C18.3436 8.15629 18.1092 7.38286 17.5077 7.3438L12.8983 7.04692C12.7726 7.03961 12.6517 6.99581 12.5504 6.92089C12.4491 6.84597 12.3718 6.74317 12.328 6.62505L10.6093 2.29697C10.5638 2.1719 10.4809 2.06385 10.3719 1.9875C10.2629 1.91115 10.133 1.8702 9.99992 1.8702C9.86683 1.8702 9.73696 1.91115 9.62794 1.9875C9.51893 2.06385 9.43605 2.1719 9.39055 2.29697L7.67182 6.62505C7.62801 6.74317 7.55075 6.84597 7.44947 6.92089C7.34819 6.99581 7.22728 7.03961 7.10151 7.04692L2.49218 7.3438C1.89063 7.38286 1.65626 8.15629 2.11719 8.5391L5.6484 11.4844C5.7471 11.566 5.82073 11.6738 5.86082 11.7955C5.9009 11.9171 5.9058 12.0476 5.87496 12.1719L4.82029 16.3281C4.6406 17.0312 5.39059 17.6015 5.99215 17.2187L9.65617 14.8984C9.75892 14.8331 9.87816 14.7984 9.99992 14.7984C10.1217 14.7984 10.2409 14.8331 10.3437 14.8984Z" fill="#FEC84B"/>
</svg>
