<svg width="20" height="20" viewBox="0 0 20 20" fill="none" xmlns="http://www.w3.org/2000/svg">
<path d="M10.3438 14.8984L14.2813 17.3984C14.7891 17.7187 15.4141 17.2421 15.2656 16.6562L14.125 12.1719C14.0942 12.0476 14.0991 11.9171 14.1392 11.7955C14.1792 11.6738 14.2529 11.566 14.3516 11.4844L17.8828 8.5391C18.3437 8.15629 18.1093 7.38286 17.5078 7.3438L12.8985 7.04692C12.7727 7.03961 12.6518 6.99581 12.5505 6.92089C12.4492 6.84597 12.372 6.74317 12.3281 6.62505L10.6094 2.29697C10.5639 2.1719 10.481 2.06385 10.372 1.9875C10.263 1.91115 10.1331 1.8702 10 1.8702C9.86696 1.8702 9.73709 1.91115 9.62807 1.9875C9.51906 2.06385 9.43617 2.1719 9.39068 2.29697L7.67195 6.62505C7.62814 6.74317 7.55088 6.84597 7.4496 6.92089C7.34832 6.99581 7.22741 7.03961 7.10164 7.04692L2.49231 7.3438C1.89075 7.38286 1.65638 8.15629 2.11732 8.5391L5.64853 11.4844C5.74723 11.566 5.82086 11.6738 5.86094 11.7955C5.90103 11.9171 5.90593 12.0476 5.87509 12.1719L4.82041 16.3281C4.64073 17.0312 5.39072 17.6015 5.99228 17.2187L9.6563 14.8984C9.75905 14.8331 9.87829 14.7984 10 14.7984C10.1218 14.7984 10.241 14.8331 10.3438 14.8984Z" fill="#FEC84B"/>
</svg>
