<svg width="20" height="20" viewBox="0 0 20 20" fill="none" xmlns="http://www.w3.org/2000/svg">
<path d="M10.3438 14.8986L14.2813 17.3986C14.7891 17.7189 15.4141 17.2424 15.2657 16.6564L14.1251 12.172C14.0942 12.0477 14.0991 11.9172 14.1392 11.7956C14.1793 11.674 14.2529 11.5661 14.3516 11.4845L17.8829 8.53921C18.3438 8.15639 18.1094 7.38295 17.5079 7.34389L12.8985 7.04701C12.7727 7.0397 12.6518 6.9959 12.5505 6.92098C12.4492 6.84606 12.372 6.74326 12.3282 6.62514L10.6094 2.297C10.5639 2.17193 10.481 2.06388 10.372 1.98753C10.263 1.91118 10.1331 1.87022 10 1.87022C9.86695 1.87022 9.73708 1.91118 9.62807 1.98753C9.51905 2.06388 9.43617 2.17193 9.39067 2.297L7.67192 6.62514C7.62811 6.74326 7.55085 6.84606 7.44957 6.92098C7.34828 6.9959 7.22737 7.0397 7.1016 7.04701L2.49222 7.34389C1.89065 7.38295 1.65628 8.15639 2.11721 8.53921L5.64847 11.4845C5.74717 11.5661 5.82081 11.674 5.86089 11.7956C5.90098 11.9172 5.90588 12.0477 5.87504 12.172L4.82035 16.3283C4.64066 17.0314 5.39066 17.6017 5.99222 17.2189L9.6563 14.8986C9.75905 14.8333 9.87829 14.7986 10 14.7986C10.1218 14.7986 10.241 14.8333 10.3438 14.8986Z" fill="#FACC15"/>
</svg>
